<?xml version="1.0" standalone="no"?>
<!DOCTYPE svg PUBLIC "-//W3C//DTD SVG 20010904//EN"
 "http://www.w3.org/TR/2001/REC-SVG-20010904/DTD/svg10.dtd">
<svg version="1.0" xmlns="http://www.w3.org/2000/svg"
 width="642.000000pt" height="642.000000pt" viewBox="0 0 642.000000 642.000000"
 preserveAspectRatio="xMidYMid meet">
<metadata>
Created by potrace 1.14, written by Peter Selinger 2001-2017
</metadata>
<g transform="translate(0.000000,642.000000) scale(0.100000,-0.100000)"
fill="#000000" stroke="none">
<path d="M1745 3758 c-267 -29 -476 -261 -477 -529 0 -72 4 -97 24 -141 49
-106 139 -178 244 -197 35 -6 205 -10 417 -10 l357 1 1 21 c0 12 0 119 0 237
0 191 -2 223 -21 282 -42 136 -157 259 -287 308 -69 26 -175 38 -258 28z m122
-104 c3 -10 -141 -362 -162 -395 -11 -17 -145 -82 -153 -74 -4 4 100 270 169
435 l20 46 61 -1 c34 0 63 -5 65 -11z m139 -300 c53 -131 107 -265 120 -297
l23 -57 -66 4 c-36 3 -69 8 -73 13 -7 8 -32 72 -128 330 l-49 133 26 79 c24
72 27 77 38 57 6 -12 55 -130 109 -262z m-139 -130 c14 -4 31 -27 51 -72 16
-37 29 -68 27 -70 -2 -2 -17 4 -35 13 -45 23 -129 23 -182 -1 -46 -20 -75 -44
-103 -87 -17 -26 -21 -27 -86 -25 -38 2 -69 5 -69 8 0 11 69 106 96 134 39 39
95 75 141 92 39 14 122 18 160 8z"/>
<path d="M2845 3374 c-5 -1 -22 -5 -37 -8 -102 -23 -83 -155 26 -186 43 -12
86 -42 86 -60 0 -18 -32 -40 -59 -40 -33 0 -58 18 -63 44 -2 12 -13 21 -30 23
-26 3 -28 1 -28 -30 0 -51 36 -80 108 -84 67 -5 121 21 124 59 5 74 -11 99
-81 125 -91 34 -114 65 -70 96 33 24 105 -7 92 -39 -4 -10 3 -14 25 -14 16 0
32 6 35 13 7 19 -21 74 -41 82 -26 11 -76 22 -87 19z"/>
<path d="M2515 3358 c-2 -7 -20 -76 -40 -153 -20 -77 -38 -147 -40 -155 -4
-11 3 -16 24 -18 32 -2 40 5 47 45 7 36 8 37 60 38 48 2 60 -9 67 -57 3 -18
10 -23 33 -23 36 0 36 1 -14 190 l-37 140 -48 3 c-32 2 -49 -1 -52 -10z m79
-155 l7 -41 -31 3 c-17 1 -33 5 -36 8 -3 2 3 38 13 78 l17 73 12 -40 c6 -22
15 -58 18 -81z"/>
<path d="M3139 3363 c-1 -9 -1 -264 0 -305 1 -27 2 -28 64 -27 34 1 76 7 93
14 82 34 119 158 72 244 -32 60 -74 81 -160 81 -38 0 -68 -3 -69 -7z m152 -72
c17 -17 30 -41 30 -58 5 -102 -18 -139 -93 -149 l-28 -4 0 120 0 120 31 0 c20
0 40 -10 60 -29z"/>
<path d="M3443 3203 l2 -168 27 -3 27 -3 3 138 c4 196 3 203 -32 203 l-28 0 1
-167z"/>
<path d="M3625 3358 c-3 -7 -23 -82 -44 -166 -41 -157 -40 -166 3 -158 13 2
23 16 31 42 10 37 13 39 52 40 53 1 59 -3 70 -46 8 -30 14 -35 42 -37 27 -2
31 0 27 15 -3 9 -15 55 -26 102 -12 47 -24 92 -26 100 -2 8 -9 39 -15 68 l-12
52 -49 0 c-30 0 -50 -5 -53 -12z m85 -179 c0 -11 -9 -15 -32 -15 -26 1 -33 5
-32 21 1 25 9 70 20 110 7 27 8 25 25 -35 10 -36 18 -72 19 -81z"/>
<path d="M3850 3200 l0 -170 95 2 c92 2 95 3 95 25 0 13 -4 23 -10 24 -5 1
-34 2 -62 2 l-53 2 -3 143 -3 142 -29 0 -30 0 0 -170z"/>
<path d="M4086 3208 c1 -90 2 -166 3 -170 0 -3 45 -6 99 -5 78 2 97 5 98 17 1
28 -14 35 -75 33 l-61 -1 0 48 0 49 38 -1 c67 -1 72 1 72 25 0 22 -4 24 -51
24 -58 1 -56 0 -59 33 -5 60 -5 60 68 60 65 0 69 1 67 23 -2 21 -6 22 -101 25
l-99 3 1 -163z"/>
<path d="M4342 3203 l3 -168 28 -1 c27 -1 27 -1 27 67 l0 69 38 0 c62 0 65 -5
71 -120 1 -10 12 -17 30 -18 l30 -2 -2 64 c-1 44 -7 70 -19 83 -17 18 -16 20
2 36 31 26 30 100 -1 132 -16 17 -36 21 -115 23 l-94 4 2 -169z m149 107 c12
-7 19 -21 19 -40 0 -35 -23 -50 -74 -50 l-36 0 0 50 0 50 36 0 c19 0 44 -5 55
-10z"/>
<path d="M3200 2960 c0 -5 5 -10 11 -10 5 0 7 5 4 10 -3 6 -8 10 -11 10 -2 0
-4 -4 -4 -10z"/>
<path d="M2762 2938 c7 -15 15 -23 17 -17 2 6 -4 18 -13 27 -15 15 -15 15 -4
-10z"/>
<path d="M2821 2944 c0 -11 3 -14 6 -6 3 7 2 16 -1 19 -3 4 -6 -2 -5 -13z"/>
<path d="M3255 2949 c-4 -6 -5 -12 -2 -15 2 -3 7 2 10 11 7 17 1 20 -8 4z"/>
<path d="M2421 2934 c0 -11 3 -14 6 -6 3 7 2 16 -1 19 -3 4 -6 -2 -5 -13z"/>
<path d="M2545 2930 c11 -14 20 -26 21 -28 1 -2 1 10 1 25 0 15 -2 22 -4 15
-4 -10 -8 -10 -21 0 -12 9 -11 5 3 -12z"/>
<path d="M2942 2930 c0 -14 2 -19 5 -12 2 6 2 18 0 25 -3 6 -5 1 -5 -13z"/>
<path d="M3287 2939 c7 -9 10 -19 6 -22 -3 -4 -1 -7 5 -7 17 0 15 16 -5 31
-16 12 -17 12 -6 -2z"/>
<path d="M2730 2927 c0 -9 4 -18 9 -21 5 -4 8 1 7 9 -3 21 -16 31 -16 12z"/>
<path d="M2882 2916 c7 -8 15 -12 17 -11 5 6 -10 25 -20 25 -5 0 -4 -6 3 -14z"/>
<path d="M2635 2910 c-3 -5 -1 -10 4 -10 6 0 11 5 11 10 0 6 -2 10 -4 10 -3 0
-8 -4 -11 -10z"/>
</g>
</svg>
