<?xml version="1.0" encoding="UTF-8"?> <svg xmlns="http://www.w3.org/2000/svg" xmlns:xlink="http://www.w3.org/1999/xlink" version="1.1" id="Layer_1" x="0px" y="0px" viewBox="0 0 88 88" style="enable-background:new 0 0 88 88;" xml:space="preserve"> <style type="text/css"> .st0{fill:#FED300;} </style> <g transform="matrix(1, 0, 0, 1, 1047, 1368)"> <circle id="Ellipse_59-2" class="st0" cx="-997" cy="-1329.6" r="36.5"></circle> </g> <g> <path d="M45.8,32.1H21.1c-0.5,0-0.9,0.4-0.9,0.9c0,0.5,0.4,0.9,0.9,0.9h24.7c0.5,0,0.9-0.4,0.9-0.9C46.7,32.4,46.3,32,45.8,32.1 L45.8,32.1z"></path> <path d="M31.4,36.5H21.1c-0.5,0-0.9,0.4-0.9,0.9c0,0.5,0.4,0.9,0.9,0.9h10.3c0.5,0,0.9-0.4,0.9-0.9C32.3,36.9,31.9,36.5,31.4,36.5z "></path> <path d="M27.8,47.2h-9.1c-0.5,0-0.9,0.4-0.9,0.9c0,0.5,0.4,0.9,0.9,0.9h9.1c0.5,0,0.9-0.4,0.9-0.9C28.7,47.6,28.3,47.2,27.8,47.2z"></path> <path d="M23.7,50.2h-5.1c-0.5,0-0.9,0.4-0.9,0.9c0,0.5,0.4,0.9,0.9,0.9h5.1c0.5,0,0.9-0.4,0.9-0.9C24.6,50.6,24.1,50.2,23.7,50.2z"></path> <path d="M61.2,63.8h-0.3v-3.5c0-2-0.8-3.8-2.2-5.2c-0.9-0.9-2-1.6-3.3-1.9l1.2-8.6c0.1-0.8-0.1-1.6-0.7-2.2c-0.5-0.6-1.3-1-2.1-1 h-0.7v-3.3c0-1.3-1-2.3-2.3-2.3h-0.3v-5.5c0-1.9-1.5-3.4-3.4-3.4H19.7c-1.9,0-3.4,1.5-3.4,3.4v1.1h-3.4c-1.3,0-2.3,1-2.3,2.3v35.9 v0.1V70c0,0.1,0.1,0.1,0.1,0.2c0,0,0,0.1,0.1,0.1l0,0c0.1,0.1,0.1,0.1,0.2,0.2c0,0,0.1,0,0.1,0.1c0.1,0.1,0.2,0.1,0.4,0.1h31.8v8.6 c0,1.4,1.1,2.5,2.5,2.5h15.4c1.4,0,2.5-1.1,2.5-2.5v-13C63.6,64.9,62.5,63.8,61.2,63.8z M59.1,60.3v3.5h-1.6v-3.5 c0-1.1-0.4-2.1-1.2-2.9c-1.6-1.6-4.2-1.6-5.8,0c-0.8,0.8-1.2,1.8-1.2,2.9v3.5h-1.6v-3.5c0-3.1,2.5-5.7,5.7-5.7c1.5,0,3,0.6,4,1.7 C58.5,57.5,59.1,58.9,59.1,60.3L59.1,60.3z M51.1,63.8v-3.5c0-1.3,1.1-2.4,2.4-2.4c0.6,0,1.2,0.3,1.7,0.7c0.4,0.4,0.7,1,0.7,1.7 v3.5H51.1L51.1,63.8z M50.9,37.6c0.3,0,0.6,0.2,0.6,0.6l0,0v3.4h-0.8v-4H50.9z M18,30.5c0-0.9,0.8-1.7,1.7-1.7l0,0h27.5 c0.9,0,1.7,0.8,1.7,1.7l0,0v11H18V30.5z M12.9,33.2h3.4v8.3c-1.1,0.3-1.9,1.2-2.1,2.3l-1.9,13.6V33.8 C12.3,33.5,12.6,33.2,12.9,33.2L12.9,33.2z M12.5,68.9l3.4-24.7c0.1-0.5,0.5-0.9,1.1-0.9h36.8c0.3,0,0.6,0.1,0.8,0.4 c0.2,0.2,0.3,0.6,0.3,0.9l-1.2,8.5c-0.1,0-0.2,0-0.3,0c-4.1,0-7.3,3.3-7.3,7.3v3.5h-0.3c-1.4,0-2.5,1.1-2.5,2.5V69L12.5,68.9z M61.9,79.3c0,0.4-0.3,0.7-0.7,0.7l0,0H45.8c-0.4,0-0.7-0.3-0.7-0.7l0,0v-13c0-0.4,0.3-0.7,0.7-0.7h15.4c0.4,0,0.7,0.3,0.7,0.7l0,0 V79.3L61.9,79.3z"></path> <path d="M53.4,68.9c-1.6,0-2.9,1.3-2.9,2.9c0,1.3,0.8,2.4,2,2.8v2.3c0,0.5,0.4,0.9,0.9,0.9c0.5,0,0.9-0.4,0.9-0.9v-2.3 c1.5-0.5,2.4-2.1,1.9-3.6C55.8,69.7,54.7,68.9,53.4,68.9L53.4,68.9z M53.4,73c-0.7,0-1.2-0.5-1.2-1.2c0-0.7,0.5-1.2,1.2-1.2 s1.2,0.5,1.2,1.2C54.6,72.5,54.1,73,53.4,73L53.4,73z"></path> </g> </svg> 