<?xml version="1.0" encoding="UTF-8"?> <svg xmlns="http://www.w3.org/2000/svg" xmlns:xlink="http://www.w3.org/1999/xlink" version="1.1" id="Layer_1" x="0px" y="0px" viewBox="0 0 88 88" style="enable-background:new 0 0 88 88;" xml:space="preserve"> <style type="text/css"> .st0{fill:#FED300;} </style> <g transform="matrix(1, 0, 0, 1, 1047, 1368)"> <circle id="Ellipse_59-2" class="st0" cx="-997.5" cy="-1330.3" r="36.5"></circle> </g> <path d="M39.1,62.6l11-15.2c0.4-0.5,0.3-1.2-0.2-1.6c-0.4-0.3-1-0.3-1.4,0l-15.2,11c-1,0.7-1.6,1.8-1.7,3.1 c-0.1,1.2,0.3,2.4,1.2,3.3c0.8,0.8,1.9,1.2,3,1.2C37,64.3,38.3,63.7,39.1,62.6L39.1,62.6z M33.8,60c0-0.5,0.3-1,0.8-1.3l9.3-6.7 l-6.7,9.3c-0.6,0.9-2,1-2.8,0.2C34,61.1,33.8,60.5,33.8,60L33.8,60z"></path> <path d="M59.5,31.3l-26,15L33,46.7l-0.6-0.3l-24.9-15l1.1-1.9L33,44.1l25.4-14.7L59.5,31.3z"></path> <path d="M52.1,75c0.1,0.5,0,0.9-0.1,1.4c-0.2,0.4-0.4,0.8-0.8,1.2l0,0L45.8,83c-0.2,0.2-0.4,0.4-0.6,0.5c-0.2,0.2-0.5,0.3-0.7,0.4 c-0.2,0.1-0.5,0.2-0.7,0.3c-0.2,0.1-0.5,0.1-0.8,0.2l-0.1,0l0,0c-0.1,0-0.1,0-0.1,0c-0.1,0-0.2,0-0.3,0c-0.2,0-0.3,0-0.3,0 c-6.1,0-12.9-3.9-18.6-9.3c-6.3-5.9-11.2-13.5-12.2-19.5c-0.1-0.4-0.1-0.7-0.1-1c0-0.3,0-0.6,0-0.9l0,0v0l0,0c0-0.1,0-0.1,0-0.2 c0-0.1,0-0.1,0-0.1c0-0.3,0-0.5,0-0.6s0-0.1,0-0.2l0-0.2c0-0.3,0.1-0.5,0.2-0.8c0.1-0.3,0.2-0.5,0.3-0.7c0.1-0.2,0.3-0.5,0.4-0.7 c0.1-0.2,0.3-0.4,0.5-0.6l0,0l5.5-5.5c0.3-0.3,0.6-0.5,1-0.7c0.4-0.2,0.7-0.2,1.1-0.2l0,0c0.3,0,0.6,0,0.8,0.1 c0.3,0.1,0.5,0.2,0.8,0.4c0.2,0.1,0.4,0.3,0.5,0.5c0.2,0.2,0.3,0.4,0.4,0.6l0,0.1l4.4,8.3l0,0c0.2,0.3,0.3,0.7,0.4,1.1 c0.1,0.4,0,0.8,0,1.1c-0.1,0.4-0.2,0.7-0.4,1c-0.2,0.3-0.4,0.6-0.6,0.9l0,0l-1.9,1.9c0,0.2,0.1,0.3,0.2,0.5c0.1,0.3,0.3,0.6,0.4,0.9 v0c0.8,1.6,2.4,3.6,4.2,5.4c1.8,1.8,3.8,3.4,5.5,4.2l0,0c0.3,0.2,0.6,0.3,0.8,0.4c0.1,0.1,0.3,0.1,0.4,0.1l0.2,0l2.2-2.2l0.1-0.1 c0.7-0.6,1.6-0.9,2.5-0.9c0.3,0,0.6,0,0.9,0.1c0.3,0.1,0.5,0.2,0.8,0.3l0.1,0l7.9,4.7l0,0c0.4,0.2,0.7,0.5,1,0.9 C51.8,74.1,52,74.5,52.1,75L52.1,75L52.1,75z M49.9,75.7c0-0.1,0-0.2,0-0.3c0-0.1-0.1-0.2-0.1-0.3c-0.1-0.1-0.2-0.2-0.4-0.3l0,0 l-7.9-4.7l-0.1,0c0,0-0.1,0-0.2-0.1c-0.1,0-0.3,0-0.4,0c-0.2,0-0.4,0-0.5,0.1c-0.2,0.1-0.3,0.2-0.5,0.3l-2.3,2.3l0,0 c-0.1,0.1-0.2,0.2-0.4,0.3c-0.1,0.1-0.2,0.1-0.3,0.1c-0.1,0-0.2,0.1-0.3,0.1c-0.1,0-0.2,0-0.4,0l-0.2,0l-0.5-0.1 c-0.3-0.1-0.6-0.1-0.8-0.3c-0.3-0.1-0.6-0.3-0.9-0.4l0,0c-1.9-1-4.1-2.7-6-4.7c-1.9-2-3.7-4.2-4.6-6l0,0c-0.2-0.4-0.4-0.8-0.5-1.2 c-0.1-0.4-0.2-0.7-0.3-1.1l0-0.2c0-0.1,0-0.2,0-0.4c0-0.1,0.1-0.2,0.1-0.3c0-0.1,0.1-0.2,0.1-0.3c0.1-0.1,0.2-0.3,0.3-0.4l0,0l2-2 l0,0c0.1-0.1,0.2-0.2,0.2-0.3c0.1-0.1,0.1-0.3,0.2-0.4c0-0.1,0-0.2,0-0.4c0-0.1-0.1-0.2-0.1-0.3l0,0l-4.4-8.3 c-0.1-0.2-0.2-0.3-0.4-0.4c0,0-0.1-0.1-0.1-0.1c-0.1,0-0.1,0-0.2,0l0,0c-0.1,0-0.2,0-0.3,0c-0.1,0.1-0.2,0.1-0.3,0.2L14,51.3l0,0 c-0.1,0.1-0.2,0.2-0.2,0.3c-0.1,0.1-0.2,0.2-0.2,0.4c-0.1,0.1-0.1,0.3-0.2,0.4c0,0.1-0.1,0.2-0.1,0.4l0,0.2c0,0.2,0,0.4,0,0.6v0.1 c0,0,0,0.1,0,0.1l0,0v0l0,0c0,0.2,0,0.4,0,0.7c0,0.3,0.1,0.6,0.1,0.9c0.9,5.5,5.5,12.6,11.5,18.2c5.3,5,11.7,8.7,17.2,8.7h0.3 c0.1,0,0.1,0,0.2,0c0.2,0,0.1,0,0.2,0h0.1c0.1,0,0.2,0,0.3-0.1c0.2,0,0.3-0.1,0.4-0.2c0.1-0.1,0.3-0.1,0.4-0.2 c0.1-0.1,0.2-0.1,0.3-0.2l0,0l5.5-5.4l0,0C49.8,75.9,49.9,75.8,49.9,75.7L49.9,75.7z M42.9,84.4L42.9,84.4 C42.8,84.4,42.8,84.4,42.9,84.4z"></path> <path d="M8.1,29.3H7v29.4h3.8c-0.2-0.7-0.4-1.5-0.6-2.2h-1v-25h48.6v25h-3.2v2.2h5.4V29.3H8.1z"></path> </svg> 