<?xml version="1.0" encoding="UTF-8"?> <svg xmlns="http://www.w3.org/2000/svg" xmlns:xlink="http://www.w3.org/1999/xlink" version="1.1" id="Layer_1" x="0px" y="0px" viewBox="0 0 55 55" style="enable-background:new 0 0 55 55;" xml:space="preserve"> <style type="text/css"> .st0{fill:#FED300;} </style> <g transform="matrix(1, 0, 0, 1, 1047, 1368)"> <circle id="Ellipse_59-2" class="st0" cx="-1016.5" cy="-1338" r="24"></circle> </g> <path id="Path_4979" d="M33.1,9.8c-4.7,0-8.6,3.8-8.6,8.5c0,2.7,1.3,5.3,3.4,6.9H14.2c3.8-2.8,4.5-8.2,1.7-12S7.7,8.7,4,11.5 s-4.5,8.2-1.7,12c1.6,2.2,4.2,3.4,6.9,3.4h24c4.7-0.1,8.5-4,8.4-8.8C41.4,13.6,37.7,9.9,33.1,9.8L33.1,9.8z M2.3,18.3 c0-3.8,3.1-6.9,6.9-6.9s6.9,3.1,6.9,6.9c0,3.8-3.1,6.9-6.9,6.9l0,0l0,0C5.3,25.2,2.3,22.1,2.3,18.3L2.3,18.3z M33.1,25.2 c-3.8,0-6.9-3.1-6.9-6.9s3.1-6.9,6.9-6.9c3.8,0,6.9,3.1,6.9,6.9l0,0C40,22.1,36.9,25.2,33.1,25.2L33.1,25.2z"></path> </svg> 