<?xml version="1.0" encoding="UTF-8"?> <svg xmlns="http://www.w3.org/2000/svg" xmlns:xlink="http://www.w3.org/1999/xlink" width="180" height="180" viewBox="0 0 180 180"><defs><filter id="Ellipse_114" x="0" y="0" width="180" height="180"><feOffset></feOffset><feGaussianBlur stdDeviation="10" result="blur"></feGaussianBlur><feFlood flood-color="#fed300" flood-opacity="0.4"></feFlood><feComposite operator="in" in2="blur"></feComposite><feComposite in="SourceGraphic"></feComposite></filter></defs><g id="Group_4170" data-name="Group 4170" transform="translate(-462 -3423)"><g transform="matrix(1, 0, 0, 1, 462, 3423)" filter="url(#Ellipse_114)"><circle id="Ellipse_114-2" data-name="Ellipse 114" cx="60" cy="60" r="60" transform="translate(30 30)" fill="#fed300"></circle></g><g id="Add_Contact_-_Phonebook" data-name="Add Contact - Phonebook" transform="translate(-134.446 2969.377)"><path id="Path_7112" data-name="Path 7112" d="M756.4,511.56H712.751a6.87,6.87,0,0,0-6.871,6.872v2.289c6.07,0,9.292-.665,9.292,2.29s-3.229,2.29-9.292,2.29v11.451c6.07,0,9.292-.665,9.292,2.29s-3.229,2.29-9.292,2.29v27.483a6.872,6.872,0,0,0,6.869,6.871H756.4a6.87,6.87,0,0,0,6.871-6.872V518.431A6.868,6.868,0,0,0,756.4,511.56ZM735.79,523.011h.137a9.326,9.326,0,1,1-.137,0Zm16.031,43.514H719.759c-2.794,0-2.29-3.069-2.29-5.771,0-22.9,36.644-22.9,36.644,0C754.112,563.5,754.616,566.525,751.822,566.525Z" transform="translate(-44.76)" fill="none" stroke="#000" stroke-width="2"></path><path id="Path_7113" data-name="Path 7113" d="M661.12,581.56v4.58h-4.45a2.29,2.29,0,1,1,0-4.58Z" transform="translate(0 -60.839)" fill="none" stroke="#000" stroke-width="2"></path><path id="Path_7114" data-name="Path 7114" d="M661.163,703.723v4.58c-3.481,0-6.733.6-6.733-2.29S657.59,703.723,661.163,703.723Z" transform="translate(-0.043 -166.97)" fill="none" stroke="#000" stroke-width="2"></path></g></g></svg> 