<?xml version="1.0" encoding="UTF-8"?> <svg xmlns="http://www.w3.org/2000/svg" width="87.75" height="79.088" viewBox="0 0 87.75 79.088"><g id="Group_4165" data-name="Group 4165" transform="translate(-417.25 -1651.912)"><g id="Group_1645" data-name="Group 1645" transform="translate(434.973 1660.973)"><circle id="Ellipse_108" data-name="Ellipse 108" cx="35" cy="35" r="35" transform="translate(0.027 0.027)" fill="#fed300"></circle></g><g id="Fast_Reliable" data-name="Fast &amp; Reliable" transform="translate(418 1652.662)"><path id="Path_7085" data-name="Path 7085" d="M115.429,58.664A2.024,2.024,0,0,1,116.891,58h.064a2.022,2.022,0,0,1,1.423.6c.111.112,11.134,11.2,24.839,11.2q.531,0,1.063-.022h.1a1.969,1.969,0,0,1,1.985,1.839,75.832,75.832,0,0,1-2.686,21.789c-4.251,15.367-13.079,25.948-25.531,30.6a2.064,2.064,0,0,1-.716.128,2.02,2.02,0,0,1-.51-.064c-.286-.074-6.774-1.8-13.615-8.36A18.6,18.6,0,1,0,88.354,83.568,89.434,89.434,0,0,1,87.5,72.715a1.957,1.957,0,0,1,1.709-1.952c.175-.025,17.66-2.587,26.217-12.1Zm9.785,52.036a1.033,1.033,0,1,0-1.033-1.033A1.033,1.033,0,0,0,125.214,110.7Zm-3.2-38.437c3.348,2.48,8.612,5.432,14.682,5.432a.072.072,0,0,0,.022,0,.391.391,0,0,1,.276.107.308.308,0,0,1,.1.221c0,.171-.564,6.635-.564,6.635a78.662,78.662,0,0,1-1.931,8.285,34.911,34.911,0,0,1-7.2,12.927,1.036,1.036,0,0,0,1.535,1.392,36.933,36.933,0,0,0,7.64-13.683,54.532,54.532,0,0,0,2.6-15.573,2.35,2.35,0,0,0-.739-1.7,2.444,2.444,0,0,0-1.7-.681h-.035c-5.5,0-10.348-2.732-13.445-5.025a1.036,1.036,0,1,0-1.235,1.664Z" transform="translate(-84.398 -58)" fill="none" stroke="#000" stroke-width="1.5"></path><path id="Path_7086" data-name="Path 7086" d="M332.5,267.033A16.533,16.533,0,0,1,349.033,250.5h0A16.533,16.533,0,1,1,332.5,267.033Zm17.567-14.085A1.016,1.016,0,0,0,350,252.6c-.322-.021-.645-.037-.969-.037h0c-.325,0-.647.015-.967.037a1.016,1.016,0,0,0-.064.346v2.817a1.033,1.033,0,0,0,2.067,0Zm13.051,15.116a1.011,1.011,0,0,0,.346-.064c.022-.32.037-.644.037-.97s-.014-.647-.035-.97a1.025,1.025,0,0,0-.347-.064H360.3a1.033,1.033,0,1,0,0,2.067Zm-6.85,7.663,1.995,1.993a1.043,1.043,0,0,0,.283.2,14.66,14.66,0,0,0,1.375-1.377,1.034,1.034,0,0,0-.2-.283l-1.992-1.992a1.033,1.033,0,0,0-1.462,1.461Zm0-15.935a1.032,1.032,0,0,0,1.461,0l1.992-1.989a1.042,1.042,0,0,0,.2-.29c-.213-.242-.431-.481-.661-.709s-.472-.448-.709-.66a1.027,1.027,0,0,0-.291.2l-1.992,1.991a1.034,1.034,0,0,0,0,1.462Zm-1.559,1.408a1.032,1.032,0,0,0-1.458-.1l-4.5,3.933-10.038-9.176a1.034,1.034,0,0,0-1.395,1.526l10.723,9.8a1.036,1.036,0,0,0,1.377.017l5.2-4.538a1.034,1.034,0,0,0,.1-1.458ZM348,281.115a1.022,1.022,0,0,0,.064.346c.321.021.644.037.97.037s.648-.015.97-.037a1.028,1.028,0,0,0,.064-.346V278.3a1.033,1.033,0,1,0-2.067,0Zm-8.471-3.2a1.071,1.071,0,0,0,.282-.2l1.993-1.991a1.034,1.034,0,1,0-1.461-1.463l-2,1.992a1.036,1.036,0,0,0-.2.284A14.665,14.665,0,0,0,339.527,277.918Zm-.722-10.886A1.033,1.033,0,0,0,337.772,266h-2.818a1.024,1.024,0,0,0-.347.064c-.02.321-.035.645-.035.97s.015.648.036.968a1.026,1.026,0,0,0,.346.065h2.813a1.033,1.033,0,0,0,1.033-1.033Z" transform="translate(-332.5 -227.767)" fill="none" stroke="#000" stroke-width="1.5"></path></g></g></svg> 