<?xml version="1.0" encoding="UTF-8"?> <svg xmlns="http://www.w3.org/2000/svg" width="58.248" height="63.376" viewBox="0 0 58.248 63.376"><g id="Group_3559" data-name="Group 3559" transform="translate(-1244.752 -2077.624)"><circle id="Ellipse_110" data-name="Ellipse 110" cx="27" cy="27" r="27" transform="translate(1249 2087)" fill="#fed300"></circle><g id="Performance_evaluator-01" data-name="Performance evaluator-01" transform="translate(1129.502 2015.827)"><path id="Path_7572" data-name="Path 7572" d="M259.355,225.106a.759.759,0,0,0,.758-.758v-6.962a.758.758,0,0,0-1.473,0v6.985a.758.758,0,0,0,.713.736Z" transform="translate(-130.962 -141.574)"></path><path id="Path_7573" data-name="Path 7573" d="M327.255,225.106a.759.759,0,0,0,.758-.758v-6.962a.758.758,0,0,0-1.473,0v6.985a.758.758,0,0,0,.713.736Z" transform="translate(-192.978 -141.574)"></path><path id="Path_7574" data-name="Path 7574" d="M293.305,252.195a.759.759,0,0,0,.758-.758v-4.392a.758.758,0,0,0-1.473,0v4.414a.758.758,0,0,0,.713.736Z" transform="translate(-161.97 -168.664)"></path><path id="Path_7575" data-name="Path 7575" d="M359.4,248.4a.759.759,0,0,0,.758-.758v-4.392a.758.758,0,1,0-1.473,0v4.414a.758.758,0,0,0,.713.736Z" transform="translate(-222.313 -164.87)"></path><path id="Path_7576" data-name="Path 7576" d="M217.347,327.565h15.531a.758.758,0,1,0,0-1.464H217.347a.758.758,0,1,0,0,1.464Z" transform="translate(-92.374 -241.372)"></path><path id="Path_7577" data-name="Path 7577" d="M217.542,384.825h15.531a.758.758,0,0,0,0-1.473H217.542a.758.758,0,1,0,0,1.473Z" transform="translate(-92.569 -293.665)"></path><path id="Path_7578" data-name="Path 7578" d="M219.2,441.875a.758.758,0,0,0,.758.758h15.486a.758.758,0,0,0,0-1.473H219.913a.758.758,0,0,0-.713.713Z" transform="translate(-94.941 -346.483)"></path><path id="Path_7579" data-name="Path 7579" d="M233.073,497.911H217.542a.758.758,0,1,0,0,1.473h15.531a.758.758,0,0,0,0-1.473Z" transform="translate(-92.569 -398.296)"></path><path id="Path_7580" data-name="Path 7580" d="M236.836,555.231H221.305a.757.757,0,0,0,0,1.473h15.531a.758.758,0,1,0,0-1.473Z" transform="translate(-96.333 -450.648)"></path><path id="Path_7581" data-name="Path 7581" d="M476.63,393.228a2.927,2.927,0,1,0,.857-2.063A2.927,2.927,0,0,0,476.63,393.228Zm4.366,0a1.456,1.456,0,1,1-.426-1.022A1.456,1.456,0,0,1,481,393.228Z" transform="translate(-330.059 -300.038)"></path><path id="Path_7582" data-name="Path 7582" d="M158.848,92.684c-.159-.167-3.846-3.982-8.623-4.353V71.275a3.632,3.632,0,0,0-3.623-3.632H142.71v-.758a1.733,1.733,0,0,0-1.812-1.616h-3.929a.588.588,0,0,1-.372-.121,2.913,2.913,0,0,0-.152-.979,3.66,3.66,0,0,0-3-2.312,4.345,4.345,0,0,0-3.458.917,3.038,3.038,0,0,0-1.115,2.313.094.094,0,0,1-.038.076.4.4,0,0,1-.3.106h-3.956a1.729,1.729,0,0,0-1.843,1.616v.758h-3.871a3.634,3.634,0,0,0-3.625,3.632V106.71a3.632,3.632,0,0,0,3.625,3.625H146.6a3.625,3.625,0,0,0,3.623-3.625V98.054c4.778-.364,8.463-4.186,8.623-4.353h0A.757.757,0,0,0,158.848,92.684Zm-34.26-25.944h3.958a1.88,1.88,0,0,0,1.343-.538,1.512,1.512,0,0,0,.439-1.127,1.575,1.575,0,0,1,.6-1.191,2.881,2.881,0,0,1,2.275-.576,2.217,2.217,0,0,1,1.82,1.319,1.525,1.525,0,0,1,.075.478,1.519,1.519,0,0,0,.433,1.062,1.947,1.947,0,0,0,1.41.569h3.929a.387.387,0,0,1,.347.144v3a.406.406,0,0,1-.347.144H124.589c-.22,0-.341-.107-.347-.144V66.885A.5.5,0,0,1,124.589,66.741Zm24.166,39.97a2.155,2.155,0,0,1-2.152,2.157H118.875a2.155,2.155,0,0,1-2.154-2.157V71.275a2.162,2.162,0,0,1,2.154-2.162h3.868v.762a1.733,1.733,0,0,0,1.82,1.616H140.9a1.728,1.728,0,0,0,1.812-1.616v-.758H146.6a2.162,2.162,0,0,1,2.154,2.162V88.353c-4.778.364-8.463,4.186-8.623,4.353a.759.759,0,0,0,0,1.016c.159.166,3.845,3.987,8.623,4.36Zm.758-10.094c-3.5,0-6.56-2.366-7.759-3.428,1.2-1.062,4.247-3.428,7.759-3.428s6.537,2.376,7.735,3.429c-1.2,1.062-4.247,3.427-7.759,3.427Z" transform="translate(0 0)"></path></g></g></svg> 