<?xml version="1.0" encoding="UTF-8"?> <svg xmlns="http://www.w3.org/2000/svg" width="56" height="56" viewBox="0 0 56 56"><g id="Group_233" data-name="Group 233" transform="translate(-1785.333 -4678.334)"><path id="Rectangle_118" data-name="Rectangle 118" d="M28,0h0A28,28,0,0,1,56,28V49.28A6.72,6.72,0,0,1,49.28,56H6.72A6.72,6.72,0,0,1,0,49.28V28A28,28,0,0,1,28,0Z" transform="translate(1785.333 4678.333)" fill="#222"></path><g id="Group_150" data-name="Group 150" transform="translate(1801.634 4686.304)"><path id="Path_510" data-name="Path 510" d="M250.191-74.75l-11.131,28.3,16.129-7.876-10.852.549,9.449-12.785Z" transform="translate(-239.06 74.75)" fill="#f4d12e"></path><path id="Path_511" data-name="Path 511" d="M304.478-22.69,300.2-17.014,312.726-3.9Z" transform="translate(-289.256 32.008)" fill="#f4d12e"></path><path id="Path_512" data-name="Path 512" d="M282.458-70.37l-6.438,11.8,4.516-16.177Z" transform="translate(-269.404 74.75)" fill="#fce67c"></path><path id="Path_513" data-name="Path 513" d="M277.989-46.473,268.54-33.688l1.339-4.8,6.438-11.8Z" transform="translate(-263.263 54.66)" fill="#f4d12e"></path><path id="Path_514" data-name="Path 514" d="M250.191-74.75l-4.516,16.177-3.954,7.244-2.662,4.878Z" transform="translate(-239.06 74.75)" fill="#ffee93"></path><path id="Path_515" data-name="Path 515" d="M255.189,39.35,239.06,47.226l2.662-4.878,13.467-3" transform="translate(-239.06 -18.927)" fill="#f4d12e"></path><path id="Path_516" data-name="Path 516" d="M305.385,1.682,300.2-3.747l2.1-2.783,2.76,4.208Z" transform="translate(-289.256 18.741)" fill="#f6e039"></path><path id="Path_517" data-name="Path 517" d="M314.68-15.589,311.92-19.8l2.18-2.892Z" transform="translate(-298.879 32.008)" fill="#ffee93"></path><path id="Path_518" data-name="Path 518" d="M332.348-3.9,324.68-15.589l-.58-7.1Z" transform="translate(-308.879 32.008)" fill="#fce67c"></path><path id="Path_519" data-name="Path 519" d="M335.008,28.672l-7.34-7.688-.328-4Z" transform="translate(-311.539 -0.561)" fill="#f4d12e"></path><path id="Path_520" data-name="Path 520" d="M267.4,19.876l-13.467,3,3.954-7.244-1.339,4.8Z" transform="translate(-251.268 0.547)" fill="#f6e039"></path><path id="Path_521" data-name="Path 521" d="M329.17,39.35" transform="translate(-313.041 -18.927)" fill="none"></path></g><text id="To_Top" data-name="To Top" transform="translate(1802.333 4725.333)" fill="#fff" font-size="7" font-family="Poppins-Regular, Poppins"><tspan x="0" y="0">To Top</tspan></text></g></svg> 