<?xml version="1.0" encoding="UTF-8"?> <svg xmlns="http://www.w3.org/2000/svg" width="82.117" height="77.32" viewBox="0 0 82.117 77.32"><g id="Group_4166" data-name="Group 4166" transform="translate(-830.883 -1653.68)"><g id="Group_3293" data-name="Group 3293" transform="translate(842.973 1660.973)"><circle id="Ellipse_108" data-name="Ellipse 108" cx="35" cy="35" r="35" transform="translate(0.027 0.027)" fill="#fed300"></circle></g><g id="Unlimited_Capacity" data-name="Unlimited Capacity" transform="translate(831.633 1654.43)"><path id="Path_7087" data-name="Path 7087" d="M341.9,173.12h-3.631a.775.775,0,0,1-.761-.761v-4.567a.775.775,0,0,1,.761-.761H341.9a.775.775,0,0,1,.761.761v4.568A.775.775,0,0,1,341.9,173.12Z" transform="translate(-314.79 -157.368)" fill="none" stroke="#000" stroke-width="1"></path><path id="Path_7088" data-name="Path 7088" d="M100.915,87.746l11.711-11.711a4.832,4.832,0,0,1,3.4-1.405h31.5a4.723,4.723,0,0,1,4.743,4.744v46.083a4.723,4.723,0,0,1-4.743,4.743H104.253a4.723,4.723,0,0,1-4.743-4.743V91.143A4.832,4.832,0,0,1,100.915,87.746Zm36.949,3.923V83a1.825,1.825,0,0,0-1.815-1.815h-15.4A1.825,1.825,0,0,0,118.833,83V91.67a1.825,1.825,0,0,0,1.815,1.82h15.4a1.825,1.825,0,0,0,1.815-1.815Z" transform="translate(-99.51 -74.63)" fill="none" stroke="#000" stroke-width="1.5"></path><path id="Path_7089" data-name="Path 7089" d="M219.776,366.273s1.882-1.887,3.77-3.771a6.291,6.291,0,0,1,8.9,0h0a6.3,6.3,0,0,1,0,8.9h0a6.291,6.291,0,0,1-8.9,0l-1.2-1.193a.964.964,0,0,1,1.359-1.365c.388.386.792.792,1.2,1.2a4.365,4.365,0,0,0,6.169,0h0a4.361,4.361,0,0,0,0-6.169h0a4.362,4.362,0,0,0-6.169,0l-3.771,3.77a.964.964,0,0,1-1.359-1.359Z" transform="translate(-194.078 -330.75)" fill-rule="evenodd"></path><path id="Path_7090" data-name="Path 7090" d="M352.664,364.992c-.387-.386-.792-.792-1.2-1.2a4.365,4.365,0,0,0-6.169,0h0a4.361,4.361,0,0,0,0,6.169h0a4.365,4.365,0,0,0,6.169,0l3.771-3.771a.964.964,0,1,1,1.359,1.359l-3.771,3.771a6.291,6.291,0,0,1-8.9,0h0a6.3,6.3,0,0,1,0-8.9h0a6.29,6.29,0,0,1,8.9,0c.406.4.811.809,1.2,1.2a.965.965,0,1,1-1.365,1.359Z" transform="translate(-329.54 -330.679)" fill-rule="evenodd"></path></g></g></svg> 