<svg xmlns="http://www.w3.org/2000/svg" width="657.08" height="400" viewBox="0 0 657.08 400"><g id="Our_clients_reviews_are" data-name="Our clients reviews are" transform="translate(-30.033 -40)"><path id="Path_53145" data-name="Path 53145" d="M175.094,321.229h-56.81a55.754,55.754,0,0,0-55.59,55.59h0a55.754,55.754,0,0,0,55.59,55.592H598.649c49.51,0,90.019-40.509,90.019-90.017h0c0-49.51-40.509-90.017-90.018-90.018h0a38.173,38.173,0,0,1-38.061-38.062h0a38.174,38.174,0,0,1,38.062-38.061h45.808a39.688,39.688,0,0,0,39.571-39.571h0A39.687,39.687,0,0,0,644.458,97.11H586.533a15.451,15.451,0,0,1-15.4-15.407h0a15.451,15.451,0,0,1,15.4-15.406h10.21a10.663,10.663,0,0,0,10.631-10.632h0a10.663,10.663,0,0,0-10.631-10.632h-67c-14.111,0-15.684,16.67-51.328,16.67H395.763A13.915,13.915,0,0,0,381.89,75.577h0A13.914,13.914,0,0,0,395.763,89.45h13.324a20.162,20.162,0,0,1,20.1,20.1h0a20.161,20.161,0,0,1-20.1,20.1h-40.1c-54.148,0-61.8,14.15-71.279,42.294s-58.735,30.412-58.735,30.412H171.626a30.384,30.384,0,0,0-30.294,30.294h0a30.383,30.383,0,0,0,30.294,30.294h3.468a29.224,29.224,0,0,1,29.139,29.138h0a29.224,29.224,0,0,1-29.139,29.138ZM626.581,66.3a10.632,10.632,0,1,1,10.632-10.632A10.633,10.633,0,0,1,626.581,66.3Z" transform="translate(-1.555 -0.24)" fill="#e1e8f6" fill-rule="evenodd"></path><path id="Path_53146" data-name="Path 53146" d="M487.688,403.684q-.8-10.939-.752-21.238.041-10.464.915-20.182c2.161-24.238,8.048-45.148,16.823-63.01a142.891,142.891,0,0,1,37.569-47.63,162.592,162.592,0,0,1,47.348-26.832,213.264,213.264,0,0,1,58.287-12.262c6.767-.5,13.592-.707,20.433-.644,6.923.062,13.834.406,20.691,1.017v0a2.834,2.834,0,0,1,2.573,3.061l-.029.2c-.277,2.672-6.443,59.931-34.341,111.67-28.219,52.333-78.577,99.038-167.334,78.469a2.826,2.826,0,0,1-2.182-2.61Zm200.768-186.3a298.636,298.636,0,0,0-36.121,17.654c7.467,1.331,24.4,4.472,32,6.9,2.519-12.16,3.706-21.062,4.121-24.556Zm-4.684,27.219-.032-.01c-8.782-2.864-31.677-6.858-35.09-7.447-9.526,5.514-20.255,12.262-31.655,20.35l59.413,15.626c3.167-10.451,5.568-20.165,7.364-28.518Zm-8.158,31.107-61.478-16.169a410,410,0,0,0-32.981,26.513c12.191,3.715,70.479,21.584,80.353,26.575a304.087,304.087,0,0,0,14.106-36.92Zm-15.25,39.364c-9.936-5.087-74.277-24.7-81.554-26.909-8.986,8.154-18.027,17.1-26.911,26.884l91.565,29.23a1.353,1.353,0,0,1,.318.15c3.938-5.854,7.545-11.886,10.84-18q3.044-5.646,5.743-11.357Zm-18.152,31.651-92.306-29.466C543,324.989,536.192,333.228,529.594,342c14.916,5.043,91.336,28.82,91.567,28.892a1.328,1.328,0,0,1,.545.324,168.8,168.8,0,0,0,20.506-24.488ZM619.6,373.235c-8.1-2.52-79.618-24.8-91.707-28.958q-8.48,11.453-16.419,24.109c18.052,8.916,78.747,24.67,78.926,24.717a1.349,1.349,0,0,1,.829.625,131.535,131.535,0,0,0,28.37-20.492Zm-31.456,22.078c-9.729-2.56-61.65-16.4-78.1-24.617q-5.043,8.211-9.786,16.938c6.928,2.735,37.978,14.65,58.034,16.7a1.357,1.357,0,0,1,1.17.979,122.047,122.047,0,0,0,28.683-10Zm-34.614,11.13c-20.54-3.207-48.649-14.07-54.562-16.412q-3.577,6.713-6.947,13.73c23.067,5.17,43.471,5.688,61.509,2.682Zm-63.093-5.633q3.124-6.424,6.426-12.591c-2.769-7.685-4.824-20.994-5.827-28.458q-.14,1.37-.264,2.756-.857,9.6-.9,19.93-.034,8.867.569,18.364Zm1.428-48.023a1.354,1.354,0,0,1,1.177,1.193c.007.062,2.161,19.6,5.592,30.968q4.579-8.353,9.446-16.23a264.823,264.823,0,0,1-8.952-48.011,181.849,181.849,0,0,0-7.263,32.081Zm8.81-36.582a1.352,1.352,0,0,1,.909,1.183,259.7,259.7,0,0,0,8.43,48.23q7.666-12.157,15.886-23.19c-1.594-4.71-10.84-32.777-12.131-53.635q-3.45,5.634-6.46,11.75a153.674,153.674,0,0,0-6.632,15.664Zm15.07-30.549a1.354,1.354,0,0,1,.635,1.1c.722,18.872,8.856,45,11.494,53.035,6.51-8.615,13.215-16.718,20.023-24.328-12.166-25.779-14-46.777-14.271-52a138.868,138.868,0,0,0-17.881,22.2Zm20.149-24.44a1.353,1.353,0,0,1,.392.927c0,.067.252,22.387,13.577,51.135,8.91-9.811,17.977-18.789,26.992-26.974-5.459-12.289-10.731-42.892-11.436-47.078a150.476,150.476,0,0,0-21.313,14.661q-4.233,3.5-8.212,7.33Zm31.96-23.349a1.375,1.375,0,0,1,.153.442c.016.1,5.386,32.7,10.972,46.081A412.776,412.776,0,0,1,612.371,257.5c-3.951-15.752-3.857-32.832-3.814-35.586q-9.148,2.393-17.954,5.637a170.978,170.978,0,0,0-22.75,10.318Zm43.378-16.636a1.353,1.353,0,0,1,.039.358c0,.053-.469,17.7,3.469,34.208,11.6-8.269,22.53-15.161,32.235-20.793a98.037,98.037,0,0,1-.383-19.43,220.554,220.554,0,0,0-35.361,5.657Zm38.08-5.858a1.305,1.305,0,0,1,0,.211,96.569,96.569,0,0,0,.207,17.956,317.7,317.7,0,0,1,36.2-17.972q-8.671-.67-17.428-.753Q658.839,214.729,649.311,215.373Z" transform="translate(-21.757 -8.184)" fill="#9fb2d9" fill-rule="evenodd"></path><g id="Group_59899" data-name="Group 59899" transform="translate(247.687 210.213)"><path id="Path_53147" data-name="Path 53147" d="M300.769,288.415c-2.521-5.51-7.716-14.077-18.081-23.162-17.59-15.416-29.711-34.657-21.486-44.4,7.925-9.39,32.85,12.478,48.986,62.508L300.8,288.4Z" transform="translate(-258.569 -218.724)" fill="#8f9dd0" fill-rule="evenodd"></path><path id="Path_53148" data-name="Path 53148" d="M265.633,226.1a.794.794,0,0,1,.876-1.324,56.74,56.74,0,0,1,5.554,4.327l-1.77-4.2a.528.528,0,1,1,.974-.41l2.63,6.241c1.536,1.4,3.244,3.061,5.066,4.987l-1.252-5.343a.53.53,0,1,1,1.031-.242l1.678,7.158c1.86,2.048,3.812,4.355,5.8,6.938l-.914-4.676a.529.529,0,0,1,1.037-.206l1.336,6.829c2.03,2.764,4.076,5.81,6.072,9.15l-.379-4.556a.528.528,0,1,1,1.051-.09l.564,6.77c1.824,3.2,3.593,6.654,5.257,10.366l.375-2.683a.529.529,0,1,1,1.049.148l-.614,4.383c1.229,2.865,2.393,5.874,3.469,9.038l.48-2.666a.529.529,0,0,1,1.042.188l-.827,4.585q.754,2.357,1.441,4.82l-1.435.77q-.68-2.471-1.431-4.831c-1.141-.645-3.914-2.134-5.4-2.275a.529.529,0,1,1,.1-1.054,16.484,16.484,0,0,1,4.822,1.867q-.611-1.84-1.259-3.617a22.486,22.486,0,0,0-6.588-1.88.53.53,0,0,1,.068-1.057,21.49,21.49,0,0,1,6.019,1.582q-1.371-3.621-2.88-6.948c-1.873-.354-7.843-1.414-10.659-1.1a.529.529,0,1,1-.118-1.05c2.644-.293,7.812.543,10.24.98q-1.637-3.53-3.386-6.735c-1.844-.4-7.915-1.579-12.714-1.139a.529.529,0,0,1-.1-1.054,47.409,47.409,0,0,1,12.144.979q-.876-1.57-1.768-3.056a51.326,51.326,0,0,0-15.257-1.746.529.529,0,0,1-.054-1.057,52.38,52.38,0,0,1,14.522,1.5,113.191,113.191,0,0,0-6.625-9.6c-2.375-.056-11.623-.21-16.27.643a.529.529,0,0,1-.191-1.04c4.3-.791,12.353-.739,15.623-.68-1.665-2.109-3.3-4.019-4.866-5.739-2.281.17-10.707.8-12.744,1.079a.528.528,0,0,1-.144-1.047c1.866-.252,8.929-.8,11.972-1.025-2.071-2.218-4.006-4.094-5.708-5.636-2.142.3-7.3,1.019-8.573,1.287a.529.529,0,1,1-.217-1.035c1.131-.238,5.3-.831,7.753-1.174A57.506,57.506,0,0,0,265.633,226.1Z" transform="translate(-258.798 -218.983)" fill="#d2dbf0" fill-rule="evenodd"></path></g><g id="Group_59900" data-name="Group 59900" transform="translate(195.524 222.016)"><path id="Path_53149" data-name="Path 53149" d="M322.806,345.516c-7.43-8.877-22.616-23.381-50.3-36.643-43.793-20.979-78.288-50.981-66.3-71.756,11.767-20.389,75.953,10.876,135.012,98.49A110.806,110.806,0,0,1,322.806,345.516Z" transform="translate(-203.799 -231.117)" fill="#d2dbf0" fill-rule="evenodd"></path><path id="Path_53150" data-name="Path 53150" d="M330.539,336.617a25.5,25.5,0,0,0-8.075,1.882.529.529,0,1,1-.393-.982,27.6,27.6,0,0,1,7.744-1.909q-1.557-2.157-3.109-4.248c-1.835.129-7.751.564-9.956.892a.53.53,0,0,1-.157-1.048c2.025-.3,7.042-.685,9.368-.854q-2.911-3.9-5.8-7.567a122.851,122.851,0,0,0-13.25,2.256.53.53,0,0,1-.239-1.032,124.348,124.348,0,0,1,12.726-2.2q-2.919-3.69-5.8-7.15a175.276,175.276,0,0,0-18.925,3.215.529.529,0,1,1-.239-1.031,176.763,176.763,0,0,1,18.347-3.158q-3.8-4.53-7.537-8.68c-2.551.128-13.1.84-20.773,4.114a.53.53,0,0,1-.419-.974c7.146-3.05,16.706-3.92,20.292-4.148q-4.6-5.073-9.074-9.6c-3.445.518-17.284,2.876-23.376,8.1a.529.529,0,1,1-.686-.806c5.91-5.07,18.678-7.5,23.135-8.225q-4.753-4.77-9.348-8.967a110.072,110.072,0,0,0-22.291,10.29.529.529,0,0,1-.562-.9A111.074,111.074,0,0,1,284.1,283.685q-2.719-2.466-5.373-4.739a119.094,119.094,0,0,0-25.482,11.913.529.529,0,1,1-.549-.9,122.876,122.876,0,0,1,25.074-11.815q-6.3-5.341-12.183-9.667c-2.967,1.3-17.975,7.991-25.643,13.936a.528.528,0,1,1-.647-.835c7.364-5.709,21.32-12.062,25.3-13.822q-3.421-2.5-6.678-4.678a155.788,155.788,0,0,0-24.526,13.859.529.529,0,0,1-.614-.861,156.449,156.449,0,0,1,24.1-13.689c-5.074-3.356-9.819-6.154-14.17-8.481-2.535.853-13.966,4.876-22.279,10.794a.528.528,0,1,1-.613-.86c7.642-5.441,17.851-9.294,21.609-10.611-1.8-.94-3.522-1.8-5.174-2.579a81.753,81.753,0,0,0-19.463,6.936.53.53,0,0,1-.472-.949,86.318,86.318,0,0,1,18.352-6.728c-13.3-6.11-21.315-7.231-21.381-7.241a.794.794,0,0,1,.243-1.569,60.776,60.776,0,0,1,9.8,2.59,47.533,47.533,0,0,0-5.077-4.872.528.528,0,0,1,.466-.949c1.006.493,5.314,5.014,6.79,6.581,2.535.913,5.427,2.06,8.649,3.5l-6.168-9.854a.528.528,0,1,1,.894-.561l7.019,11.213q3.32,1.546,7.045,3.513l-6.754-11.734a.529.529,0,0,1,.915-.53l7.607,13.217c3.717,2.03,7.7,4.384,11.914,7.132L250.586,248.1a.529.529,0,1,1,.948-.471l6.851,13.879q2.891,1.929,5.912,4.094l-5.189-11.061a.529.529,0,1,1,.957-.452l6.006,12.8q5.61,4.12,11.619,9.132l-4.148-10.887a.529.529,0,0,1,.989-.377l4.828,12.67q2.38,2.031,4.816,4.218l-2.536-8.372a.528.528,0,0,1,1.011-.306l3.045,10.05q4.53,4.127,9.221,8.8l-2.51-9.363a.529.529,0,0,1,1.022-.272l2.983,11.13q4.109,4.16,8.323,8.774l-1.846-8.353a.53.53,0,0,1,1.034-.23l2.246,10.165q3.677,4.083,7.42,8.519l-.767-7.622a.53.53,0,1,1,1.053-.11l.921,9.169q2.707,3.247,5.442,6.692l.21-6.579a.529.529,0,1,1,1.058.033l-.251,7.834q2.517,3.2,5.054,6.567l.373-4.275a.53.53,0,0,1,1.055.092l-.476,5.452q1.894,2.537,3.8,5.175l1.421-3.612a.528.528,0,0,1,.983.388l-1.67,4.244q1.553,2.16,3.11,4.387-.7.4-1.39.787Q332.024,338.686,330.539,336.617Z" transform="translate(-204.218 -231.411)" fill="#fff" fill-rule="evenodd"></path></g><g id="Group_59901" data-name="Group 59901" transform="translate(158.339 290.769)"><path id="Path_53151" data-name="Path 53151" d="M328.882,450.092a200.136,200.136,0,0,0-.583-25.39c-3.632-40.748-20.279-69.822-43.869-89.291-23.559-19.444-54.03-29.275-85.36-31.57a206.234,206.234,0,0,0-33.306.3,1.1,1.1,0,0,0-1.006,1.2c0,.031.008.064.012.094.244,2.365,11.262,107.137,77.751,144.659Z" transform="translate(-164.755 -303.308)" fill="#d2dbf0" fill-rule="evenodd"></path><path id="Path_53152" data-name="Path 53152" d="M172.043,310a1.026,1.026,0,1,0-.729,1.918c.1.037,11.285,4.19,28,13.625-5.725,1.02-18.79,3.445-24.463,5.3a1.027,1.027,0,1,0,.635,1.953c6.664-2.173,24.035-5.2,26.624-5.65,7.229,4.183,15.37,9.3,24.02,15.44l-45.1,11.864a1.026,1.026,0,0,0,.524,1.985l46.75-12.3a310.779,310.779,0,0,1,25.024,20.117c-9.279,2.828-53.757,16.464-61.043,20.2a1.024,1.024,0,0,0,.933,1.823c7.512-3.853,56.367-18.743,61.89-20.422,6.818,6.187,13.678,12.976,20.419,20.4l-69.476,22.179a1.029,1.029,0,1,0,.626,1.96l70.363-22.461c5.243,5.863,10.4,12.114,15.412,18.77-11.318,3.827-69.3,21.868-69.479,21.922a1.025,1.025,0,1,0,.61,1.958c.179-.056,60.449-18.807,70.159-22.152q6.434,8.69,12.459,18.293c-13.7,6.766-59.751,18.719-59.888,18.755a1.028,1.028,0,1,0,.515,1.99c.137-.036,46.684-12.116,60.458-18.992q3.827,6.23,7.427,12.852c-3.472,1.37-14.932,5.781-26.7,9.066h7.2c9.56-2.993,17.867-6.214,20.476-7.248q1.9,3.566,3.725,7.248h2.293q-2.156-4.393-4.42-8.623c3.03-8.41,4.934-25.7,4.94-25.751a1.027,1.027,0,1,0-2.041-.227c-.006.046-1.64,14.875-4.244,23.5q-3.474-6.339-7.168-12.316a199.015,199.015,0,0,0,6.975-38.8,1.026,1.026,0,1,0-2.046-.148,197.11,197.11,0,0,1-6.4,36.6q-5.819-9.226-12.053-17.6c1.247-3.687,8.669-26.218,9.278-42.163a1.029,1.029,0,0,0-2.057-.083c-.548,14.321-6.72,34.149-8.721,40.242-4.94-6.536-10.028-12.684-15.193-18.459,10.665-22.6,10.866-40.361,10.867-40.412a1.028,1.028,0,0,0-2.056-.042c0,.049-.191,16.987-10.3,38.8-6.761-7.445-13.641-14.255-20.481-20.466,4.443-10,8.725-36.01,8.737-36.088a1.025,1.025,0,1,0-2.024-.33c-.012.074-4.087,24.812-8.326,34.963a313.621,313.621,0,0,0-25.337-20.4c3.267-13.027,2.89-27.252,2.889-27.3a1.027,1.027,0,0,0-2.053.049,115.106,115.106,0,0,1-2.632,25.956c-8.8-6.273-17.1-11.5-24.46-15.777a74.571,74.571,0,0,0,.275-14.922,1.027,1.027,0,0,0-2.045.188,73.2,73.2,0,0,1-.156,13.625C183.948,314.419,172.143,310.04,172.043,310Z" transform="translate(-165.035 -303.611)" fill="#fff" fill-rule="evenodd"></path></g><g id="Group_59905" data-name="Group 59905" transform="translate(267.711 97.295)"><path id="Path_53153" data-name="Path 53153" d="M352.91,267.934a156.228,156.228,0,0,1-47.794-51.983c-20.2-36.014,40.31,1.519,84.166,43.569l-28.569,8.414Z" transform="translate(-280.619 -104.985)" fill="#0e2d34" fill-rule="evenodd"></path><g id="Group_59902" data-name="Group 59902" transform="translate(0 192.273)"><path id="Path_53154" data-name="Path 53154" d="M293.5,356.674c9.388,12.634,35.076,39.02,59.641,66.642l29.1,17.558,9.4-18.046c-15.8-38.894-38.767-79.9-61.05-102.632C291.509,280.316,260.554,312.336,293.5,356.674Z" transform="translate(-279.595 -302.046)" fill="#1b7154" fill-rule="evenodd"></path><path id="Path_53155" data-name="Path 53155" d="M383.479,440.771c-26.013-63.531-85.843-121.638-86.06-121.85a.993.993,0,0,0-1.476.075,1.186,1.186,0,0,0,.07,1.588c.215.21,59.085,57.39,85.1,119.936l1.9,1.144Z" transform="translate(-280.36 -302.836)" fill="#0e2d34" fill-rule="evenodd"></path></g><path id="Path_53156" data-name="Path 53156" d="M340.884,454.247A178.736,178.736,0,0,1,286.2,394.77c-23.111-41.207,46.122,1.737,96.3,49.85l-32.688,9.628Z" transform="translate(-279.691 -113.4)" fill="#0e2d34" fill-rule="evenodd"></path><g id="Group_59903" data-name="Group 59903" transform="translate(17.774 0)"><path id="Path_53157" data-name="Path 53157" d="M354.342,137.073c5.81,15.411,14.63,51.694,25.04,89.217a70.167,70.167,0,0,1-26.943,37.6c-23.29-35.259-43.791-75.861-51.319-107.88C286.387,93.336,332.224,78.4,354.342,137.073Z" transform="translate(-298.257 -100.16)" fill="#a6c86b" fill-rule="evenodd"></path><path id="Path_53158" data-name="Path 53158" d="M366.887,252.369c-32.816-59.53-48.076-131.838-48.14-132.138a1.259,1.259,0,0,1,.872-1.5,1.164,1.164,0,0,1,1.4.939c.065.3,15.152,71.769,47.458,130.729Q367.7,251.4,366.887,252.369Z" transform="translate(-299.231 -101.042)" fill="#5f9850" fill-rule="evenodd"></path></g><g id="Group_59904" data-name="Group 59904" transform="translate(36.326 285.304)"><path id="Path_53159" data-name="Path 53159" d="M375.6,448.352a114.117,114.117,0,0,0-11.726-28.3c-13.33-22.211-36.014-23.35-41.141-16.9-3.683,4.637-8.619,23.773-.941,46.149h43.386A57.686,57.686,0,0,0,375.6,448.352Z" transform="translate(-317.737 -399.729)" fill="#a6c86b" fill-rule="evenodd"></path><path id="Path_53160" data-name="Path 53160" d="M363.365,449.562q-1.3-2.249-2.7-4.533c.216-4.036.715-15.391-.154-21.544-.062-.44-.354-.723-.651-.632a.868.868,0,0,0-.427.965c.751,5.323.44,14.788.211,19.58a159.321,159.321,0,0,0-13.256-18.091,107.365,107.365,0,0,0-2.013-19.561c-.1-.429-.408-.661-.7-.52a.942.942,0,0,0-.351,1.031,103.035,103.035,0,0,1,1.929,17.737,130.381,130.381,0,0,0-19.6-18.41c-.544-.409-1.207-.089-1.484.715a2.065,2.065,0,0,0,.483,2.2,122.493,122.493,0,0,1,10.167,8.615A24.944,24.944,0,0,0,326,420.126a.981.981,0,0,0-.307,1.06c.112.418.433.622.715.453a24.777,24.777,0,0,1,9.918-3.081,140.742,140.742,0,0,1,13.284,14.984,69.914,69.914,0,0,0-21.9,10.491,1.026,1.026,0,0,0-.246,1.092c.136.4.466.565.738.364a69.086,69.086,0,0,1,22.455-10.57,164.7,164.7,0,0,1,9.8,14.643Z" transform="translate(-318.038 -399.989)" fill="#5f9850" fill-rule="evenodd"></path></g></g><g id="Group_59909" data-name="Group 59909" transform="translate(343.309 76.692)"><path id="Path_53161" data-name="Path 53161" d="M615.179,221.267c-13.869,2.084-37.955,4.974-40.938,3.936-4.05-1.41-26.871-25.09-28.848-31.224,0,0-.19-.681.621-.8s3.651.23,4.533-.813,1.522-.2,2.15,1.124,18.852,16.734,23.585,19.8,32.669-9.8,36.334-10.917C629.593,197.193,635.7,218.183,615.179,221.267Z" transform="translate(-367.849 -83.925)" fill="#f18a00" fill-rule="evenodd"></path><path id="Rectangle_1935" data-name="Rectangle 1935" d="M25.89,0H171.371a25.89,25.89,0,0,1,25.89,25.89v303.7a25.891,25.891,0,0,1-25.891,25.891H25.89A25.89,25.89,0,0,1,0,329.591V25.89A25.89,25.89,0,0,1,25.89,0Z" transform="translate(8.11)" fill="#00000f"></path><path id="Rectangle_1936" data-name="Rectangle 1936" d="M25.89,0H171.371a25.89,25.89,0,0,1,25.89,25.89v303.7a25.891,25.891,0,0,1-25.891,25.891H25.889A25.889,25.889,0,0,1,0,329.592V25.89A25.89,25.89,0,0,1,25.89,0Z" fill="#00000f"></path><rect id="Rectangle_1937" data-name="Rectangle 1937" width="189.422" height="347.641" rx="21.774" transform="translate(3.919 3.919)" fill="#101537"></rect><path id="Rectangle_1938" data-name="Rectangle 1938" d="M13.543,0H160.2a13.544,13.544,0,0,1,13.544,13.544V318.42A13.544,13.544,0,0,1,160.2,331.964H13.544A13.544,13.544,0,0,1,0,318.42V13.543A13.543,13.543,0,0,1,13.543,0Z" transform="translate(11.758 11.758)" fill="#fff"></path><path id="Path_53162" data-name="Path 53162" d="M459.771,102.429H415.544a5.681,5.681,0,0,1-5.665-5.665V94.59a5.688,5.688,0,0,0-5.389-3.919L409.88,88.7V86.648h99.783V88.7l5.389,1.968a5.686,5.686,0,0,0-5.389,3.919v2.174A5.682,5.682,0,0,1,504,102.429Z" transform="translate(-361.141 -78.913)" fill="#101537" fill-rule="evenodd"></path><path id="Path_53163" data-name="Path 53163" d="M450.431,94.888a1.555,1.555,0,1,1,0-3.11h28.8a1.555,1.555,0,0,1,0,3.11Zm-5.19-3.11a1.555,1.555,0,1,1,0,3.11h-1.325a1.555,1.555,0,1,1,0-3.11Z" transform="translate(-362.944 -79.157)" fill="#00000f" fill-rule="evenodd"></path><g id="Group_59908" data-name="Group 59908" transform="translate(22.892 17.288)"><g id="Group_59906" data-name="Group 59906" transform="translate(3.321 299.2)"><path id="Path_53164" data-name="Path 53164" d="M533.819,416.311h-10.37a1.824,1.824,0,0,0-1.291.538l0,0a1.821,1.821,0,0,0-.538,1.291v10.6c-.011.3.031.475.376.6.552.24.565.043.746-.3l.018-.035a6.7,6.7,0,0,1,1.7-1.97,2.952,2.952,0,0,1,1.741-.635h.8v.68a1.515,1.515,0,0,0,1.512,1.512h5.665a2.056,2.056,0,0,1,1.2.443,4.785,4.785,0,0,1,1.2,1.376l.027.053c.176.346.314.487.766.292a.475.475,0,0,0,.357-.578c.075-2.561,0-5.311,0-7.877a1.514,1.514,0,0,0-1.512-1.511h-.569v-2.652a1.842,1.842,0,0,0-1.832-1.832Zm-8.913,6.574h-.622a.353.353,0,0,1,0-.706h.622a.353.353,0,1,1,0,.706Zm1.336-.706h5.729a.353.353,0,1,1,0,.706h-5.729a.353.353,0,1,1,0-.706Zm6.118-2.723h.622a.353.353,0,1,1,0,.706h-.622a.353.353,0,1,1,0-.706Zm-1.335.706h-6.741a.353.353,0,0,1,0-.706h6.741a.353.353,0,0,1,0,.706Zm-2.847,6.243h5.641a1.836,1.836,0,0,0,1.832-1.832v-2.6h.569a.331.331,0,0,1,.237.1.345.345,0,0,1,.1.239V428.5a4.7,4.7,0,0,0-.481-.408,3.2,3.2,0,0,0-1.9-.671h-5.665a.34.34,0,0,1-.336-.337v-.68Zm-4.729-8.918h10.37a.658.658,0,0,1,.463.193.648.648,0,0,1,.193.463v6.43a.66.66,0,0,1-.656.657H526.2a4.105,4.105,0,0,0-2.435.864,6.578,6.578,0,0,0-.97.887v-8.837a.655.655,0,0,1,.656-.656Z" transform="translate(-392.931 -411.1)" fill="#c0cdea" fill-rule="evenodd"></path><path id="Path_53165" data-name="Path 53165" d="M483.967,410.839a4.268,4.268,0,0,0-3.019,7.288l.034.032a4.262,4.262,0,0,0,6-.032l0,0a4.269,4.269,0,0,0-3.018-7.286Zm-4.753,15.3v-.411a4.739,4.739,0,0,1,1.367-3.329l.03-.029a4.753,4.753,0,0,1,8.109,3.357v3.439a.251.251,0,0,1-.07.174l0,0a.25.25,0,0,1-.174.07H479.46a.244.244,0,0,1-.174-.071.249.249,0,0,1-.072-.175V426.14Zm-1.175-.019v3.047a1.416,1.416,0,0,0,.417,1l0,0a1.422,1.422,0,0,0,1,.417h9.011a1.425,1.425,0,0,0,1-.417l0,0a1.425,1.425,0,0,0,.417-1v-3.439a5.922,5.922,0,0,0-10.115-4.189l-.033.035a5.911,5.911,0,0,0-1.708,4.153v.392Zm3.74-13.2a3.094,3.094,0,0,1,4.377,4.375l0,0a3.1,3.1,0,0,1-4.348.027l-.028-.03a3.095,3.095,0,0,1,0-4.375Z" transform="translate(-390.856 -410.839)" fill="#c0cdea" fill-rule="evenodd"></path><path id="Path_53166" data-name="Path 53166" d="M436.035,416.83a6.244,6.244,0,0,0-1.067.488,6.182,6.182,0,0,0-.959.685l-1.208-.7-.056-.029a.9.9,0,0,0-1.177.358l-1.1,1.915a.9.9,0,0,0,.328,1.231l1.21.7c-.023.116-.041.236-.058.358a6.026,6.026,0,0,0,0,1.628c.017.122.035.242.058.358l-1.208.7a.9.9,0,0,0-.33,1.231l1.1,1.912a.9.9,0,0,0,1.233.332l1.208-.7a6.174,6.174,0,0,0,2.026,1.171v1.4a.911.911,0,0,0,.9.9h2.21a.9.9,0,0,0,.639-.265l.05-.057a.9.9,0,0,0,.215-.582v-1.4a6.183,6.183,0,0,0,1.067-.488,6.3,6.3,0,0,0,.959-.684l1.209.7.055.028a.9.9,0,0,0,1.177-.357l1.1-1.915a.9.9,0,0,0-.329-1.231l-1.21-.7c.023-.116.041-.236.058-.358a6.03,6.03,0,0,0,0-1.629c-.016-.121-.035-.24-.058-.356l1.21-.7a.9.9,0,0,0,.33-1.231l-1.106-1.912a.9.9,0,0,0-1.232-.332l-1.209.7a6.155,6.155,0,0,0-2.026-1.172v-1.4a.911.911,0,0,0-.9-.9h-2.21a.9.9,0,0,0-.638.266l-.05.055a.9.9,0,0,0-.215.583v1.4Zm-.479,1.5a4.987,4.987,0,0,1,1.179-.49.589.589,0,0,0,.476-.577v-1.557h1.666v1.557a.589.589,0,0,0,.439.567,4.972,4.972,0,0,1,2.253,1.3.584.584,0,0,0,.72.1l1.351-.78.834,1.446-1.317.76a.587.587,0,0,0-.307.682,4.92,4.92,0,0,1,.13.644,5.149,5.149,0,0,1,0,1.326,5.109,5.109,0,0,1-.13.646h0a.586.586,0,0,0,.274.66l1.35.779-.835,1.447-1.351-.78a.587.587,0,0,0-.71.093,4.993,4.993,0,0,1-2.227,1.3.585.585,0,0,0-.476.576v1.557h-1.666v-1.557a.588.588,0,0,0-.438-.567,4.974,4.974,0,0,1-1.217-.5,5.064,5.064,0,0,1-1.037-.8.584.584,0,0,0-.72-.1l-1.35.779-.835-1.446,1.3-.753a.586.586,0,0,0,.321-.687,4.759,4.759,0,0,1-.174-1.308,4.747,4.747,0,0,1,.174-1.309h0a.587.587,0,0,0-.273-.661l-1.35-.779.835-1.448,1.351.781a.587.587,0,0,0,.71-.094,5.009,5.009,0,0,1,1.047-.808Zm2.489,1.175a3.131,3.131,0,0,1,2.185.888l.036.033a3.14,3.14,0,0,1,0,4.439l0,0a3.14,3.14,0,1,1-2.218-5.363Zm-1.389,1.752a1.965,1.965,0,0,1,2.751-.029l.028.029a1.969,1.969,0,0,1,0,2.778l0,0a1.966,1.966,0,0,1-2.779-2.781Z" transform="translate(-388.585 -411.015)" fill="#c0cdea" fill-rule="evenodd"></path><path id="Path_53167" data-name="Path 53167" d="M388.021,420.9a5.2,5.2,0,0,0,0,7.355l.035.032a5.2,5.2,0,0,0,6.883.36l2.174,2.174a.588.588,0,1,0,.831-.832l-2.174-2.173a5.2,5.2,0,0,0-7.747-6.917Zm6.538,6.511-.012.012-.012.012a4.031,4.031,0,0,1-5.655.017l-.027-.029a4.026,4.026,0,1,1,5.707-.012Z" transform="translate(-386.497 -411.246)" fill="#c0cdea" fill-rule="evenodd"></path></g><path id="Path_53168" data-name="Path 53168" d="M521.885,419.568a3.088,3.088,0,1,0-3.089-3.088A3.094,3.094,0,0,0,521.885,419.568Z" transform="translate(-389.476 -111.761)" fill="#d64c47" fill-rule="evenodd"></path><path id="Path_53169" data-name="Path 53169" d="M522.345,418.024h-.606v-2.289a2.085,2.085,0,0,1-.78.461v-.551a1.726,1.726,0,0,0,.514-.294,1.117,1.117,0,0,0,.38-.5h.491Z" transform="translate(-389.579 -111.83)" fill="#fff" fill-rule="evenodd"></path><g id="Group_59907" data-name="Group 59907"><path id="Path_53170" data-name="Path 53170" d="M383.531,97.721a.521.521,0,0,1,0-1.042h11.4a.521.521,0,0,1,0,1.042Zm0,7.487a.521.521,0,0,1,0-1.042h11.4a.521.521,0,0,1,0,1.042Zm0-3.744a.521.521,0,0,1,0-1.042h11.4a.521.521,0,0,1,0,1.042Z" transform="translate(-383.01 -96.679)" fill="#9fb2d9" fill-rule="evenodd"></path><path id="Path_53171" data-name="Path 53171" d="M540.809,97.7Zm-13.707.576h6.692v5.386H527.1a.541.541,0,0,1-.54-.539V98.816a.541.541,0,0,1,.54-.539Zm12.589-1.043H527.1a1.588,1.588,0,0,0-1.582,1.582v4.308A1.588,1.588,0,0,0,527.1,104.7H539.69a1.575,1.575,0,0,0,1.083-.432l.035-.031a1.578,1.578,0,0,0,.464-1.117V98.816a1.59,1.59,0,0,0-1.582-1.582Z" transform="translate(-389.796 -96.705)" fill="#9fb2d9" fill-rule="evenodd"></path></g></g></g><path id="Path_53172" data-name="Path 53172" d="M62.218,459.609H57.062a3.926,3.926,0,0,1-3.914-3.913h0a3.926,3.926,0,0,1,3.914-3.914h5.155a3.926,3.926,0,0,1,3.914,3.914h0A3.926,3.926,0,0,1,62.218,459.609Z" transform="translate(-1.101 -19.609)" fill="#00000f" fill-rule="evenodd"></path><path id="Rectangle_1939" data-name="Rectangle 1939" d="M1.508,0H79.619a1.508,1.508,0,0,1,1.508,1.508V4.152a1.508,1.508,0,0,1-1.508,1.508H1.509A1.509,1.509,0,0,1,0,4.151V1.508A1.508,1.508,0,0,1,1.508,0Z" transform="translate(367.972 288.708)" fill="#e1e8f6"></path><path id="Rectangle_1940" data-name="Rectangle 1940" d="M1.509,0H79.619a1.508,1.508,0,0,1,1.508,1.508V4.151a1.509,1.509,0,0,1-1.509,1.509H1.509A1.509,1.509,0,0,1,0,4.151V1.509A1.509,1.509,0,0,1,1.509,0Z" transform="translate(367.972 278.154)" fill="#e1e8f6"></path><path id="Rectangle_1941" data-name="Rectangle 1941" d="M1.509,0H79.619a1.508,1.508,0,0,1,1.508,1.508V4.153A1.507,1.507,0,0,1,79.62,5.659H1.507A1.507,1.507,0,0,1,0,4.153V1.509A1.509,1.509,0,0,1,1.509,0Z" transform="translate(367.972 267.599)" fill="#e1e8f6"></path><path id="Path_53173" data-name="Path 53173" d="M677.44,459.609h-5.156a3.925,3.925,0,0,1-3.913-3.913h0a3.926,3.926,0,0,1,3.913-3.914h5.156a3.926,3.926,0,0,1,3.914,3.914h0A3.926,3.926,0,0,1,677.44,459.609Z" transform="translate(-30.397 -19.609)" fill="#00000f" fill-rule="evenodd"></path><path id="Path_53174" data-name="Path 53174" d="M388.931,193.085H531.559a4.759,4.759,0,0,1,4.744,4.744v15.19a4.729,4.729,0,0,1-1.393,3.351l-.038.034a4.728,4.728,0,0,1-3.312,1.358H388.931a4.734,4.734,0,0,1-3.349-1.392l0,0a4.728,4.728,0,0,1-1.392-3.347v-15.19a4.762,4.762,0,0,1,4.745-4.744Zm142.629,1.3H388.931A3.43,3.43,0,0,0,386.5,195.4h0a3.428,3.428,0,0,0-1.01,2.43v15.19a3.429,3.429,0,0,0,1.01,2.431l0,0a3.432,3.432,0,0,0,2.431,1.01H531.559a3.435,3.435,0,0,0,2.4-.98l.029-.032A3.43,3.43,0,0,0,535,213.018v-15.19a3.457,3.457,0,0,0-3.443-3.443Z" transform="translate(-16.864 -7.29)" fill="#f29c94" fill-rule="evenodd"></path><g id="Group_59910" data-name="Group 59910" transform="translate(380.103 189.722)"><path id="Path_53175" data-name="Path 53175" d="M431.173,202.569l5.083-.01a.755.755,0,0,1,.445,1.367l-4.118,2.98,1.58,4.831a.755.755,0,0,1-1.163.845l-4.107-3-4.107,3a.755.755,0,0,1-1.162-.845l1.58-4.831-4.118-2.98a.754.754,0,0,1,.443-1.367l5.084.01,1.562-4.837a.755.755,0,0,1,1.437,0Z" transform="translate(-398.709 -197.208)" fill="#fcc100" fill-rule="evenodd"></path><path id="Path_53176" data-name="Path 53176" d="M454.339,202.569l5.083-.01a.755.755,0,0,1,.445,1.367l-4.118,2.98,1.58,4.831a.755.755,0,0,1-1.163.845l-4.107-3-4.108,3a.754.754,0,0,1-1.161-.845l1.579-4.831-4.117-2.98a.754.754,0,0,1,.443-1.367l5.084.01,1.562-4.837a.754.754,0,0,1,1.436,0Z" transform="translate(-399.812 -197.208)" fill="#fcc100" fill-rule="evenodd"></path><path id="Path_53177" data-name="Path 53177" d="M477.5,202.569l5.084-.01a.755.755,0,0,1,.444,1.367l-4.117,2.98,1.579,4.831a.755.755,0,0,1-1.163.845l-4.106-3-4.108,3a.755.755,0,0,1-1.162-.845l1.58-4.831-4.118-2.98a.755.755,0,0,1,.443-1.367l5.084.01,1.562-4.837a.755.755,0,0,1,1.437,0Z" transform="translate(-400.916 -197.208)" fill="#fcc100" fill-rule="evenodd"></path><path id="Path_53178" data-name="Path 53178" d="M500.67,202.569l5.083-.01a.755.755,0,0,1,.445,1.367l-4.118,2.98,1.58,4.831a.755.755,0,0,1-1.163.845l-4.107-3-4.107,3a.755.755,0,0,1-1.162-.845l1.58-4.831-4.118-2.98a.755.755,0,0,1,.443-1.367l5.084.01,1.562-4.837a.755.755,0,0,1,1.437,0Z" transform="translate(-402.019 -197.208)" fill="#fcc100" fill-rule="evenodd"></path><path id="Path_53179" data-name="Path 53179" d="M523.836,202.569l5.083-.01a.755.755,0,0,1,.445,1.367l-4.119,2.98,1.581,4.831a.756.756,0,0,1-1.164.845l-4.106-3-4.108,3a.754.754,0,0,1-1.161-.845l1.58-4.831-4.118-2.98a.755.755,0,0,1,.443-1.367l5.084.01,1.562-4.837a.754.754,0,0,1,1.436,0Z" transform="translate(-403.122 -197.208)" fill="#aeabba" fill-rule="evenodd"></path><path id="Path_53180" data-name="Path 53180" d="M408.007,202.569l5.084-.01a.755.755,0,0,1,.444,1.367l-4.117,2.98L411,211.738a.755.755,0,0,1-1.163.845l-4.106-3-4.108,3a.755.755,0,0,1-1.162-.845l1.58-4.831-4.119-2.98a.755.755,0,0,1,.444-1.367l5.084.01,1.563-4.837a.755.755,0,0,1,1.437,0Z" transform="translate(-397.606 -197.208)" fill="#fcc100" fill-rule="evenodd"></path></g><path id="Rectangle_1942" data-name="Rectangle 1942" d="M1.509,0h147.8a1.508,1.508,0,0,1,1.508,1.508V4.153a1.507,1.507,0,0,1-1.507,1.507H1.508A1.508,1.508,0,0,1,0,4.152V1.509A1.509,1.509,0,0,1,1.509,0Z" transform="translate(367.972 300.026)" fill="#e1e8f6"></path><text id="REVIEWS" transform="translate(375.573 141.863)" fill="#b4c5e6" font-size="36" font-family="SegoeUI, Segoe UI"><tspan x="0" y="0">REVIEWS</tspan></text><path id="Rectangle_1943" data-name="Rectangle 1943" d="M1.507,0h147.8a1.508,1.508,0,0,1,1.508,1.508V4.151a1.509,1.509,0,0,1-1.509,1.509H1.508A1.508,1.508,0,0,1,0,4.151V1.507A1.507,1.507,0,0,1,1.507,0Z" transform="translate(367.972 150.125)" fill="#e1e8f6"></path><path id="Path_53181" data-name="Path 53181" d="M511.7,289.316a25.432,25.432,0,1,0-25.431-25.431A25.48,25.48,0,0,0,511.7,289.316Z" transform="translate(-21.725 -9.45)" fill="#ffc400" fill-rule="evenodd"></path><path id="Path_53182" data-name="Path 53182" d="M512.3,278.141l10.779-12.885c8.374-10.011-5.732-16.486-10.779-8.914-5.047-7.571-19.154-1.1-10.779,8.914Z" transform="translate(-22.328 -10.145)" fill="#fff" fill-rule="evenodd"></path><g id="Group_59912" data-name="Group 59912" transform="translate(575.152 81.958)"><path id="Path_53183" data-name="Path 53183" d="M665.418,84.056H609.759a7.372,7.372,0,0,0-7.351,7.35V143.26a.821.821,0,0,0,1.4.58l12.525-12.526h49.084a7.372,7.372,0,0,0,7.352-7.35V91.406A7.372,7.372,0,0,0,665.418,84.056Z" transform="translate(-602.408 -84.056)" fill="#ff3c37" fill-rule="evenodd"></path><g id="Group_59911" data-name="Group 59911" transform="translate(12.581 18.387)"><path id="Path_53184" data-name="Path 53184" d="M657.312,113.846a5.242,5.242,0,1,0-5.242-5.242A5.253,5.253,0,0,0,657.312,113.846Z" transform="translate(-617.354 -103.362)" fill="#fff" fill-rule="evenodd"></path><path id="Path_53185" data-name="Path 53185" d="M639.087,113.846a5.242,5.242,0,1,0-5.243-5.242A5.251,5.251,0,0,0,639.087,113.846Z" transform="translate(-616.486 -103.362)" fill="#fff" fill-rule="evenodd"></path><path id="Path_53186" data-name="Path 53186" d="M620.86,113.846a5.242,5.242,0,1,0-5.242-5.242A5.252,5.252,0,0,0,620.86,113.846Z" transform="translate(-615.618 -103.362)" fill="#fff" fill-rule="evenodd"></path></g></g><path id="Rectangle_1944" data-name="Rectangle 1944" d="M5.477,0H57.833A5.477,5.477,0,0,1,63.31,5.477V45.611a5.478,5.478,0,0,1-5.478,5.478H5.478A5.478,5.478,0,0,1,0,45.611V5.477A5.477,5.477,0,0,1,5.477,0Z" transform="translate(367.972 314.866)" fill="#1874ba"></path><path id="Rectangle_1945" data-name="Rectangle 1945" d="M1.509,0H79.619a1.508,1.508,0,0,1,1.508,1.508V4.152a1.508,1.508,0,0,1-1.508,1.508H1.509A1.509,1.509,0,0,1,0,4.151V1.509A1.509,1.509,0,0,1,1.509,0Z" transform="translate(367.972 257.044)" fill="#e1e8f6"></path><path id="Rectangle_1946" data-name="Rectangle 1946" d="M1.508,0H79.619a1.508,1.508,0,0,1,1.508,1.508V4.152a1.508,1.508,0,0,1-1.508,1.508H1.509A1.509,1.509,0,0,1,0,4.151V1.508A1.508,1.508,0,0,1,1.508,0Z" transform="translate(367.972 246.49)" fill="#e1e8f6"></path><path id="Rectangle_1947" data-name="Rectangle 1947" d="M1.507,0H79.619a1.508,1.508,0,0,1,1.508,1.508V4.151a1.509,1.509,0,0,1-1.509,1.509H1.509A1.509,1.509,0,0,1,0,4.151V1.507A1.507,1.507,0,0,1,1.507,0Z" transform="translate(367.972 235.936)" fill="#e1e8f6"></path><rect id="Rectangle_1948" data-name="Rectangle 1948" width="81.127" height="14.455" rx="3.852" transform="translate(367.972 215.211)" fill="#f5c890"></rect><path id="Path_53187" data-name="Path 53187" d="M75.673,459.609H643.025a3.924,3.924,0,0,0,3.914-3.913h0a3.925,3.925,0,0,0-3.914-3.914H75.673a3.925,3.925,0,0,0-3.914,3.914h0A3.924,3.924,0,0,0,75.673,459.609Z" transform="translate(-1.987 -19.609)" fill="#00000f" fill-rule="evenodd"></path><path id="Path_53188" data-name="Path 53188" d="M409.617,348.856a8.427,8.427,0,0,1,3.508-3.982,5.792,5.792,0,0,0,2.838-3.787,22.764,22.764,0,0,0,.546-5.925.767.767,0,0,1,.767-.767h2.268a1.745,1.745,0,0,1,.514.083,4.278,4.278,0,0,1,2.139,2.033,8.006,8.006,0,0,1,1,3.925,8.951,8.951,0,0,1-.418,2.7c-.616,1.97-.688,3.033-.465,3.572.127.3.485.372.883.372h5.683a6.922,6.922,0,0,1,1.785.219,4,4,0,0,1,2.011,1.188,3.826,3.826,0,0,1,.9,2.62,7.438,7.438,0,0,1-.231,1.751c.383.932,1.5,4.2-.672,6.2.09,1,.1,3.421-1.708,4.579a5.093,5.093,0,0,1-4.99,3.85H415.551c-2.074,0-4.155-1.44-5.458-2.558v.306a2.381,2.381,0,0,1-.7,1.689l-.051.047a2.378,2.378,0,0,1-1.637.654h-4.735a2.395,2.395,0,0,1-2.392-2.39V350.283a2.384,2.384,0,0,1,.7-1.689l.052-.048a2.38,2.38,0,0,1,1.638-.655H407.7a2.38,2.38,0,0,1,1.686.7,2.3,2.3,0,0,1,.229.262Zm.476,13.986c.7.728,3.164,3.113,5.458,3.113h10.418a3.68,3.68,0,0,0,3.582-2.971.765.765,0,0,1,.408-.53c1.528-.764,1.2-3.2,1.149-3.551a.766.766,0,0,1,.3-.779c1.913-1.41.645-4.42.457-4.836a.763.763,0,0,1-.069-.563,6.241,6.241,0,0,0,.244-1.616,2.356,2.356,0,0,0-.511-1.612,2.5,2.5,0,0,0-1.256-.714,5.432,5.432,0,0,0-1.39-.167H423.2a2.187,2.187,0,0,1-2.3-1.319c-.351-.847-.321-2.254.416-4.613a7.544,7.544,0,0,0,.35-2.245,6.455,6.455,0,0,0-.8-3.17,2.821,2.821,0,0,0-1.265-1.325l-.059-.012h-1.5a21.731,21.731,0,0,1-.6,5.57,7.253,7.253,0,0,1-3.588,4.722c-2.961,1.593-3.674,5.65-3.757,6.2v10.423Zm-2.39-13.415h-4.735a.862.862,0,0,0-.578.223l-.028.029a.857.857,0,0,0-.252.6v14.955a.862.862,0,0,0,.858.857H407.7a.858.858,0,0,0,.576-.224l.028-.029a.855.855,0,0,0,.252-.6V350.283a.86.86,0,0,0-.856-.856Z" transform="translate(-17.645 -14.019)" fill="#fff" fill-rule="evenodd"></path><path id="Rectangle_1949" data-name="Rectangle 1949" d="M1.509,0h147.8a1.508,1.508,0,0,1,1.508,1.508V4.152a1.508,1.508,0,0,1-1.508,1.508H1.508A1.508,1.508,0,0,1,0,4.151V1.509A1.509,1.509,0,0,1,1.509,0Z" transform="translate(367.972 371.613)" fill="#e1e8f6"></path><rect id="Rectangle_1950" data-name="Rectangle 1950" width="150.817" height="5.659" rx="1.508" transform="translate(367.972 381.555)" fill="#e1e8f6"></rect><path id="Rectangle_1951" data-name="Rectangle 1951" d="M1.508,0H79.619a1.508,1.508,0,0,1,1.508,1.508V4.151a1.509,1.509,0,0,1-1.509,1.509H1.507A1.507,1.507,0,0,1,0,4.153V1.508A1.508,1.508,0,0,1,1.508,0Z" transform="translate(437.662 360.295)" fill="#e1e8f6"></path><path id="Rectangle_1952" data-name="Rectangle 1952" d="M1.509,0h78.11a1.508,1.508,0,0,1,1.508,1.508V4.152a1.508,1.508,0,0,1-1.508,1.508H1.507A1.507,1.507,0,0,1,0,4.152V1.509A1.509,1.509,0,0,1,1.509,0Z" transform="translate(437.662 349.74)" fill="#e1e8f6"></path><path id="Rectangle_1953" data-name="Rectangle 1953" d="M1.508,0H79.619a1.508,1.508,0,0,1,1.508,1.508V4.152a1.508,1.508,0,0,1-1.508,1.508H1.507A1.507,1.507,0,0,1,0,4.153V1.508A1.508,1.508,0,0,1,1.508,0Z" transform="translate(437.662 339.185)" fill="#e1e8f6"></path><path id="Rectangle_1954" data-name="Rectangle 1954" d="M4.932,0H76.195a4.932,4.932,0,0,1,4.932,4.932v8.644a4.932,4.932,0,0,1-4.932,4.932H4.931A4.931,4.931,0,0,1,0,13.577V4.932A4.932,4.932,0,0,1,4.932,0Z" transform="translate(437.662 314.866)" fill="#ff3c37"></path><path id="Path_53189" data-name="Path 53189" d="M386.882,166.073h0a1.3,1.3,0,0,1,1.291,1.29v19.445a1.294,1.294,0,0,1-1.291,1.29h0a1.293,1.293,0,0,1-1.29-1.29V167.363A1.294,1.294,0,0,1,386.882,166.073Z" transform="translate(-16.931 -6.003)" fill="#e4e1e8" fill-rule="evenodd"></path><path id="Path_53190" data-name="Path 53190" d="M393.307,166.073h0a1.3,1.3,0,0,1,1.29,1.29v19.445a1.294,1.294,0,0,1-1.29,1.29h0a1.293,1.293,0,0,1-1.29-1.29V167.363A1.294,1.294,0,0,1,393.307,166.073Z" transform="translate(-17.237 -6.003)" fill="#e4e1e8" fill-rule="evenodd"></path><path id="Rectangle_1955" data-name="Rectangle 1955" d="M1.291,0h0a1.29,1.29,0,0,1,1.29,1.29V20.735a1.29,1.29,0,0,1-1.29,1.29h0A1.291,1.291,0,0,1,0,20.734V1.291A1.291,1.291,0,0,1,1.291,0Z" transform="translate(380.897 160.07)" fill="#e4e1e8"></path><path id="Rectangle_1956" data-name="Rectangle 1956" d="M1.29,0h0a1.29,1.29,0,0,1,1.29,1.29V20.734A1.291,1.291,0,0,1,1.29,22.026h0A1.29,1.29,0,0,1,0,20.735V1.29A1.29,1.29,0,0,1,1.29,0Z" transform="translate(387.016 160.07)" fill="#e4e1e8"></path><path id="Path_53191" data-name="Path 53191" d="M412.579,166.073h0a1.294,1.294,0,0,1,1.291,1.29v19.445a1.294,1.294,0,0,1-1.291,1.29h0a1.294,1.294,0,0,1-1.29-1.29V167.363A1.3,1.3,0,0,1,412.579,166.073Z" transform="translate(-18.155 -6.003)" fill="#e4e1e8" fill-rule="evenodd"></path><path id="Rectangle_1957" data-name="Rectangle 1957" d="M1.29,0h0a1.29,1.29,0,0,1,1.29,1.29V20.735A1.291,1.291,0,0,1,1.29,22.026h0A1.29,1.29,0,0,1,0,20.736V1.29A1.29,1.29,0,0,1,1.29,0Z" transform="translate(399.253 160.07)" fill="#e4e1e8"></path><path id="Path_53192" data-name="Path 53192" d="M425.428,166.073h0a1.3,1.3,0,0,1,1.291,1.29v19.445a1.3,1.3,0,0,1-1.291,1.29h0a1.293,1.293,0,0,1-1.29-1.29V167.363A1.294,1.294,0,0,1,425.428,166.073Z" transform="translate(-18.767 -6.003)" fill="#e4e1e8" fill-rule="evenodd"></path><path id="Rectangle_1958" data-name="Rectangle 1958" d="M1.29,0h0a1.29,1.29,0,0,1,1.29,1.29V20.735a1.29,1.29,0,0,1-1.29,1.29h0A1.291,1.291,0,0,1,0,20.734V1.29A1.29,1.29,0,0,1,1.29,0Z" transform="translate(411.489 160.07)" fill="#e4e1e8"></path><path id="Path_53193" data-name="Path 53193" d="M438.277,166.073h0a1.3,1.3,0,0,1,1.29,1.29v19.445a1.294,1.294,0,0,1-1.29,1.29h0a1.294,1.294,0,0,1-1.291-1.29V167.363A1.3,1.3,0,0,1,438.277,166.073Z" transform="translate(-19.379 -6.003)" fill="#e4e1e8" fill-rule="evenodd"></path><path id="Path_53194" data-name="Path 53194" d="M444.7,166.073h0a1.294,1.294,0,0,1,1.29,1.29v19.445a1.293,1.293,0,0,1-1.29,1.29h0a1.294,1.294,0,0,1-1.291-1.29V167.363A1.3,1.3,0,0,1,444.7,166.073Z" transform="translate(-19.685 -6.003)" fill="#e4e1e8" fill-rule="evenodd"></path><path id="Path_53195" data-name="Path 53195" d="M451.125,166.073h0a1.3,1.3,0,0,1,1.29,1.29v19.445a1.294,1.294,0,0,1-1.29,1.29h0a1.293,1.293,0,0,1-1.29-1.29V167.363A1.294,1.294,0,0,1,451.125,166.073Z" transform="translate(-19.991 -6.003)" fill="#e4e1e8" fill-rule="evenodd"></path><path id="Path_53196" data-name="Path 53196" d="M457.55,166.073h0a1.3,1.3,0,0,1,1.291,1.29v19.445a1.3,1.3,0,0,1-1.291,1.29h0a1.293,1.293,0,0,1-1.29-1.29V167.363A1.293,1.293,0,0,1,457.55,166.073Z" transform="translate(-20.297 -6.003)" fill="#e4e1e8" fill-rule="evenodd"></path><path id="Path_53197" data-name="Path 53197" d="M463.974,166.073h0a1.3,1.3,0,0,1,1.29,1.29v19.445a1.294,1.294,0,0,1-1.29,1.29h0a1.293,1.293,0,0,1-1.29-1.29V167.363A1.294,1.294,0,0,1,463.974,166.073Z" transform="translate(-20.602 -6.003)" fill="#e4e1e8" fill-rule="evenodd"></path><path id="Path_53198" data-name="Path 53198" d="M470.4,166.073h0a1.3,1.3,0,0,1,1.29,1.29v19.445a1.294,1.294,0,0,1-1.29,1.29h0a1.3,1.3,0,0,1-1.291-1.29V167.363A1.3,1.3,0,0,1,470.4,166.073Z" transform="translate(-20.908 -6.003)" fill="#e4e1e8" fill-rule="evenodd"></path><path id="Path_53199" data-name="Path 53199" d="M476.822,166.073h0a1.294,1.294,0,0,1,1.29,1.29v19.445a1.293,1.293,0,0,1-1.29,1.29h0a1.294,1.294,0,0,1-1.29-1.29V167.363A1.3,1.3,0,0,1,476.822,166.073Z" transform="translate(-21.214 -6.003)" fill="#e4e1e8" fill-rule="evenodd"></path><path id="Path_53200" data-name="Path 53200" d="M483.246,166.073h0a1.294,1.294,0,0,1,1.29,1.29v19.445a1.293,1.293,0,0,1-1.29,1.29h0a1.294,1.294,0,0,1-1.29-1.29V167.363A1.3,1.3,0,0,1,483.246,166.073Z" transform="translate(-21.52 -6.003)" fill="#e4e1e8" fill-rule="evenodd"></path><path id="Path_53201" data-name="Path 53201" d="M489.671,166.073h0a1.3,1.3,0,0,1,1.291,1.29v19.445a1.3,1.3,0,0,1-1.291,1.29h0a1.293,1.293,0,0,1-1.289-1.29V167.363A1.294,1.294,0,0,1,489.671,166.073Z" transform="translate(-21.826 -6.003)" fill="#e4e1e8" fill-rule="evenodd"></path><path id="Path_53202" data-name="Path 53202" d="M496.1,166.073h0a1.3,1.3,0,0,1,1.29,1.29v19.445a1.294,1.294,0,0,1-1.29,1.29h0a1.293,1.293,0,0,1-1.29-1.29V167.363A1.294,1.294,0,0,1,496.1,166.073Z" transform="translate(-22.132 -6.003)" fill="#e4e1e8" fill-rule="evenodd"></path><path id="Path_53203" data-name="Path 53203" d="M502.519,166.073h0a1.294,1.294,0,0,1,1.29,1.29v19.445a1.293,1.293,0,0,1-1.29,1.29h0a1.3,1.3,0,0,1-1.291-1.29V167.363A1.3,1.3,0,0,1,502.519,166.073Z" transform="translate(-22.438 -6.003)" fill="#e4e1e8" fill-rule="evenodd"></path><path id="Path_53204" data-name="Path 53204" d="M508.943,166.073h0a1.294,1.294,0,0,1,1.29,1.29v19.445a1.293,1.293,0,0,1-1.29,1.29h0a1.294,1.294,0,0,1-1.29-1.29V167.363A1.3,1.3,0,0,1,508.943,166.073Z" transform="translate(-22.744 -6.003)" fill="#e4e1e8" fill-rule="evenodd"></path><path id="Path_53205" data-name="Path 53205" d="M515.368,166.073h0a1.293,1.293,0,0,1,1.29,1.29v19.445a1.293,1.293,0,0,1-1.29,1.29h0a1.294,1.294,0,0,1-1.291-1.29V167.363A1.3,1.3,0,0,1,515.368,166.073Z" transform="translate(-23.05 -6.003)" fill="#e4e1e8" fill-rule="evenodd"></path><path id="Path_53206" data-name="Path 53206" d="M521.792,166.073h0a1.3,1.3,0,0,1,1.291,1.29v19.445a1.294,1.294,0,0,1-1.291,1.29h0a1.294,1.294,0,0,1-1.291-1.29V167.363A1.3,1.3,0,0,1,521.792,166.073Z" transform="translate(-23.356 -6.003)" fill="#e4e1e8" fill-rule="evenodd"></path><path id="Path_53207" data-name="Path 53207" d="M528.216,166.073h0a1.3,1.3,0,0,1,1.291,1.29v19.445a1.3,1.3,0,0,1-1.291,1.29h0a1.293,1.293,0,0,1-1.29-1.29V167.363A1.294,1.294,0,0,1,528.216,166.073Z" transform="translate(-23.662 -6.003)" fill="#e4e1e8" fill-rule="evenodd"></path><path id="Rectangle_1959" data-name="Rectangle 1959" d="M1.291,0h0a1.29,1.29,0,0,1,1.29,1.29V20.735a1.29,1.29,0,0,1-1.29,1.29h0A1.291,1.291,0,0,1,0,20.734V1.291A1.291,1.291,0,0,1,1.291,0Z" transform="translate(509.382 160.07)" fill="#e4e1e8"></path><path id="Rectangle_1960" data-name="Rectangle 1960" d="M1.29,0h0A1.291,1.291,0,0,1,2.582,1.291V20.734A1.291,1.291,0,0,1,1.29,22.026h0A1.29,1.29,0,0,1,0,20.735V1.29A1.29,1.29,0,0,1,1.29,0Z" transform="translate(515.501 160.07)" fill="#e4e1e8"></path><g id="Group_59916" data-name="Group 59916" transform="translate(50.311 234.169)"><path id="Path_53208" data-name="Path 53208" d="M141.108,319.968c15.316-8.14,19.2,9.572,13.249,24.239s-36.51,64-38.107,83.564c-.618,7.583-2.032,6.754-3.242,1.437C106.971,402.686,120.023,331.175,141.108,319.968Z" transform="translate(-54.191 -247.403)" fill="#294d3c" fill-rule="evenodd"></path><g id="Group_59913" data-name="Group 59913" transform="translate(28.475)"><path id="Path_53209" data-name="Path 53209" d="M107.233,249.242c-17.563-15.812-28.544,6.321-25.508,27.672s27.157,96.642,22.814,123.03c-1.683,10.23.459,9.6,3.812,2.971C125.079,369.846,131.41,271.008,107.233,249.242Z" transform="translate(-81.223 -243.878)" fill="#4a9075" fill-rule="evenodd"></path><path id="Path_53210" data-name="Path 53210" d="M104.829,407.739c.376.981,1.21.494,2.33-1.138,18.3-60.972-10.21-152.07-10.3-152.362a.951.951,0,0,0-1.818.561C95.131,255.094,124.034,347.436,104.829,407.739Z" transform="translate(-81.879 -244.339)" fill="#1b7154" fill-rule="evenodd"></path></g><g id="Group_59914" data-name="Group 59914" transform="translate(0 54.383)"><path id="Path_53211" data-name="Path 53211" d="M67.451,302.62c-17.017-7.407-19.689,11.812-12.112,26.963s44.282,65.227,47.615,85.965c1.291,8.039,2.73,7.037,3.578,1.264C110.761,388.015,90.877,312.817,67.451,302.62Z" transform="translate(-51.324 -300.98)" fill="#a6c86b" fill-rule="evenodd"></path><path id="Path_53212" data-name="Path 53212" d="M104.89,421.474c.523.637,1.024.068,1.451-1.428C104.8,370.074,60.887,309.313,60.747,309.117a.747.747,0,1,0-1.214.87C59.674,310.184,104.185,371.775,104.89,421.474Z" transform="translate(-51.709 -301.353)" fill="#5f9850" fill-rule="evenodd"></path></g><g id="Group_59915" data-name="Group 59915" transform="translate(28.846 153.444)"><path id="Path_53213" data-name="Path 53213" d="M92.991,415.489h32.693l8.536,7.7-6.973,26.86H91.427l-6.973-26.86Z" transform="translate(-81.748 -405.494)" fill="#3b405f" fill-rule="evenodd"></path><rect id="Rectangle_1961" data-name="Rectangle 1961" width="55.177" height="17.699" rx="2.842" fill="#3b405f"></rect><path id="Path_53214" data-name="Path 53214" d="M134.219,423.578l-1.433,5.52h-46.9l-1.433-5.52Z" transform="translate(-81.748 -405.879)" fill="#101537" fill-rule="evenodd"></path></g></g><path id="Path_53215" data-name="Path 53215" d="M253.255,180.444a1.08,1.08,0,1,0-2.161,0v2.541h-2.542a1.08,1.08,0,0,0,0,2.161h2.542v2.543a1.08,1.08,0,0,0,2.161,0v-2.543H255.8a1.08,1.08,0,1,0,0-2.161h-2.541Z" transform="translate(-10.354 -6.636)" fill="#9fb2d9" fill-rule="evenodd"></path><path id="Path_53216" data-name="Path 53216" d="M101.376,231.607Zm3.276-12.472a6.3,6.3,0,1,1-1.846,4.455,6.278,6.278,0,0,1,1.846-4.455Zm1.361-6.247a11.128,11.128,0,0,0-4.636,2.686.387.387,0,0,1-.462.055l-2.928-1.69-.016-.01a.732.732,0,0,0-.974.276l-.013.02-2.06,3.568a.734.734,0,0,0,.267.993l.02.01,2.9,1.677a.385.385,0,0,1,.182.427h0a11.157,11.157,0,0,0-.245,1.332,11.216,11.216,0,0,0,.245,4.046.386.386,0,0,1-.2.439l-2.9,1.676h0a.731.731,0,0,0-.267.991L97,232.975h0a.728.728,0,0,0,.99.267l.021-.011,2.908-1.679a.389.389,0,0,1,.461.056,11.146,11.146,0,0,0,4.651,2.69.388.388,0,0,1,.282.371v3.377a.725.725,0,0,0,.725.725h4.145a.727.727,0,0,0,.724-.725v-3.377a.389.389,0,0,1,.3-.377,11.124,11.124,0,0,0,4.636-2.684.386.386,0,0,1,.48-.045l2.909,1.679a.73.73,0,0,0,.991-.267l.012-.019,2.06-3.57h0a.728.728,0,0,0,.07-.55.721.721,0,0,0-.335-.44l-2.926-1.69a.387.387,0,0,1-.183-.427h0a11.139,11.139,0,0,0,.245-1.331,11.292,11.292,0,0,0,0-2.715,11.175,11.175,0,0,0-.245-1.331.385.385,0,0,1,.2-.438l2.9-1.676a.732.732,0,0,0,.265-.991l-.011-.022-2.06-3.568h0a.732.732,0,0,0-.991-.267h0l-2.929,1.69a.387.387,0,0,1-.47-.063,11.122,11.122,0,0,0-4.644-2.683.385.385,0,0,1-.282-.371v-3.377a.728.728,0,0,0-.724-.725h-4.145a.727.727,0,0,0-.725.725v3.377A.386.386,0,0,1,106.013,212.888Z" transform="translate(-3.085 -8.02)" fill="#c0cdea" fill-rule="evenodd"></path><path id="Path_53217" data-name="Path 53217" d="M159.3,201.2a14.826,14.826,0,1,1-3.223,4.823A14.874,14.874,0,0,1,159.3,201.2Zm5.344-1.955a13.557,13.557,0,1,0,5.153-1.017,13.5,13.5,0,0,0-5.153,1.017ZM163,188.323a24.207,24.207,0,0,0-5.363,2.288,24.6,24.6,0,0,0-4.737,3.57,1.553,1.553,0,0,1-1.856.225c-2.179-1.259-4.472-2.5-6.608-3.816a.927.927,0,0,0-.321-.1.993.993,0,0,0-.364.028.951.951,0,0,0-.334.163.934.934,0,0,0-.241.274c-1.59,2.4-3.184,5.51-4.656,8.061a.9.9,0,0,0-.115.342.991.991,0,0,0,.028.376.953.953,0,0,0,.163.333.928.928,0,0,0,.273.241c1.962,1.3,4.488,2.593,6.567,3.8a1.539,1.539,0,0,1,.655.734,1.569,1.569,0,0,1,.1.324l.135.045-.152.613q-.179.723-.311,1.443-.129.7-.222,1.464c-.06.5-.106.99-.135,1.477s-.043.975-.043,1.493.014,1.016.043,1.491.075.981.135,1.478.136,1,.222,1.464.192.961.312,1.444a1.551,1.551,0,0,1-.8,1.753l-5.816,3.358,0,0-.69.4a.96.96,0,0,0-.274.241.982.982,0,0,0-.162.334.992.992,0,0,0-.028.376.9.9,0,0,0,.115.342l4.306,7.46h0l.348.6a.929.929,0,0,0,.241.273.951.951,0,0,0,.334.163.976.976,0,0,0,.373.028.907.907,0,0,0,.341-.116c2.083-1.309,4.432-2.557,6.581-3.8a1.557,1.557,0,0,1,1.851.222l0,0a24.555,24.555,0,0,0,4.736,3.57,24.119,24.119,0,0,0,5.43,2.307,1.557,1.557,0,0,1,1.13,1.5l0,7.589a.915.915,0,0,0,.07.357.941.941,0,0,0,.208.306.926.926,0,0,0,.306.208.936.936,0,0,0,.357.07h9.312a.931.931,0,0,0,.356-.07.967.967,0,0,0,.308-.207.981.981,0,0,0,.206-.307.915.915,0,0,0,.07-.357v-7.589a1.571,1.571,0,0,1,1.2-1.516,23.9,23.9,0,0,0,2.735-.974,24.463,24.463,0,0,0,7.365-4.883,1.545,1.545,0,0,1,.935-.426,1.564,1.564,0,0,1,1,.249l6.5,3.751a.918.918,0,0,0,.344.115.986.986,0,0,0,.375-.028.955.955,0,0,0,.333-.163.929.929,0,0,0,.241-.273c1.544-2.692,3.11-5.371,4.656-8.063a.933.933,0,0,0,.116-.343,1,1,0,0,0-.028-.374.943.943,0,0,0-.163-.334.9.9,0,0,0-.268-.241l-6.573-3.794a1.548,1.548,0,0,1-.655-.734,1.5,1.5,0,0,1-.082-.25l-.172-.035.173-.7c.118-.481.223-.963.311-1.442s.159-.956.222-1.466.106-.99.135-1.478.043-.973.043-1.491-.014-1.016-.043-1.491-.075-.979-.135-1.477c-.063-.514-.137-1-.222-1.469s-.192-.958-.311-1.44a1.545,1.545,0,0,1,.1-1.027,1.569,1.569,0,0,1,.7-.727l6.51-3.758a.87.87,0,0,0,.27-.239.94.94,0,0,0,.163-.335,1,1,0,0,0,.028-.374.933.933,0,0,0-.116-.343c-1.59-2.364-3.181-5.521-4.656-8.062a.92.92,0,0,0-.241-.274.954.954,0,0,0-.333-.163.964.964,0,0,0-.374-.028.917.917,0,0,0-.344.117l-6.576,3.8a1.53,1.53,0,0,1-.986.2,1.549,1.549,0,0,1-.889-.438,24.41,24.41,0,0,0-4.718-3.551,24.094,24.094,0,0,0-5.43-2.306,1.555,1.555,0,0,1-1.129-1.5l0-7.589a.933.933,0,0,0-.07-.357.967.967,0,0,0-.208-.306.927.927,0,0,0-.663-.277h-9.312a.919.919,0,0,0-.357.07.947.947,0,0,0-.583.87v7.589a1.556,1.556,0,0,1-.334.964,1.574,1.574,0,0,1-.865.551Zm-3.273-.288a25.721,25.721,0,0,0-7.777,5.157.186.186,0,0,1-.218.026q-3.316-1.914-6.632-3.83a2.291,2.291,0,0,0-.83-.262,2.344,2.344,0,0,0-1.684.465,2.276,2.276,0,0,0-.6.678c-1.6,2.594-3.124,5.406-4.656,8.06a2.29,2.29,0,0,0-.289.858,2.368,2.368,0,0,0,.06.9,2.338,2.338,0,0,0,.4.812,2.285,2.285,0,0,0,.677.6c2.114,1.306,4.409,2.545,6.572,3.794a.181.181,0,0,1,.074.086.192.192,0,0,1,.01.115l-.152.612.01,0c-.066.3-.128.6-.184.91-.1.525-.175,1.043-.237,1.55s-.109,1.023-.141,1.557-.049,1.061-.049,1.573.016,1.035.049,1.571.08,1.054.141,1.56.141,1.024.238,1.549.206,1.031.327,1.525a.17.17,0,0,1-.012.119.18.18,0,0,1-.081.089c-2.415,1.29-4.867,2.807-7.254,4.187l.085.107-.073.09a2.334,2.334,0,0,0-.459,1.715,2.272,2.272,0,0,0,.29.856l5,8.665.093-.055c.05.045.1.089.154.129a2.329,2.329,0,0,0,2.547.186c2.189-1.162,4.442-2.566,6.6-3.813a.177.177,0,0,1,.11-.019.194.194,0,0,1,.109.05,25.749,25.749,0,0,0,5,3.766,25.712,25.712,0,0,0,5.741,2.441.18.18,0,0,1,.1.064.165.165,0,0,1,.036.111v7.589a2.316,2.316,0,0,0,.684,1.636,2.355,2.355,0,0,0,.75.5,2.287,2.287,0,0,0,.883.178h9.312a2.294,2.294,0,0,0,.883-.178,2.4,2.4,0,0,0,.752-.5,2.337,2.337,0,0,0,.5-.752,2.278,2.278,0,0,0,.178-.884v-7.589a.186.186,0,0,1,.036-.114.183.183,0,0,1,.1-.064l.03-.01a25.416,25.416,0,0,0,5.7-2.428,25.637,25.637,0,0,0,5-3.769.183.183,0,0,1,.108-.051.2.2,0,0,1,.118.03l6.571,3.793a2.277,2.277,0,0,0,.854.288,2.327,2.327,0,0,0,1.713-.46,2.286,2.286,0,0,0,.584-.657c1.727-2.776,3.358-5.817,5-8.669l-.089-.052c.016-.072.03-.147.039-.219a2.358,2.358,0,0,0-.06-.9,2.325,2.325,0,0,0-1.075-1.408l-6.573-3.794a.173.173,0,0,1-.074-.085.19.19,0,0,1-.01-.119l.17-.694-.01,0q.089-.407.165-.825c.1-.525.177-1.043.238-1.55s.109-1.026.14-1.56.05-1.06.05-1.571-.016-1.035-.05-1.571-.079-1.055-.14-1.562-.14-1.021-.238-1.55-.206-1.03-.328-1.521a.2.2,0,0,1,.013-.122.187.187,0,0,1,.084-.086l6.565-3.79a2.256,2.256,0,0,0,.674-.6,2.326,2.326,0,0,0,.182-2.549c-1.565-2.9-3.359-5.819-5.013-8.687l-.094.056c-.05-.045-.1-.089-.154-.13a2.338,2.338,0,0,0-1.712-.46,2.312,2.312,0,0,0-.854.285l-.486.279,0,0-6.1,3.518a.182.182,0,0,1-.116.025.19.19,0,0,1-.1-.052l-.016-.017a25.965,25.965,0,0,0-4.981-3.75,25.681,25.681,0,0,0-5.74-2.441.18.18,0,0,1-.1-.064.171.171,0,0,1-.037-.111v-7.589a2.315,2.315,0,0,0-.683-1.635,2.337,2.337,0,0,0-.75-.5,2.294,2.294,0,0,0-.883-.178h-9.312a2.287,2.287,0,0,0-.883.178,2.37,2.37,0,0,0-.752.5,2.307,2.307,0,0,0-.681,1.635v7.589a.2.2,0,0,1-.037.116.189.189,0,0,1-.1.062l-.03.01A25.813,25.813,0,0,0,159.727,188.035Z" transform="translate(-5.095 -6.519)" fill="#c0cdea" fill-rule="evenodd"></path><path id="Path_53218" data-name="Path 53218" d="M339.04,49.39a1.081,1.081,0,0,0-2.162,0v2.541h-2.541a1.081,1.081,0,0,0,0,2.162h2.541v2.541a1.081,1.081,0,0,0,2.162,0V54.093h2.541a1.081,1.081,0,0,0,0-2.162H339.04Z" transform="translate(-14.439 -0.396)" fill="#9fb2d9" fill-rule="evenodd"></path><path id="Path_53219" data-name="Path 53219" d="M685.947,66.092a1.08,1.08,0,0,0-2.161,0v2.542h-2.541a1.081,1.081,0,1,0,0,2.162h2.541v2.541a1.08,1.08,0,1,0,2.161,0V70.8h2.541a1.081,1.081,0,0,0,0-2.162h-2.541Z" transform="translate(-30.959 -1.191)" fill="#9fb2d9" fill-rule="evenodd"></path><path id="Path_53220" data-name="Path 53220" d="M705.22,189.438a1.081,1.081,0,1,0-2.162,0v2.542h-2.541a1.08,1.08,0,1,0,0,2.161h2.541v2.541a1.081,1.081,0,1,0,2.162,0v-2.541h2.541a1.08,1.08,0,0,0,0-2.161H705.22Z" transform="translate(-31.876 -7.065)" fill="#9fb2d9" fill-rule="evenodd"></path><path id="Path_53221" data-name="Path 53221" d="M703.935,373.171a1.08,1.08,0,0,0-2.161,0v2.542h-2.542a1.08,1.08,0,1,0,0,2.161h2.542v2.541a1.08,1.08,0,1,0,2.161,0v-2.541h2.542a1.08,1.08,0,0,0,0-2.161h-2.542Z" transform="translate(-31.815 -15.814)" fill="#9fb2d9" fill-rule="evenodd"></path><path id="Path_53222" data-name="Path 53222" d="M170.725,425.849a1.08,1.08,0,0,0-2.161,0v2.542h-2.541a1.081,1.081,0,1,0,0,2.161h2.541v2.542a1.08,1.08,0,1,0,2.161,0v-2.542h2.541a1.081,1.081,0,1,0,0-2.161h-2.541Z" transform="translate(-6.424 -18.322)" fill="#9fb2d9" fill-rule="evenodd"></path><path id="Path_53223" data-name="Path 53223" d="M48.665,402.722a1.08,1.08,0,0,0-2.161,0v2.542H43.963a1.08,1.08,0,1,0,0,2.161H46.5v2.541a1.08,1.08,0,1,0,2.161,0v-2.541h2.541a1.08,1.08,0,1,0,0-2.161H48.665Z" transform="translate(-0.612 -17.221)" fill="#9fb2d9" fill-rule="evenodd"></path><path id="Path_53224" data-name="Path 53224" d="M151.452,288.372a1.08,1.08,0,1,0-2.161,0v2.541H146.75a1.08,1.08,0,1,0,0,2.161h2.541v2.541a1.08,1.08,0,1,0,2.161,0v-2.541h2.542a1.08,1.08,0,0,0,0-2.161h-2.542Z" transform="translate(-5.506 -11.776)" fill="#9fb2d9" fill-rule="evenodd"></path><path id="Path_53225" data-name="Path 53225" d="M35.816,278.093a1.08,1.08,0,1,0-2.161,0v2.541H31.114a1.08,1.08,0,1,0,0,2.161h2.541v2.541a1.08,1.08,0,1,0,2.161,0v-2.541h2.542a1.08,1.08,0,0,0,0-2.161H35.816Z" transform="translate(0 -11.286)" fill="#9fb2d9" fill-rule="evenodd"></path><path id="Path_53226" data-name="Path 53226" d="M281.715,94.8Zm3.276-12.471a6.3,6.3,0,1,1-1.846,4.455,6.278,6.278,0,0,1,1.846-4.455Zm1.361-6.246a11.072,11.072,0,0,0-2.47,1.051,11.223,11.223,0,0,0-2.167,1.633.386.386,0,0,1-.461.056l-2.929-1.69-.016-.01a.73.73,0,0,0-.974.276l-.012.019-2.06,3.568a.732.732,0,0,0,.266.992l.02.012,2.9,1.677a.387.387,0,0,1,.182.427h0a11.141,11.141,0,0,0-.245,1.331,11.284,11.284,0,0,0,0,2.714,11.125,11.125,0,0,0,.245,1.33.387.387,0,0,1-.2.44l-2.9,1.676h0a.731.731,0,0,0-.266.991l2.071,3.59h0a.731.731,0,0,0,.99.267l.022-.012,2.908-1.68a.39.39,0,0,1,.46.057,11.262,11.262,0,0,0,2.167,1.633,11.039,11.039,0,0,0,2.486,1.055.389.389,0,0,1,.282.373v3.377a.728.728,0,0,0,.724.725h4.145a.73.73,0,0,0,.725-.725V97.857a.388.388,0,0,1,.3-.378,11.007,11.007,0,0,0,2.47-1.05,11.235,11.235,0,0,0,2.167-1.633.388.388,0,0,1,.481-.045l2.908,1.68a.732.732,0,0,0,.991-.267l.012-.02,2.061-3.57h0a.73.73,0,0,0-.265-.99L300.439,89.9a.387.387,0,0,1-.183-.428h0a10.961,10.961,0,0,0,.245-1.331,11.3,11.3,0,0,0,0-2.715,10.98,10.98,0,0,0-.245-1.33.387.387,0,0,1,.2-.439l2.9-1.677a.731.731,0,0,0,.265-.99l-.011-.021-2.06-3.568h0a.73.73,0,0,0-.99-.268h0l-2.928,1.69a.387.387,0,0,1-.47-.065,11.233,11.233,0,0,0-2.158-1.625,11.009,11.009,0,0,0-2.485-1.056.386.386,0,0,1-.282-.372V72.324a.727.727,0,0,0-.725-.724h-4.145a.725.725,0,0,0-.724.724V75.7A.387.387,0,0,1,286.352,76.078Z" transform="translate(-11.673 -1.505)" fill="#c0cdea" fill-rule="evenodd"></path><path id="Path_53227" data-name="Path 53227" d="M642.757,171.886Zm3.274-12.472a6.3,6.3,0,1,1-1.845,4.456,6.289,6.289,0,0,1,1.845-4.456Zm1.362-6.245a11.009,11.009,0,0,0-2.47,1.051,11.224,11.224,0,0,0-2.167,1.633.387.387,0,0,1-.461.055l-2.929-1.69-.016-.01a.735.735,0,0,0-.975.275l-.011.021-2.06,3.568a.728.728,0,0,0,.267.992l.019.012,2.9,1.676a.388.388,0,0,1,.184.427h0a10.788,10.788,0,0,0-.245,1.33,11.292,11.292,0,0,0,0,2.715,10.836,10.836,0,0,0,.245,1.331.385.385,0,0,1-.2.438l-2.9,1.677h0a.717.717,0,0,0-.338.441.724.724,0,0,0,.071.55l2.07,3.588h0a.73.73,0,0,0,.991.267l.022-.012,2.908-1.678a.387.387,0,0,1,.46.056,11.205,11.205,0,0,0,2.166,1.632,11.026,11.026,0,0,0,2.487,1.056.389.389,0,0,1,.282.372v3.378a.725.725,0,0,0,.724.724h4.145a.728.728,0,0,0,.725-.724v-3.378a.387.387,0,0,1,.3-.377,10.983,10.983,0,0,0,2.47-1.051,11.154,11.154,0,0,0,2.167-1.632.384.384,0,0,1,.481-.044l2.908,1.678a.73.73,0,0,0,.991-.267l.013-.019,2.06-3.57h0a.731.731,0,0,0-.265-.99l-2.925-1.69a.383.383,0,0,1-.183-.426h0a11.244,11.244,0,0,0,0-5.377.386.386,0,0,1,.2-.439l2.9-1.677a.731.731,0,0,0,.265-.99l-.011-.022-2.06-3.569h0a.732.732,0,0,0-.99-.266h0l-2.928,1.69a.385.385,0,0,1-.469-.064,11.246,11.246,0,0,0-2.16-1.625,11.044,11.044,0,0,0-2.484-1.056.387.387,0,0,1-.282-.372v-3.377a.728.728,0,0,0-.725-.725h-4.145a.725.725,0,0,0-.724.725v3.377A.387.387,0,0,1,647.393,153.169Z" transform="translate(-28.865 -5.176)" fill="#c0cdea" fill-rule="evenodd"></path><path id="Path_53228" data-name="Path 53228" d="M492.751,63.2Zm3.276-12.471a6.3,6.3,0,1,1-1.847,4.456,6.279,6.279,0,0,1,1.847-4.456Zm1.36-6.246a11.074,11.074,0,0,0-2.47,1.052,11.243,11.243,0,0,0-2.167,1.631.386.386,0,0,1-.461.057l-2.929-1.69-.015-.01a.731.731,0,0,0-.976.275l-.01.02-2.06,3.568a.73.73,0,0,0,.266.993l.019.011,2.9,1.676a.386.386,0,0,1,.184.427h0a10.77,10.77,0,0,0-.245,1.331,11.284,11.284,0,0,0,0,2.714,10.819,10.819,0,0,0,.245,1.332.387.387,0,0,1-.2.438l-2.9,1.676h0a.729.729,0,0,0-.266.992l2.07,3.589h0a.731.731,0,0,0,.991.266l.022-.011,2.908-1.678a.386.386,0,0,1,.46.054,11.11,11.11,0,0,0,4.653,2.69.386.386,0,0,1,.281.371v3.378a.727.727,0,0,0,.724.724h4.145a.728.728,0,0,0,.725-.724V66.257a.388.388,0,0,1,.3-.376,11.124,11.124,0,0,0,4.637-2.686.386.386,0,0,1,.48-.043L511.6,64.83a.73.73,0,0,0,.99-.266l.013-.021,2.061-3.57h0a.732.732,0,0,0-.264-.99L511.474,58.3a.385.385,0,0,1-.182-.426h0a11.186,11.186,0,0,0,.245-1.332,11.292,11.292,0,0,0,0-2.715,11.154,11.154,0,0,0-.245-1.33.385.385,0,0,1,.2-.439l2.9-1.676a.732.732,0,0,0,.264-.991l-.011-.021-2.06-3.569h0a.728.728,0,0,0-.99-.266h0l-2.927,1.69a.388.388,0,0,1-.47-.064,11.151,11.151,0,0,0-2.159-1.625,11.017,11.017,0,0,0-2.485-1.057.387.387,0,0,1-.282-.371V40.726a.73.73,0,0,0-.725-.726h-4.145a.728.728,0,0,0-.724.726V44.1A.387.387,0,0,1,497.387,44.479Z" transform="translate(-21.722)" fill="#c0cdea" fill-rule="evenodd"></path><g id="Group_59917" data-name="Group 59917" transform="translate(507.057 148.361)"><path id="Path_53229" data-name="Path 53229" d="M652.674,443.463s-1.142-2.008-2.828-1.11-1.986.793-3.573-.265-4.9.158-4.9.158-9.636,3.33-10.877,3.857-2.231,1.532-2.231,4.438l1.34,1.427h22.722s1.141-1,1.19-1.85S653.567,444.73,652.674,443.463Z" transform="translate(-535.544 -167.488)" fill="#d64c47" fill-rule="evenodd"></path><rect id="Rectangle_1962" data-name="Rectangle 1962" width="26.866" height="2.746" rx="0.833" transform="translate(91.876 282.685)" fill="#fff"></rect><path id="Path_53230" data-name="Path 53230" d="M593.98,442.922s-1.2-2.116-2.981-1.17-2.092.835-3.765-.278-5.165.166-5.165.166-10.156,3.509-11.464,4.066-2.354,1.615-2.354,4.678l1.412,1.5h23.951s1.2-1.058,1.254-1.949S594.922,444.258,593.98,442.922Z" transform="translate(-532.686 -167.457)" fill="#d64c47" fill-rule="evenodd"></path><rect id="Rectangle_1963" data-name="Rectangle 1963" width="28.317" height="2.895" rx="0.878" transform="translate(34.676 282.536)" fill="#fff"></rect><path id="Path_53231" data-name="Path 53231" d="M545.715,209.654a6.765,6.765,0,0,1-1.744-4.5,15.571,15.571,0,0,0-.321-5.6c-.734-2.524-1.561-1.7-1.79-.185a22.55,22.55,0,0,1-.918,3.443s-3.855-3.212-5.324-4.68-3.028-1.331-2.936-.139.551,1.193.091,1.376a.97.97,0,0,0-.689,1.286l.184.826s-1.01.138-1.055.918a3.691,3.691,0,0,0,.643,1.79s-1.148.6-.918,1.147a21.685,21.685,0,0,0,4.772,4.773c1.882,1.238,4.956,2.752,5.873,3.945S545.715,209.654,545.715,209.654Z" transform="translate(-530.908 -155.841)" fill="#f5ac83" fill-rule="evenodd"></path><path id="Path_53232" data-name="Path 53232" d="M607.343,281.914c-1.825-.463-3.5-.946-4.1,1.352a386.669,386.669,0,0,0-12.227,70.211c-.671,10.139,8.009,12.57,11.4,10.768,10.153-5.406,30.56-69.6,30.613-69.964C634.495,284.065,607.343,281.914,607.343,281.914Z" transform="translate(-533.768 -159.862)" fill="#00000f" fill-rule="evenodd"></path><path id="Path_53233" data-name="Path 53233" d="M615.848,285.886c-1.878.13-3.619.193-3.478,2.565a386.747,386.747,0,0,0,10.26,70.525c2.521,9.844,11.527,9.45,14.184,6.68,7.963-8.3,7.351-75.653,7.287-76.018C642.319,279.471,615.848,285.886,615.848,285.886Z" transform="translate(-534.787 -159.975)" fill="#0d1431" fill-rule="evenodd"></path><path id="Path_53234" data-name="Path 53234" d="M590.1,362.054c-.574,17.306.323,54.624-4.6,75.43,1.487,1.809,6.25,3.134,8.349,1.244,1.85-1.664,11.583-49.362,13.489-75.891,0,0,.636-9.468-2.849-12.777C601.083,346.819,590.769,347.087,590.1,362.054Z" transform="translate(-533.508 -163.046)" fill="#00000f" fill-rule="evenodd"></path><path id="Path_53235" data-name="Path 53235" d="M624.21,367.5c4.6,15.77,16.068,48.243,18.777,69.723.8,6.364,8.057,1.924,8.274,1.545,1.238-2.157-3.97-50.093-10.426-75.9,0,0-2.346-9.193-6.688-11.255C629.9,349.6,620.181,353.073,624.21,367.5Z" transform="translate(-535.305 -163.175)" fill="#0d1431" fill-rule="evenodd"></path><path id="Path_53236" data-name="Path 53236" d="M643.672,286.222c-5.843,13.936-39.755,12.1-42.711,6.326l0,0h0c-.99-1.936-.417-4.807.031-7.373,5.723-32.879-8.448-72.825,14.549-84.161l3.152-1.553a7.257,7.257,0,0,0-.5-3.916c2.583-.455,4.824,3.236,7.591,3.35l2.656-1.009c18.515,9.775,8.713,35.463,11.591,58.962C641.272,267.034,646.325,279.9,643.672,286.222Z" transform="translate(-534.218 -155.766)" fill="#fcc100" fill-rule="evenodd"></path><path id="Path_53237" data-name="Path 53237" d="M617.967,231.342c-15.373,3.61-33.329,8.4-36.764,7.645-4.43-.97-35.011-17.16-40.458-24.021-.09-.111,3.507-4.63,3.981-5.246.9-1.168.222-1.929,1.04-.63s30.025,11.83,35.6,14.483,26.248-10.6,30.265-12.138C630.22,204.313,640.716,226,617.967,231.342Z" transform="translate(-531.376 -156.381)" fill="#fcc100" fill-rule="evenodd"></path><path id="Path_53238" data-name="Path 53238" d="M595.331,167.349l-1.1,6.657s5.449,16.724,8.228,19.565,5.066,3.827,8.982,2.326,2.7-7.88,2.675-9.812S608.484,167.358,595.331,167.349Z" transform="translate(-533.923 -154.425)" fill="#f5ac83" fill-rule="evenodd"></path><path id="Path_53239" data-name="Path 53239" d="M611.028,188.537l-3.822,2.367s6.6,12.368,7.412,12.716,14.3-5.831,13-7.543S624.7,192.954,623.74,191s-1.9-4.676-1.9-4.676Z" transform="translate(-534.541 -155.329)" fill="#f5ac83" fill-rule="evenodd"></path><path id="Path_53240" data-name="Path 53240" d="M613.588,202.231a1.849,1.849,0,0,0-.391,1.41c.115.477.383,1.8.55,2.631.085.426.146.727.146.727s1.1.885,4.73-.945,10.179-6.015,10.555-6.732-1.452-3.744-1.452-3.744S618.623,200.755,613.588,202.231Z" transform="translate(-534.825 -155.77)" fill="#fff" fill-rule="evenodd"></path><path id="Path_53241" data-name="Path 53241" d="M594.02,173.36s1.771-4.009,4.841-1.167,2.212,8.638,2.609,9.3.743-3.793,2.994-3.625,1.231,5.847.945,7.971,2.959,4.262,5.237,5.491,11.229-.841,12.27-1.879,4.556-16.158.469-26.526-14.821-10.961-21.267-6.537c-5.688,3.9-5.846-1.37-10.37,3.072C587.824,163.311,590.856,171.08,594.02,173.36Z" transform="translate(-533.717 -153.779)" fill="#070725" fill-rule="evenodd"></path><path id="Path_53242" data-name="Path 53242" d="M594.027,172.681a.217.217,0,0,1-.148.408c-.017-.008-5.947-2.121-5.4-9.856a.217.217,0,0,1,.433.03C588.388,170.672,594.01,172.676,594.027,172.681Z" transform="translate(-533.648 -154.22)" fill="#070725" fill-rule="evenodd"></path><path id="Path_53243" data-name="Path 53243" d="M607.418,156.192a.216.216,0,1,1,.311.3c-.012.012-4.351,4.575-11.2.935a.216.216,0,0,1,.2-.382C603.291,160.53,607.406,156.2,607.418,156.192Z" transform="translate(-534.028 -153.891)" fill="#070725" fill-rule="evenodd"></path><path id="Path_53244" data-name="Path 53244" d="M594.339,171.236s-.3,6.84-.246,8.1,1.119,2.123,1.4,3.862-.124,5.372-.042,6.28,2.135.407,2.672.9c.06.055,4.423,5.636,4.471,5.756,1.583,3.824,5.376.816,7.43-.344l-6-7.194-5.288-20.8C596.577,168.573,594.852,169.687,594.339,171.236Z" transform="translate(-533.917 -154.447)" fill="#f5ac83" fill-rule="evenodd"></path></g><g id="Group_59918" data-name="Group 59918" transform="translate(236.257 159.614)"><path id="Path_53245" data-name="Path 53245" d="M349.806,298.808c.143,3.523.516,4.7,1.975,6.07,2.031,1.906-.978,3.667-.6,5.7.142.8,1.21.106,1.923-.464s-.8,1.746.2,1.371a5.371,5.371,0,0,0,1.781-1.334s-.321,1.744.338,1.512c3.1-1.1,1.87-9.152.552-11.11-.107-.178-3.579-4.63-5.324-5.77-1.051-.677-.749,1.709-.749,1.709Z" transform="translate(-251.485 -171.741)" fill="#ed7c67" fill-rule="evenodd"></path><path id="Path_53246" data-name="Path 53246" d="M350.554,292.338c5.271,6.963,6.589,6.214,6.392,11.112-.036,1.282-.036,2.19-.018,2.831.07,3.01-2.583.889-2.421-3.206a7.054,7.054,0,0,1-3.4-5.752c-.178-4.042-.551-4.986-.551-4.986Z" transform="translate(-251.52 -171.63)" fill="#fcb187" fill-rule="evenodd"></path><path id="Path_53247" data-name="Path 53247" d="M409.517,187.646a21.438,21.438,0,1,0,8.761,13.871,21.334,21.334,0,0,0-8.761-13.871Z" transform="translate(-252.719 -166.458)" fill="#b4c5e6"></path><path id="Path_53248" data-name="Path 53248" d="M400.991,199.073l7.919-.028a1.179,1.179,0,0,1,.7,2.137l-6.434,4.65,2.46,7.515a1.172,1.172,0,0,1-.4,1.326,1.228,1.228,0,0,1-1.409,0L397.448,210l-6.408,4.678a1.226,1.226,0,0,1-1.408,0,1.171,1.171,0,0,1-.406-1.326l2.462-7.515-6.437-4.65a1.239,1.239,0,0,1-.43-1.326,1.19,1.19,0,0,1,1.136-.811l7.922.028,2.432-7.544a1.18,1.18,0,0,1,2.242,0Z" transform="translate(-253.15 -166.791)" fill="#fcc100" fill-rule="evenodd"></path><path id="Path_53249" data-name="Path 53249" d="M381.788,219.851h32.658a21.411,21.411,0,0,1-29.416,4.54,22.146,22.146,0,0,1-4.524-4.309,3.8,3.8,0,0,1,1.282-.231Z" transform="translate(-252.947 -168.178)" fill="#f5c890" fill-rule="evenodd"></path><path id="Path_53250" data-name="Path 53250" d="M336.79,203.2a11.715,11.715,0,0,0,1.906,13.729c10.239,11.165,13.2,30.467-5.431,25.676-18.608-4.771-16.133-23.7-14.477-26.816s.464-14.8,4.364-15.419c3.881-.625,13.639,2.83,13.639,2.83Z" transform="translate(-249.954 -167.247)" fill="#070725" fill-rule="evenodd"></path><path id="Path_53251" data-name="Path 53251" d="M291.254,438.716l-.979.854s1.21,9.812.5,13.462h2.049l1.5-10.469Z" transform="translate(-248.65 -178.6)" fill="#070725" fill-rule="evenodd"></path><path id="Path_53252" data-name="Path 53252" d="M248.663,432.584l-.979,1.192s1.211,13.82.516,18.964h2.03l1.5-14.743Z" transform="translate(-246.622 -178.308)" fill="#070725" fill-rule="evenodd"></path><path id="Path_53253" data-name="Path 53253" d="M311.807,329.313s-12.731,29.06-14.922,33.138c-2.209,4.078-21.51,33.3-28.117,47.739-6.588,14.442-6.909,14.21-6.837,18.216a61.56,61.56,0,0,0,1.656,10.345c.071.464.944,5.165.32,5.326-.641.159-6.285-5.611-6.285-5.611s-2.992-3.9-3.544-4.914c-.534-1.014-3.882-3.63-3.882-3.63l-2.475-5.5a15.125,15.125,0,0,0,7.444-6.356c2.9-4.878,24.2-55.77,26.567-59.385,2.35-3.615,9.971-14.209,12.25-18.679,2.279-4.488,1.959-20.193,1.959-20.193Z" transform="translate(-246.623 -172.938)" fill="#ed7c67" fill-rule="evenodd"></path><path id="Path_53254" data-name="Path 53254" d="M307.7,322.823s-3.455,27.171-3.776,30.163c-.3,2.974-5.5,66.58-4.861,70.034.624,3.453,5.343,14.993,8.4,17.912,3.063,2.9-1.585,3.525-2.67,3.6-1.1.09-13.124-12.784-13.587-13.425a2.564,2.564,0,0,1-.481-1.409s2.119-7.459,2.048-8.706c-.07-1.263-3.133-49.627-2.51-54.507.624-4.859,1.567-13.336,1.728-15.864.16-2.512-1.265-32.978-.944-34.865.321-1.87,16.65,7.069,16.65,7.069Z" transform="translate(-248.646 -172.733)" fill="#fcb187" fill-rule="evenodd"></path><path id="Path_53255" data-name="Path 53255" d="M323.041,262.252l-2.921,7.691s1.033,2.831.392,8.8c-.623,5.965-4.541,40.991-2.35,59.83,0,0-27.635,13.817-54.025-11.148,0,0,9.116-11,12.874-25.285,3.774-14.3,14.3-41.15,25.446-45s20.584,5.111,20.584,5.111Z" transform="translate(-247.405 -169.908)" fill="#0d1431" fill-rule="evenodd"></path><path id="Path_53256" data-name="Path 53256" d="M328.156,224.207s-5,5.182-5.876,10.489c-.872,5.289,4.844,33.991,5.074,35.631.25,1.619,19.623,27.207,19.623,27.207l4.238-6.463s-15.723-22.1-16.31-25.107.25-22.562.25-22.562l-.712-13.55Z" transform="translate(-250.17 -168.386)" fill="#b72e2e" fill-rule="evenodd"></path><path id="Path_53257" data-name="Path 53257" d="M326.508,198.557l1.05,6.517s-4.13,6.286-2.456,11.413-10.329-2.92-13.623-6.641-1.941-5.645-1.941-5.645,5.734-4.986,7.07-10.382c1.352-5.377,9.9,4.737,9.9,4.737Z" transform="translate(-249.554 -166.864)" fill="#fff" stroke="#1e1f31" stroke-miterlimit="10" stroke-width="0.567" fill-rule="evenodd"></path><path id="Path_53258" data-name="Path 53258" d="M330.775,214.882c-.071-.624-.143-4.63-.143-4.63s.623-4.4,2.51-5.183-4.986-4.4-4.986-4.4-6.873-1.248-7.639-.339c-.766.89-1.656,5.235-1.656,5.235s.641,6.98,1.746,7.123c1.122.142,10.168,2.19,10.168,2.19Z" transform="translate(-250.011 -167.233)" fill="#ed7c67" fill-rule="evenodd"></path><path id="Path_53259" data-name="Path 53259" d="M337.461,176.76a7.684,7.684,0,0,1,3.65,4.986c.659,3.24.053,8.369.659,10.666.836,3.151,1.71,3.615,1.531,4.238-.16.551-1.05.445-2.03,1.014-.552.339-.57,1.781-.749,2.387-.765,2.493.25,5.662-6.589,4.9a25.72,25.72,0,0,1-13.5-5.787c-3.687-3.027-4.434-13.337-1.317-16.2,3.1-2.867,10.008-10.809,18.341-6.2Z" transform="translate(-249.931 -166.059)" fill="#fcb187" fill-rule="evenodd"></path><path id="Path_53260" data-name="Path 53260" d="M317.929,205.847s-12.607,9.563-14.263,17.807c-1.673,8.245,3.366,22.454-3.063,31.873a8.971,8.971,0,0,0-1.335,1.888c-.036.392,10.435,14.53,23.167,13.747a1.246,1.246,0,0,0,.5-.838c.052-.5,8.564-18.161,11.075-21.313,2.51-3.134,4.629-8.013,4.951-10.524s-7.1-13.626-7.884-16.938a105.824,105.824,0,0,1-1.376-11.017,14.55,14.55,0,0,1-11.77-4.684Z" transform="translate(-249.078 -167.511)" fill="#db4a46" fill-rule="evenodd"></path><path id="Path_53261" data-name="Path 53261" d="M330.549,210.631a14.018,14.018,0,0,1-9.455-2.69,10.936,10.936,0,0,1-1.55.268c-.48-.053-6.831,4.82,3.175,7.527,6.624,1.781,7.8,2.247,8.333,1.071Z" transform="translate(-249.928 -167.611)" fill="#fff" fill-rule="evenodd"></path><path id="Path_53262" data-name="Path 53262" d="M339.634,259.789s-14.655-28.9-16.738-32.587c-2.1-3.668-7.5-5.074-10.311-3.2-2.83,1.87-1.228,11.147,3.758,18.5s17.967,23.47,19.3,24,3.311.178,3.917-.942c.606-1.1.694-4.7.071-5.77Z" transform="translate(-249.646 -168.336)" fill="#b72e2e" fill-rule="evenodd"></path><path id="Path_53263" data-name="Path 53263" d="M387.561,225.685l-9.793,18.126a1.391,1.391,0,1,0,2.44,1.336l9.883-18.288a8.574,8.574,0,0,1-2.53-1.174Z" transform="translate(-252.808 -168.456)" fill="#1e1f31"></path><path id="Path_53264" data-name="Path 53264" d="M368.6,241.2c-6.392,3.829-29.221,17.078-30.93,18.144-1.976,1.229-4.185,5.486-1.192,7.8s8.547-.7,11.252-2.707c2.351-1.728,17.79-14.85,22.367-18.7a6.229,6.229,0,0,1-1.5-4.54Z" transform="translate(-250.78 -169.195)" fill="#b72e2e" fill-rule="evenodd"></path><path id="Path_53265" data-name="Path 53265" d="M386.623,235.833a13,13,0,0,0-1.53-3.614,2.748,2.748,0,0,0-3.133-1.247c-2.083.3-2.653.322-3.561.89s-5.664,7.159-6.483,7.835c-.106.089-.694.445-1.637,1.015a6.229,6.229,0,0,0,1.5,4.54c.73-.6,1.191-.98,1.264-1.05.606-.428,3.97-.624,4.629-.908.642-.286,2.137-3.4,2.8-3.847.676-.427,2.118.694,1.958,1.193,0,0,.98-.374,1.229-.8a4.069,4.069,0,0,0,.356-1.192,3.479,3.479,0,0,0,1.069-.374,2.726,2.726,0,0,0,.3-.89,3.678,3.678,0,0,0,1.245-1.55Z" transform="translate(-252.459 -168.705)" fill="#fcb187" fill-rule="evenodd"></path><path id="Path_53266" data-name="Path 53266" d="M339.668,181.138s2.8-7.906-1.123-10.79c-4.309-3.17-22.026-9.366-22.543.979,0,0-5.7-.107-7.3,4.576s.909,9.936-6.231,14.388-19.018,16.222-14.068,28.349c4.932,12.126,20.673,15.474,30.111,8.583,9.437-6.91,7.763-12.964,7.425-16.56-.356-3.58,2.707-6.963,6.126-9.545,3.419-2.6,3.882-6.036,1.55-9.473-2.35-3.454,1.3-9.117,6.054-10.506Z" transform="translate(-248.505 -165.595)" fill="#070725" fill-rule="evenodd"></path><path id="Path_53267" data-name="Path 53267" d="M263.532,443.981a10.3,10.3,0,0,1,2.048.572c.694.337,4.9,3.934,5.378,4.308.462.356,1.833,3.739-1.817,3.739h-6.588c-1.335,0-5.307-5.02-6.749-7.034-1.461-2.03-8.4-10.807-8.8-11.4s-1-4.664.659-4.524c0,0,12.553,15.6,12.821,15.9a3.562,3.562,0,0,0,1.923.836c1.157.232,1.122-.944,1.122-2.4Z" transform="translate(-246.569 -178.168)" fill="#1f223f" fill-rule="evenodd"></path><path id="Path_53268" data-name="Path 53268" d="M306.76,445.861a9.066,9.066,0,0,1,2.065.144c.694.2,4.9,2.956,5.378,3.223.464.285,1.923,3.614-1.815,3.614h-8.9c-1.815,0-2.991-2.12-4.433-3.847-1.461-1.726-8.4-9.116-8.8-9.615-.392-.517-1-4.469.659-4.664,0,0,12.552,13.087,12.82,13.317a2.89,2.89,0,0,0,1.924.446c1.157,0,1.1-1.156,1.1-2.618Z" transform="translate(-248.628 -178.41)" fill="#1f223f" fill-rule="evenodd"></path><path id="Path_53269" data-name="Path 53269" d="M410.542,185.964a23.382,23.382,0,1,0,9.545,15.135,23.3,23.3,0,0,0-9.545-15.135ZM393.607,185a20.358,20.358,0,1,1-13.176,8.315A20.234,20.234,0,0,1,393.607,185Z" transform="translate(-252.622 -166.361)" fill="#1e1f31" fill-rule="evenodd"></path></g></g></svg>