<?xml version="1.0" encoding="UTF-8"?> <svg xmlns="http://www.w3.org/2000/svg" width="57.794" height="57.144" viewBox="0 0 57.794 57.144"><g id="Group_3560" data-name="Group 3560" transform="translate(-837.206 -2413.856)"><circle id="Ellipse_112" data-name="Ellipse 112" cx="27" cy="27" r="27" transform="translate(841 2417)" fill="#fed300"></circle><path id="Call_log-01" data-name="Call log-01" d="M164.331,114.407A18.723,18.723,0,0,0,134.7,99.177a32.013,32.013,0,0,0-1.574-4.916.724.724,0,0,0-.792-.434c-.282.049-6.9,1.234-9.969,5.639a.708.708,0,0,0-.112.26c-.039.174-.913,4.343.568,12.1a42.076,42.076,0,0,0,9.7,19.393c5.345,5.829,9.182,7.634,9.342,7.71a1.367,1.367,0,0,0,.593.073c5.236,0,9.969-4.411,10.173-4.606h0a.736.736,0,0,0,.13-.894c-.044-.068-.364-.621-.913-1.457a18.775,18.775,0,0,0,12.486-17.634Zm-21.861,23.134h-.112c-.694-.355-4.173-2.288-8.744-7.287h0a40.873,40.873,0,0,1-9.363-18.7c-1.277-6.67-.733-10.615-.6-11.377,2.256-3.109,6.767-4.411,8.356-4.785a26.339,26.339,0,0,1,1.87,9.23h0a18.925,18.925,0,0,1-4.9,2.492.734.734,0,0,0-.486.743s.034.417.135,1.156h0a34.129,34.129,0,0,0,9.636,19.248,7.821,7.821,0,0,0,.84.781.724.724,0,0,0,.884.058,18.8,18.8,0,0,1,4.936-2.429,26.563,26.563,0,0,1,6.267,7.027c-1.239,1.064-4.926,3.843-8.73,3.843Zm8.5-6.719a23.419,23.419,0,0,0-5.514-5.529.735.735,0,0,0-.559-.107,18.131,18.131,0,0,0-5.235,2.392c-.107-.1-.228-.219-.37-.364a32.631,32.631,0,0,1-9.23-18.422,3.382,3.382,0,0,0-.068-.51,17.905,17.905,0,0,0,5.062-2.754.71.71,0,0,0,.252-.51,18.588,18.588,0,0,0-.3-4.275,17.275,17.275,0,1,1,15.962,30.077Zm-1.371-18v-4.479a.729.729,0,0,0-.728-.729h-8.352V105.63a.729.729,0,0,0-1.175-.578l-6.315,4.892h0a.708.708,0,0,0-.282.568.727.727,0,0,0,.272.579l6.315,5.023h0a.731.731,0,0,0,1.181-.573v-1.987h8.356a.729.729,0,0,0,.728-.729Zm-1.457-.729h-8.351a.729.729,0,0,0-.729.729v1.2l-4.411-3.5,4.411-3.4v1.22a.729.729,0,0,0,.729.729h8.351Zm10.032,6.743-6.315-5.023a.721.721,0,0,0-.767-.087.73.73,0,0,0-.413.66v2.021h-8.361a.729.729,0,0,0-.729.729v4.484a.73.73,0,0,0,.729.729h8.356v1.987h0a.718.718,0,0,0,.409.651.671.671,0,0,0,.32.078.731.731,0,0,0,.447-.155l6.315-4.888a.723.723,0,0,0,.282-.573.734.734,0,0,0-.272-.612Zm-6.043,3.991V121.6a.729.729,0,0,0-.729-.729h-8.356v-3.01H151.4a.729.729,0,0,0,.729-.729v-1.215l4.411,3.507Z" transform="translate(715.247 2320.04)"></path></g></svg> 