<?xml version="1.0" encoding="UTF-8"?> <svg xmlns="http://www.w3.org/2000/svg" width="59.702" height="58.207" viewBox="0 0 59.702 58.207"><g id="Group_3561" data-name="Group 3561" transform="translate(-1243.298 -2412.793)"><circle id="Ellipse_111" data-name="Ellipse 111" cx="27" cy="27" r="27" transform="translate(1249 2417)" fill="#fed300"></circle><g id="Increased_sales_volume-01" data-name="Increased sales volume-01" transform="translate(1117.298 2291.593)"><path id="Path_7583" data-name="Path 7583" d="M126.841,552.382h38.815a.841.841,0,0,0,0-1.682H126.841a.841.841,0,0,0,0,1.682Z" transform="translate(0 -390.667)"></path><path id="Path_7584" data-name="Path 7584" d="M154.841,134.708a.841.841,0,0,0,.6-.244l7-7.007,5.307,5.316a.862.862,0,0,0,1.2,0l6.193-6.193,6.148,5.38a.842.842,0,0,0,1.157-.036l7.839-7.839v3.02a.841.841,0,1,0,1.682,0v-5.063a.845.845,0,0,0-.841-.841h-5.063a.841.841,0,1,0,0,1.682h3.02L181.8,130.16l-6.148-5.38a.842.842,0,0,0-1.157.036l-6.148,6.157-5.307-5.316a.862.862,0,0,0-1.2,0l-7.595,7.595a.863.863,0,0,0,0,1.2.814.814,0,0,0,.6.253Z" transform="translate(-25.468 0)"></path><path id="Path_7585" data-name="Path 7585" d="M527.3,243.441v25.316h1.691V243.441a.845.845,0,0,0-1.691,0Z" transform="translate(-365.017 -110.424)"></path><path id="Path_7586" data-name="Path 7586" d="M304.141,298.6a.845.845,0,0,0-.841.841v20.253h1.691V299.441a.847.847,0,0,0-.85-.841Z" transform="translate(-161.27 -161.36)"></path><path id="Path_7587" data-name="Path 7587" d="M453.541,298.6a.845.845,0,0,0-.841.841v20.253h1.691V299.441a.859.859,0,0,0-.85-.841Z" transform="translate(-297.162 -161.36)"></path><path id="Path_7588" data-name="Path 7588" d="M154.841,298.6a.845.845,0,0,0-.841.841v20.253h1.691V299.441a.859.859,0,0,0-.85-.841Z" transform="translate(-25.468 -161.36)"></path><path id="Path_7589" data-name="Path 7589" d="M228.6,243.441v25.316h1.691V243.441a.845.845,0,0,0-1.691,0Z" transform="translate(-93.324 -110.424)"></path><path id="Path_7590" data-name="Path 7590" d="M378,243.441v25.316h1.691V243.441a.845.845,0,0,0-1.691,0Z" transform="translate(-229.216 -110.424)"></path></g></g></svg> 