<?xml version="1.0" encoding="UTF-8"?> <svg xmlns="http://www.w3.org/2000/svg" xmlns:xlink="http://www.w3.org/1999/xlink" width="180" height="180" viewBox="0 0 180 180"><defs><filter id="Ellipse_115" x="0" y="0" width="180" height="180"><feOffset></feOffset><feGaussianBlur stdDeviation="10" result="blur"></feGaussianBlur><feFlood flood-color="#fed300" flood-opacity="0.4"></feFlood><feComposite operator="in" in2="blur"></feComposite><feComposite in="SourceGraphic"></feComposite></filter></defs><g id="Group_4171" data-name="Group 4171" transform="translate(-870 -3423)"><g transform="matrix(1, 0, 0, 1, 870, 3423)" filter="url(#Ellipse_115)"><circle id="Ellipse_115-2" data-name="Ellipse 115" cx="60" cy="60" r="60" transform="translate(30 30)" fill="#fed300"></circle></g><path id="Campaign_Type" data-name="Campaign Type" d="M702.631,580.029c10.8.971,16.433,3.673,24.8,10.22V548.589c-8.367,6.549-14.009,9.249-24.8,10.22Zm-12.394-20.147h8.932v18.723h-8.932Zm46.693-15.633-3.749,6.5a2.371,2.371,0,0,0,4.107,2.371l3.752-6.5a2.372,2.372,0,0,0-4.109-2.373Zm5.219,45.647-3.752-6.5a2.371,2.371,0,0,0-4.106,2.373l3.751,6.5A2.371,2.371,0,0,0,742.149,589.9Zm8.544-10.75-6.5-3.751a2.371,2.371,0,0,0-2.371,4.107l6.5,3.751A2.372,2.372,0,0,0,750.693,579.146Zm2.023-13.577h-7.5a2.372,2.372,0,0,0,0,4.744h7.5A2.372,2.372,0,0,0,752.716,565.569Zm-5.032-12.774-6.5,3.751a2.373,2.373,0,0,0,2.374,4.109l6.5-3.751A2.372,2.372,0,0,0,747.684,552.795Zm-18.524,6.452c13.38,0,13.38,20.343,0,20.343Zm-41.946,26.665,4.959,16.143a1.294,1.294,0,0,0,1.657.759l9.094-2.792a1.3,1.3,0,0,0,.948-1.561L700,585.82a3.73,3.73,0,0,1-.824.091H687.214Zm-10-8.739h6.272V561.668H677.21Zm9.74,5.3h12.217v-2.144H688.519V558.165H699.2v-1.8H686.95Z" transform="translate(245.86 2940.034)" fill="none" stroke="#000" stroke-width="2" fill-rule="evenodd"></path></g></svg> 