<?xml version="1.0" encoding="UTF-8"?> <svg xmlns="http://www.w3.org/2000/svg" xmlns:xlink="http://www.w3.org/1999/xlink" width="180" height="180" viewBox="0 0 180 180"><defs><filter id="Ellipse_116" x="0" y="0" width="180" height="180"><feOffset></feOffset><feGaussianBlur stdDeviation="10" result="blur"></feGaussianBlur><feFlood flood-color="#fed300" flood-opacity="0.4"></feFlood><feComposite operator="in" in2="blur"></feComposite><feComposite in="SourceGraphic"></feComposite></filter></defs><g id="Group_4172" data-name="Group 4172" transform="translate(-1278 -3423)"><g transform="matrix(1, 0, 0, 1, 1278, 3423)" filter="url(#Ellipse_116)"><circle id="Ellipse_116-2" data-name="Ellipse 116" cx="60" cy="60" r="60" transform="translate(30 30)" fill="#fed300"></circle></g><g id="Upload_audio" data-name="Upload audio" transform="translate(609.347 3017.771)"><path id="Path_7115" data-name="Path 7115" d="M903.613,852.693c-1.382,0-2.5-.561-2.5-1.252v-7.51c0-.691,1.121-1.252,2.5-1.252s2.5.56,2.5,1.252v7.51C906.116,852.133,905,852.693,903.613,852.693Z" transform="translate(-149.967 -324.921)" fill="none" stroke="#000" stroke-width="2"></path><path id="Path_7116" data-name="Path 7116" d="M828.653,952.687h-30.04a2.5,2.5,0,1,1,0-5.007h30.04a2.5,2.5,0,1,1,0,5.007Z" transform="translate(-59.987 -419.908)" fill="none" stroke="#000" stroke-width="2"></path><path id="Path_7117" data-name="Path 7117" d="M848.58,491.935a22.47,22.47,0,0,1-1.86-31.6,22.054,22.054,0,0,1,1.665-1.708,12.517,12.517,0,0,0-17.3,11.568V495.23A12.482,12.482,0,0,0,856,496.384a22.394,22.394,0,0,1-7.427-4.449Z" transform="translate(-89.963 -0.001)" fill="none" stroke="#000" stroke-width="2"></path><path id="Path_7118" data-name="Path 7118" d="M774.884,677.63a22.515,22.515,0,0,1-43.768-7.447,2.5,2.5,0,0,0-5.007,0,27.521,27.521,0,0,0,54.269,6.491,22.429,22.429,0,0,1-5.494.956Z" transform="translate(0 -179.961)" fill="none" stroke="#000" stroke-width="2"></path><path id="Path_7119" data-name="Path 7119" d="M953.633,457.68A17.469,17.469,0,1,0,966.04,462.8,17.523,17.523,0,0,0,953.633,457.68Zm6.779,19.293a2.5,2.5,0,0,1-3.539,0l-.734-.734v3.971a2.5,2.5,0,0,1-5.007,0v-3.971l-.734.734a2.5,2.5,0,1,1-3.539-3.541l5.007-5.006a2.46,2.46,0,0,1,.817-.544,2.516,2.516,0,0,1,1.913,0,2.486,2.486,0,0,1,.815.544l5.007,5.007a2.5,2.5,0,0,1,0,3.54Z" transform="translate(-179.96 0)" fill="none" stroke="#000" stroke-width="2"></path></g></g></svg> 