<?xml version="1.0" encoding="UTF-8"?> <svg xmlns="http://www.w3.org/2000/svg" xmlns:xlink="http://www.w3.org/1999/xlink" version="1.1" id="Layer_1" x="0px" y="0px" viewBox="0 0 55 55" style="enable-background:new 0 0 55 55;" xml:space="preserve"> <style type="text/css"> .st0{fill:#FED300;} </style> <g transform="matrix(1, 0, 0, 1, 1047, 1368)"> <circle id="Ellipse_59-2" class="st0" cx="-1017.3" cy="-1337.6" r="24"></circle> </g> <path id="Path_5000" d="M32.9,19.2c3.2-9.9-4.2-12-4.2-12c-1.8-2-4.2-3.2-6.9-3.5c-0.8,0-1.7,0.2-2.4,0.6c-0.8-0.4-1.7-0.6-2.7-0.6 C14,3.9,11.5,5.1,9.6,7.2c0,0-6.8,2.2-3.5,12c-3.2,7.6,1.4,8.5,1.4,8.5s-1.5,4.1,4.9,5.7C13.2,35,15,36,16.8,36 c0.9,0,1.8-0.2,2.7-0.5c0.9,0.3,1.9,0.5,2.9,0.5c1.9,0.1,3.7-0.9,4.5-2.6c6.5-1.5,4.6-5.7,4.6-5.7S36.2,26.8,32.9,19.2z M13.7,32.7 l-0.3-0.6l-0.6-0.1c-1.5-0.2-2.8-1-3.7-2.1c-0.3-0.5-0.4-1.1-0.2-1.7L8.9,27l-1.1-0.7c-0.5-0.2-0.9-0.5-1.1-0.9 c-0.5-1.8-0.3-3.8,0.6-5.5h2.4c0.4,1.1,1.6,1.7,2.7,1.3c1.1-0.4,1.7-1.6,1.3-2.7c-0.4-1.1-1.6-1.7-2.7-1.3c-0.6,0.2-1.1,0.7-1.3,1.3 H7.3c-2.5-7.9,2.2-9.8,2.7-10l0.3-0.1l0.2-0.2c1.6-1.8,3.8-2.9,6.2-3.1c0.7,0,1.4,0.1,2,0.4v9.4h-2.1v-3.5h-3 c-0.4-1.1-1.6-1.7-2.7-1.3s-1.7,1.6-1.3,2.7c0.4,1.1,1.6,1.7,2.7,1.3c0.6-0.2,1.1-0.7,1.3-1.3h1.5v3.5h3.5V22h-4.9v4.4 c-1.1,0.4-1.7,1.6-1.3,2.7c0.4,1.1,1.6,1.7,2.7,1.3c1.1-0.4,1.7-1.6,1.3-2.7c-0.2-0.6-0.7-1.1-1.3-1.3v-3h3.5v10.8 c-0.6,0.2-1.3,0.3-1.9,0.3C15.5,34.6,14.2,33.9,13.7,32.7L13.7,32.7z M30.1,28L30.1,28L30.1,28l0.1,0.3c0.2,0.5,0.2,1.2-0.1,1.7 c-0.9,1.1-2.1,1.9-3.6,2l-0.6,0.1l-0.3,0.6c-0.6,1.2-1.9,2-3.3,1.9c-0.7,0-1.5-0.1-2.2-0.4v-5.1h3c0.4,1.1,1.6,1.7,2.7,1.3 c1.1-0.4,1.7-1.6,1.3-2.7c-0.4-1.1-1.6-1.7-2.7-1.3c-0.6,0.2-1.1,0.7-1.3,1.3h-3V12.8h5.1c0.4,1.1,1.6,1.7,2.7,1.3 c1.1-0.4,1.7-1.6,1.3-2.7c-0.4-1.1-1.6-1.7-2.7-1.3c-0.6,0.2-1.1,0.7-1.3,1.3h-5.1V5.5c0.5-0.3,1-0.4,1.6-0.4 c2.3,0.3,4.4,1.4,5.9,3.1L28,8.4l0.3,0.1c1.4,0.5,2.6,1.5,3.3,2.8c1,2.4,1,5,0,7.4l-0.2,0.5l0.2,0.5c1,1.7,1.2,3.7,0.7,5.6 c-0.2,0.4-0.5,0.7-0.8,0.9v-3.4h-6.4v-2.3c1.1-0.4,1.7-1.6,1.3-2.7c-0.4-1.1-1.6-1.7-2.7-1.3c-1.1,0.4-1.7,1.6-1.3,2.7 c0.2,0.6,0.7,1.1,1.3,1.3v3.7h6.4L30.1,28L30.1,28z"></path> </svg> 