<?xml version="1.0" encoding="UTF-8"?> <svg xmlns="http://www.w3.org/2000/svg" xmlns:xlink="http://www.w3.org/1999/xlink" version="1.1" id="Layer_1" x="0px" y="0px" viewBox="0 0 55 55" style="enable-background:new 0 0 55 55;" xml:space="preserve"> <style type="text/css"> .st0{fill:#FED300;} </style> <g transform="matrix(1, 0, 0, 1, 1047, 1368)"> <circle id="Ellipse_59-2" class="st0" cx="-1016.6" cy="-1337.6" r="24"></circle> </g> <path id="Path_4967" d="M29.6,7.9h-7.4c-0.7,0-1.2,0.5-1.2,1.2v3.7c0,0.7,0.5,1.2,1.2,1.2c0,0,0,0,0,0h7.4c0.7,0,1.2-0.5,1.2-1.2 V9.2C30.8,8.5,30.3,7.9,29.6,7.9z M22.2,12.9l0-3.7h7.4l0,3.7L22.2,12.9z"></path> <path id="Path_4968" d="M23.4,16.2v1c0,0.4-0.3,0.7-0.7,0.7h-1c-0.4,0-0.7-0.3-0.7-0.7v-1c0-0.4,0.3-0.7,0.7-0.7h1 C23,15.5,23.3,15.8,23.4,16.2C23.4,16.1,23.4,16.1,23.4,16.2L23.4,16.2z"></path> <path id="Path_4969" d="M26.9,16.2v1c0,0.4-0.3,0.7-0.7,0.7h-1c-0.4,0-0.7-0.3-0.7-0.7v-1c0-0.4,0.3-0.7,0.7-0.7c0,0,0,0,0,0h1 C26.6,15.5,26.9,15.8,26.9,16.2C26.9,16.1,26.9,16.1,26.9,16.2L26.9,16.2z"></path> <path id="Path_4970" d="M30.5,16.2v1c0,0.4-0.3,0.7-0.7,0.7h-1c-0.4,0-0.7-0.3-0.7-0.7l0,0v-1c0-0.4,0.3-0.7,0.7-0.7h1 C30.2,15.5,30.5,15.8,30.5,16.2C30.5,16.1,30.5,16.1,30.5,16.2L30.5,16.2z"></path> <path id="Path_4971" d="M23.4,19.7v1c0,0.4-0.3,0.7-0.7,0.7h-1c-0.4,0-0.7-0.3-0.7-0.7v-1c0-0.4,0.3-0.7,0.7-0.7h1 C23,19,23.3,19.3,23.4,19.7L23.4,19.7z"></path> <path id="Path_4972" d="M27.1,19.7v1.1c0,0.4-0.3,0.7-0.7,0.7h-1.1c-0.4,0-0.7-0.3-0.7-0.7c0,0,0,0,0,0v-1.1c0-0.4,0.3-0.7,0.7-0.7 h1.1C26.8,19,27.1,19.3,27.1,19.7L27.1,19.7z"></path> <path id="Path_4973" d="M30.8,19.7v1.1c0,0.4-0.3,0.7-0.7,0.7h-1.1c-0.4,0-0.7-0.3-0.7-0.7c0,0,0,0,0,0l0,0v-1.1 c0-0.4,0.3-0.7,0.7-0.7h1.1C30.5,19,30.8,19.3,30.8,19.7L30.8,19.7z"></path> <path id="Path_4974" d="M23.4,23.3v1c0,0.4-0.3,0.7-0.7,0.7h-1c-0.4,0-0.7-0.3-0.7-0.7v-1c0-0.4,0.3-0.7,0.7-0.7h1 C23,22.6,23.3,22.9,23.4,23.3L23.4,23.3z"></path> <path id="Path_4975" d="M26.9,23.3v1c0,0.4-0.3,0.7-0.7,0.7h-1c-0.4,0-0.7-0.3-0.7-0.7v-1c0-0.4,0.3-0.7,0.7-0.7c0,0,0,0,0,0h1 C26.6,22.6,26.9,22.9,26.9,23.3C26.9,23.2,26.9,23.2,26.9,23.3L26.9,23.3z"></path> <path id="Path_4976" d="M30.5,23.3v1c0,0.4-0.3,0.7-0.7,0.7h-1c-0.4,0-0.7-0.3-0.7-0.7l0,0v-1c0-0.4,0.3-0.7,0.7-0.7h1 C30.2,22.6,30.5,22.9,30.5,23.3L30.5,23.3z"></path> <path d="M29.6,4.9H19.1c-1,0-1.8,0.8-1.8,1.8l0,0v21.5c0,1,0.8,1.9,1.9,1.9l0,0H21c0.2,2.2-1.5,4.1-3.7,4.3 c-1.7,0.1-3.2-0.8-3.9-2.3c-0.3,0.3-0.6,0.6-0.9,0.9c1.3,2.2,4,3.2,6.5,2.3c2-0.8,3.3-2.7,3.3-4.9v-0.3h7.3c3.1,0,5.6-2.5,5.6-5.6 V10.4C35.2,7.4,32.7,4.9,29.6,4.9z M33.9,24.5c0,2.4-1.9,4.3-4.3,4.3H19.1c-0.3,0-0.6-0.3-0.6-0.6c0,0,0,0,0,0l0,0V6.7 c0-0.3,0.3-0.6,0.6-0.6h10.4c2.4,0,4.3,1.9,4.3,4.3V24.5z"></path> <path d="M7.3,21c0.3,0,0.5,0,0.8,0c0.2,0,0.3,0,0.4,0c0.1-1.5,0.1-2.9,0.1-3.8c0-2.6-0.6-9.7-0.6-10.5c0-0.3,0.3-0.6,0.6-0.6h6.1 c0.3,0,0.6,0.3,0.6,0.6c-0.1,0.8-0.6,7.9-0.6,10.5c0,1.8,0.2,5.6,0.4,8.3c0,0.5,0.1,0.9,0.1,1.3c0.1,0.8,0.1,1.3,0.1,1.5 c0,0.3-0.3,0.6-0.6,0.6l0,0c-0.1,0.4-0.2,0.8-0.3,1.2h0.3c1,0,1.8-0.8,1.8-1.8v0c0,0-0.1-0.7-0.1-1.8c0-0.4-0.1-0.8-0.1-1.2 c-0.2-2.7-0.4-6.3-0.4-8c0-2.6,0.6-10.5,0.6-10.5c0-1-0.8-1.8-1.8-1.8l0,0H8.7c-1,0-1.8,0.8-1.8,1.8l0,0l0,0c0,0,0.6,7.8,0.6,10.5 C7.5,18,7.4,19.4,7.3,21z"></path> <path d="M14,26.6h-0.9c-0.1-0.5-0.3-1.1-0.6-1.5l0.7-0.7c0.1-0.1,0.1-0.3,0-0.4c0,0,0,0,0,0l-1.5-1.5c-0.1-0.1-0.3-0.1-0.4,0 c0,0,0,0,0,0l-0.7,0.7c-0.5-0.3-1-0.5-1.5-0.6v-0.9c0-0.1-0.1-0.3-0.3-0.3H6.8c-0.1,0-0.3,0.1-0.3,0.3v0.9C6,22.7,5.5,23,5,23.2 l-0.7-0.7c-0.1-0.1-0.3-0.1-0.4,0c0,0,0,0,0,0l-1.5,1.5c-0.1,0.1-0.1,0.3,0,0.4c0,0,0,0,0,0l0.7,0.7c-0.3,0.5-0.5,1-0.6,1.5H1.6 c-0.1,0-0.3,0.1-0.3,0.3V29c0,0.1,0.1,0.3,0.3,0.3h0.9c0.1,0.5,0.3,1.1,0.6,1.5l-0.7,0.7c-0.1,0.1-0.1,0.3,0,0.4c0,0,0,0,0,0 l1.5,1.5c0.1,0.1,0.3,0.1,0.4,0c0,0,0,0,0,0L5,32.6c0.5,0.3,1,0.5,1.5,0.6v0.9c0,0.1,0.1,0.3,0.3,0.3h2.1c0.1,0,0.3-0.1,0.3-0.3l0,0 v-0.9c0.5-0.1,1.1-0.3,1.5-0.6l0.7,0.7c0.1,0.1,0.3,0.1,0.4,0c0,0,0,0,0,0l1.5-1.5c0.1-0.1,0.1-0.3,0-0.4c0,0,0,0,0,0l-0.7-0.7 c0.3-0.5,0.5-1,0.6-1.5H14c0.1,0,0.3-0.1,0.3-0.3c0,0,0,0,0,0v-2.1C14.3,26.7,14.2,26.6,14,26.6L14,26.6z M13.8,28.7h-0.9 c-0.1,0-0.2,0.1-0.3,0.2c-0.1,0.6-0.4,1.2-0.7,1.7c-0.1,0.1-0.1,0.2,0,0.3l0.6,0.6l-1.1,1.1l-0.6-0.6c-0.1-0.1-0.2-0.1-0.3,0 c-0.5,0.4-1.1,0.6-1.7,0.7c-0.1,0-0.2,0.1-0.2,0.3v0.9H7V33c0-0.1-0.1-0.2-0.2-0.3c-0.6-0.1-1.2-0.4-1.7-0.7C5,32,4.8,32,4.8,32.1 l-0.6,0.6L3,31.6L3.7,31c0.1-0.1,0.1-0.2,0-0.3c-0.3-0.5-0.6-1.1-0.7-1.7c0-0.1-0.1-0.2-0.3-0.2H1.8v-1.6h0.9c0.1,0,0.2-0.1,0.3-0.2 c0.1-0.6,0.4-1.2,0.7-1.7c0.1-0.1,0.1-0.2,0-0.3L3,24.2l1.1-1.1l0.6,0.6c0.1,0.1,0.2,0.1,0.3,0c0.5-0.4,1.1-0.6,1.7-0.7 C6.9,23,7,22.9,7,22.8v-0.9h1.6v0.9c0,0.1,0.1,0.2,0.2,0.3c0.6,0.1,1.2,0.4,1.7,0.7c0.1,0.1,0.2,0.1,0.3,0l0.6-0.6l1.1,1.1L12,24.9 c-0.1,0.1-0.1,0.2,0,0.3c0.3,0.5,0.6,1.1,0.7,1.7c0,0.1,0.1,0.2,0.3,0.2h0.9L13.8,28.7z"></path> <path d="M7.8,24c-2.2,0-3.9,1.7-3.9,3.9c0,2.2,1.7,3.9,3.9,3.9s3.9-1.7,3.9-3.9c0,0,0,0,0,0C11.7,25.8,10,24,7.8,24z M7.8,31.3 c-1.9,0-3.4-1.5-3.4-3.4c0-1.9,1.5-3.4,3.4-3.4s3.4,1.5,3.4,3.4c0,0,0,0,0,0C11.2,29.8,9.7,31.3,7.8,31.3z"></path> <path d="M9.2,26.1c-0.1-0.1-0.3,0-0.3,0.1c0,0,0,0,0,0L7.5,29l-0.8-0.8c-0.1-0.1-0.3-0.1-0.4,0c-0.1,0.1-0.1,0.3,0,0.4l0,0l1,1 c0,0,0.1,0.1,0.2,0.1c0,0,0,0,0,0c0.1,0,0.2-0.1,0.2-0.1l1.6-3.1C9.4,26.3,9.4,26.2,9.2,26.1C9.2,26.1,9.2,26.1,9.2,26.1L9.2,26.1z"></path> </svg> 