<?xml version="1.0" encoding="UTF-8"?> <svg xmlns="http://www.w3.org/2000/svg" xmlns:xlink="http://www.w3.org/1999/xlink" version="1.1" id="Layer_1" x="0px" y="0px" viewBox="0 0 55 55" style="enable-background:new 0 0 55 55;" xml:space="preserve"> <style type="text/css"> .st0{fill:#FED300;} </style> <g transform="matrix(1, 0, 0, 1, 1047, 1368)"> <circle id="Ellipse_59-2" class="st0" cx="-1016.7" cy="-1337.5" r="24"></circle> </g> <path d="M1.5,8.2v19c0,0.8,0.3,1.6,0.9,2.2C3,30,3.8,30.3,4.6,30.3H34c0.8,0,1.6-0.3,2.2-0.9c0.6-0.6,0.9-1.4,0.9-2.2v-19 c0-0.8-0.3-1.6-0.9-2.2c-0.6-0.6-1.4-0.9-2.2-0.9H4.6C3.8,5.1,3,5.5,2.4,6C1.8,6.6,1.5,7.4,1.5,8.2z M35.8,7.7v20.1 c0,0.6-0.5,1.1-1.1,1.1c0,0,0,0,0,0H3.9c-0.6,0-1.1-0.5-1.1-1.1V7.7c0-0.6,0.5-1.1,1.1-1.1h30.8C35.3,6.6,35.8,7.1,35.8,7.7 C35.8,7.7,35.8,7.7,35.8,7.7z"></path> <path d="M27,34.7c0.6,0,1.1-0.4,1.1-0.8c0-0.4-0.5-0.8-1.1-0.8H11.6c-0.6,0-1.1,0.4-1.1,0.8s0.5,0.8,1.1,0.8H27z"></path> <path d="M16.3,20.9l2.1-1l-5.7-2.1l2.1,5.7l1-2.1l2.2,2.2c0.1,0.1,0.1,0.1,0.2,0.1c0.1,0,0.2,0,0.2-0.1c0.1-0.1,0.1-0.3,0-0.5 c0,0,0,0,0,0L16.3,20.9z M13.8,18.9l3,1.1l-1.3,0.6l-0.6,1.3L13.8,18.9z"></path> <path d="M28,21.8c-0.6-1.2-2.9-2.5-3-2.6c-0.4-0.2-0.8-0.3-1.2-0.2c-0.3,0.1-0.5,0.3-0.6,0.5c-0.3,0.4-0.7,0.9-0.8,0.9 c-0.8,0.5-1.4,0.5-2-0.2l-3.7-3.7c-0.7-0.7-0.7-1.3-0.2-2c0.1-0.1,0.5-0.5,0.9-0.8c0.2-0.1,0.4-0.4,0.5-0.6c0.1-0.4,0-0.8-0.2-1.2 c-0.1-0.1-1.4-2.3-2.6-3c-0.6-0.3-1.4-0.2-1.9,0.3L12.4,10c-1.9,1.9-2,4.3-0.2,6.9c0.1,0.1,0.3,0.2,0.4,0.1c0.1-0.1,0.2-0.3,0.1-0.4 c0,0,0,0,0,0c-1.7-2.3-1.6-4.3,0.1-6l0.8-0.8c0.3-0.3,0.7-0.4,1.1-0.2c1.1,0.6,2.3,2.7,2.3,2.7c0.1,0.3,0.2,0.5,0.1,0.7 c0,0.1-0.1,0.2-0.2,0.3l0,0c-0.3,0.2-0.9,0.8-1.1,1c-0.2,0.3-0.3,0.6-0.4,0.9c-0.3-0.5-0.4-1-0.5-1.6c0-0.2-0.2-0.3-0.4-0.3 c-0.2,0-0.3,0.2-0.3,0.3c0.2,2.2,2,3.7,2,3.8c0,0,0,0,0,0l3.4,3.4c0,0,0,0,0,0c0,0,0,0,0,0.1c0.1,0.1,1.5,1.5,3.7,1.7h0 c0.2,0,0.3-0.1,0.3-0.3c0-0.2-0.1-0.3-0.3-0.4c0,0,0,0,0,0c-0.6-0.1-1.2-0.2-1.8-0.5c0.3-0.1,0.5-0.2,0.7-0.4c0.2-0.1,0.8-0.8,1-1.1 l0,0c0.1-0.1,0.2-0.2,0.3-0.2c0.2-0.1,0.5,0,0.7,0.1c0.6,0.4,2.3,1.5,2.7,2.3c0.2,0.4,0.1,0.8-0.2,1.1l-0.8,0.8 c-1.7,1.7-3.8,1.8-6.1,0.1C20.2,24,20,24,19.9,24.2s-0.1,0.3,0.1,0.5c1.3,0.9,2.5,1.4,3.6,1.4c1.2,0,2.3-0.5,3.3-1.5l0.8-0.8 C28.2,23.2,28.3,22.4,28,21.8L28,21.8z"></path> </svg> 