<?xml version="1.0" encoding="UTF-8"?> <svg xmlns="http://www.w3.org/2000/svg" xmlns:xlink="http://www.w3.org/1999/xlink" version="1.1" id="Layer_1" x="0px" y="0px" viewBox="0 0 88 88" style="enable-background:new 0 0 88 88;" xml:space="preserve"> <style type="text/css"> .st0{fill:#FED300;} </style> <g transform="matrix(1, 0, 0, 1, 1047, 1368)"> <ellipse id="Ellipse_59-2" transform="matrix(0.9239 -0.3827 0.3827 0.9239 433.349 -482.3543)" class="st0" cx="-995.8" cy="-1330.5" rx="36.5" ry="36.5"></ellipse> </g> <path d="M29.3,44.3c-1.9,0-3.4,1.5-3.4,3.4c0,1.9,1.5,3.4,3.4,3.4s3.4-1.5,3.4-3.4c0-0.9-0.4-1.8-1-2.4C31,44.6,30.2,44.3,29.3,44.3 z M29.3,49.1c-0.8,0-1.4-0.6-1.4-1.4s0.6-1.4,1.4-1.4s1.4,0.6,1.4,1.4C30.7,48.4,30.1,49.1,29.3,49.1L29.3,49.1z"></path> <path d="M37.9,44.3c-1.9,0-3.4,1.5-3.4,3.4c0,1.9,1.5,3.4,3.4,3.4s3.4-1.5,3.4-3.4c0-0.9-0.4-1.7-1-2.4 C39.7,44.6,38.8,44.3,37.9,44.3z M37.9,49.1c-0.8,0-1.4-0.6-1.4-1.4s0.6-1.4,1.4-1.4c0.8,0,1.4,0.6,1.4,1.4 C39.4,48.4,38.7,49.1,37.9,49.1L37.9,49.1z"></path> <path d="M29.3,52.9c-1.9,0-3.4,1.5-3.4,3.4s1.5,3.4,3.4,3.4s3.4-1.5,3.4-3.4c0-0.9-0.4-1.8-1-2.4C31,53.3,30.2,52.9,29.3,52.9z M29.3,57.7c-0.8,0-1.4-0.6-1.4-1.4c0-0.8,0.6-1.4,1.4-1.4s1.4,0.6,1.4,1.4l0,0C30.7,57,30.1,57.7,29.3,57.7z"></path> <path d="M41.3,56.3c0-1.9-1.5-3.4-3.4-3.4s-3.4,1.5-3.4,3.4s1.5,3.4,3.4,3.4c0.9,0,1.7-0.4,2.4-1C40.9,58,41.3,57.1,41.3,56.3z M37.9,57.7c-0.8,0-1.4-0.6-1.4-1.4c0-0.8,0.6-1.4,1.4-1.4c0.8,0,1.4,0.6,1.4,1.4C39.4,57,38.7,57.7,37.9,57.7L37.9,57.7z"></path> <path d="M29.3,61.5c-1.9,0-3.4,1.5-3.4,3.4c0,1.9,1.5,3.4,3.4,3.4s3.4-1.5,3.4-3.4c0-0.9-0.4-1.8-1-2.4C31,61.9,30.2,61.5,29.3,61.5 z M29.3,66.3c-0.8,0-1.4-0.6-1.4-1.4c0-0.8,0.6-1.4,1.4-1.4s1.4,0.6,1.4,1.4S30.1,66.3,29.3,66.3L29.3,66.3z"></path> <path d="M36.6,61.8c-1.7,0.7-2.5,2.7-1.8,4.4c0.4,1,1.2,1.7,2.2,1.9c-1.1-2.2-1.3-4.1-0.7-5.7C36.4,62.2,36.5,62,36.6,61.8 L36.6,61.8z"></path> <path d="M62.8,62c0-0.8-0.3-1.6-0.9-2.2c-0.5-0.6-1.3-0.9-2.1-0.9l0,0c-0.5,0-1,0.1-1.4,0.4c-0.1-0.6-0.3-1.1-0.7-1.5 c-0.5-0.6-1.3-1-2.1-1l0,0c-0.4,0-0.8,0.1-1.1,0.2c-0.1-0.6-0.4-1.1-0.8-1.6c-0.5-0.5-1.3-0.9-2-0.9l0,0c-0.5,0-1,0.1-1.4,0.3v-6.4 c0-0.9-0.3-1.9-1-2.6c-0.5-0.5-1.1-0.7-1.8-0.7c-1.7,0-3,1.4-3,3.1l0.1,15.6c-0.8-1.1-1.7-2.1-2.8-2.4l0,0c-0.8-0.3-1.6-0.2-2.3,0.2 c-0.6,0.3-1.1,0.8-1.3,1.4c-0.5,1.4,0,3.5,1.7,6.1l5.4,11.1c0.8,1.4,2.2,2.2,3.8,2.3l0,0l9.3-0.1c1.6-0.1,3-1.2,3.4-2.8 c0.6-3.3,1-6.7,1.1-10C62.9,69.7,62.8,62,62.8,62L62.8,62z M59.8,79.4L59.8,79.4c-0.2,0.7-0.8,1.2-1.5,1.3l-9.4,0.1 c-0.8-0.1-1.6-0.5-2.1-1.3c0,0-5.4-11.2-5.5-11.2c-1.8-2.8-1.7-4-1.6-4.4c0.2-0.4,0.7-0.7,1.2-0.5c1.3,0.5,2.9,3.1,3.5,4.7l0,0 c0.2,0.5,0.8,0.7,1.3,0.5c0.3-0.2,0.5-0.5,0.6-0.8l-0.1-19.4l0,0c0-0.6,0.4-1.2,1.1-1.2c0.6,0,0.8,0.9,0.8,1.4l0.1,19.1l0,0 c0,0.5,0.4,1,1,1c0.5,0,1-0.4,1-1v-9.9c0-0.6,0.8-1.2,1.4-1.2c0.6,0,1.1,0.6,1.1,1.2v10c0,0.5,0.4,1,1,1c0.5,0,1-0.4,1-1v-7.9 c0-0.6,0.5-1.1,1-1.1c0.6,0,0.9,0.6,0.9,1.2v7.8l0,0c0,0.5,0.5,0.9,1,0.9s0.9-0.4,0.9-0.9v-5.6c0-0.6,0.8-1.2,1.4-1.2 c0.6,0,1.1,0.6,1.1,1.2v7.6l0,0C60.8,72.9,60.5,76.2,59.8,79.4L59.8,79.4z"></path> <path d="M37.9,76.9c1.1,0,2.1-0.5,2.8-1.5l-2.5-5.2c-0.1,0-0.1,0-0.2,0c-1.9,0-3.3,1.6-3.3,3.4S36.1,76.8,37.9,76.9L37.9,76.9z M37.9,72.1c0.8,0,1.4,0.6,1.4,1.4c0,0.8-0.6,1.4-1.4,1.4c-0.8,0-1.4-0.6-1.4-1.4C36.5,72.7,37.1,72.1,37.9,72.1L37.9,72.1z"></path> <path d="M22.6,30.1h-5.1c-0.6,0-1,0.5-1,1s0.5,1,1,1h5.1c0.6,0,1-0.5,1-1S23.2,30.1,22.6,30.1z"></path> <path d="M22.6,37.2H12.4c-0.6,0-1,0.5-1,1s0.5,1,1,1h10.2c0.6,0,1-0.5,1-1S23.2,37.2,22.6,37.2z"></path> <path d="M22.6,44.4H7.3c-0.6,0-1,0.5-1,1c0,0.6,0.5,1,1,1l0,0h15.3c0.6,0,1-0.5,1-1C23.6,44.8,23.2,44.4,22.6,44.4z"></path> <path d="M22.6,51.6H3.2c-0.6,0-1,0.5-1,1c0,0.6,0.5,1,1,1h19.4c0.6,0,1-0.5,1-1C23.6,52,23.2,51.6,22.6,51.6z"></path> <path d="M22.6,58.7H9.3c-0.6,0-1,0.5-1,1s0.5,1,1,1h13.3c0.6,0,1-0.5,1-1S23.2,58.7,22.6,58.7z"></path> <path d="M22.6,65.9h-7.2c-0.6,0-1,0.5-1,1c0,0.6,0.5,1,1,1h7.2c0.6,0,1-0.5,1-1C23.6,66.3,23.2,65.9,22.6,65.9z"></path> <path d="M43.5,81.1L43.5,81.1l-0.2-0.4H25.5c-1.1,0-1.9-0.9-1.9-1.9v-5.1h-1.9v5.1c0,2.1,1.7,3.8,3.8,3.8h19.1 C44.2,82.2,43.8,81.7,43.5,81.1C43.5,81.2,43.5,81.2,43.5,81.1z"></path> <path d="M53.1,22.4c-0.7-0.7-1.7-1.1-2.7-1.1H25.5c-2.1,0-3.8,1.7-3.8,3.8v0.5h1.9v-0.5c0-1.1,0.9-1.9,1.9-1.9h4.4l0.1,1.1l0,0 c0.2,1.6,1.5,2.7,3.1,2.7h10.6c1.6,0,2.9-1.2,3.1-2.7l0.1-1.1h3.5c1.1,0,1.9,0.9,1.9,1.9v27.7c0.7,0.1,1.3,0.3,1.9,0.7V25.1 C54.2,24.1,53.8,23.1,53.1,22.4z M44.9,24c-0.1,0.6-0.6,1-1.2,1.1H33.1c-0.6,0-1.1-0.5-1.2-1.1l-0.1-0.9H45L44.9,24z"></path> </svg> 