<?xml version="1.0" encoding="UTF-8"?> <svg xmlns="http://www.w3.org/2000/svg" xmlns:xlink="http://www.w3.org/1999/xlink" version="1.1" id="Layer_1" x="0px" y="0px" viewBox="0 0 88 88" style="enable-background:new 0 0 88 88;" xml:space="preserve"> <style type="text/css"> .st0{fill:#FED300;} </style> <g transform="matrix(1, 0, 0, 1, 1047, 1368)"> <ellipse id="Ellipse_59-2" transform="matrix(0.9239 -0.3827 0.3827 0.9239 432.6344 -484.0005)" class="st0" cx="-1000.3" cy="-1329.5" rx="36.5" ry="36.5"></ellipse> </g> <path d="M31.4,24.4c-0.8,0.4-1.1,1-1.4,1.6c-0.2,0.5-0.3,0.9-0.7,1.3c-0.4,0.4-1,0.9-2.3,1.5s-2.1,0.6-2.6,0.6 c-0.6,0-0.9-0.2-1.4-0.4c-0.6-0.2-1.3-0.4-2.1-0.1c-0.8,0.3-1.6,0.9-2.7,2s-1.7,1.9-2,2.8c-0.3,0.8-0.1,1.5,0.2,2.1 c0.2,0.5,0.4,0.9,0.4,1.4s0,1.4-0.6,2.7c-0.5,1.3-1,1.9-1.4,2.3c-0.4,0.4-0.8,0.5-1.3,0.7s-1.2,0.5-1.6,1.4 c-0.4,0.8-0.5,1.8-0.5,3.3c0,1.6,0.2,2.6,0.6,3.3c0.4,0.8,1,1.1,1.6,1.4c0.5,0.2,0.9,0.3,1.3,0.7c0.4,0.4,0.9,1,1.5,2.3 c0.5,1.3,0.6,2.1,0.6,2.7c0,0.6-0.2,0.9-0.4,1.4c-0.2,0.5-0.4,1.2-0.1,2.1c0.3,0.8,0.9,1.6,2,2.7c1.1,1.1,1.9,1.7,2.7,2 c0.8,0.3,1.5,0.1,2.1-0.2c0.5-0.2,0.9-0.4,1.4-0.4c0.6,0,1.4,0,2.7,0.6c1.3,0.5,1.9,1,2.3,1.4c0.4,0.4,0.5,0.8,0.7,1.3 s0.6,1.2,1.4,1.6c0.8,0.4,1.8,0.5,3.3,0.5c1.6,0,2.6-0.2,3.3-0.6c0.8-0.4,1.2-1.1,1.4-1.6s0.3-0.9,0.7-1.3c0.4-0.4,1-0.9,2.3-1.5 c1.3-0.5,2.1-0.6,2.6-0.6c0.6,0,0.9,0.2,1.4,0.4c0.5,0.2,1.2,0.4,2.1,0.1c0.8-0.3,1.6-0.9,2.7-2c1.1-1.1,1.7-1.9,1.9-2.8 s0.1-1.5-0.2-2.1c-0.2-0.5-0.4-0.9-0.4-1.4c0-0.6,0-1.4,0.6-2.7s1-1.9,1.4-2.3c0.4-0.4,0.8-0.5,1.3-0.7s1.2-0.6,1.6-1.4 c0.4-0.8,0.5-1.8,0.5-3.3c0-1.6-0.2-2.6-0.6-3.3s-1-1.1-1.6-1.4c-0.5-0.2-0.9-0.3-1.3-0.7c-0.4-0.4-0.9-1-1.5-2.3 c-0.5-1.3-0.6-2.1-0.6-2.6s0.2-0.9,0.4-1.4s0.4-1.2,0.1-2.1c-0.3-0.8-0.9-1.6-2-2.7c-1.1-1.1-1.9-1.7-2.7-1.9 c-0.8-0.3-1.5-0.1-2.1,0.2c-0.5,0.2-0.9,0.4-1.4,0.4c-0.6,0-1.4,0-2.7-0.6s-1.9-1-2.3-1.4c-0.4-0.4-0.5-0.8-0.7-1.3 s-0.5-1.2-1.4-1.6c-0.8-0.4-1.8-0.5-3.3-0.5S32.2,24,31.4,24.4L31.4,24.4z M48.4,64.1c-0.3,0.1-0.4,0.1-0.8-0.1 c-0.4-0.2-1.1-0.5-2-0.5c-0.9-0.1-2,0.1-3.5,0.8c-1.5,0.6-2.4,1.3-3,2s-0.8,1.4-1,1.8c-0.2,0.4-0.2,0.5-0.5,0.7s-1,0.3-2.5,0.4 c-1.4,0-2.2-0.2-2.5-0.3s-0.3-0.2-0.5-0.7c-0.2-0.4-0.4-1.1-1-1.8s-1.5-1.4-3-2c-1.5-0.6-2.6-0.8-3.5-0.7c-0.9,0.1-1.6,0.4-2,0.6 s-0.5,0.2-0.8,0.1c-0.3-0.1-1-0.5-2-1.5s-1.4-1.6-1.5-2s-0.1-0.4,0.1-0.8c0.2-0.4,0.5-1.1,0.5-2c0.1-0.9-0.1-2-0.7-3.5s-1.3-2.4-2-3 c-0.7-0.6-1.4-0.8-1.8-1c-0.4-0.2-0.5-0.2-0.7-0.5s-0.3-1-0.4-2.5s0.2-2.2,0.3-2.5c0.2-0.3,0.2-0.3,0.7-0.5s1.1-0.4,1.8-1 c0.7-0.6,1.4-1.5,2-3c0.6-1.5,0.8-2.6,0.7-3.5s-0.4-1.6-0.6-2s-0.2-0.5-0.1-0.8s0.5-1,1.5-2s1.6-1.4,2-1.5c0.3-0.1,0.4-0.1,0.8,0.1 s1.1,0.5,2,0.5s2-0.1,3.5-0.7c1.5-0.6,2.4-1.3,3-2s0.8-1.4,1-1.8s0.2-0.5,0.5-0.7s1-0.3,2.5-0.4s2.2,0.2,2.5,0.3 c0.3,0.2,0.3,0.2,0.5,0.7c0.2,0.4,0.4,1.1,1,1.8c0.6,0.7,1.5,1.4,3,2s2.6,0.8,3.5,0.7s1.6-0.4,2-0.6c0.4-0.2,0.5-0.2,0.8-0.1 c0.3,0.1,1,0.5,2,1.5s1.4,1.6,1.5,2c0.1,0.3,0.1,0.4-0.1,0.8c-0.2,0.4-0.5,1.1-0.5,2c-0.1,0.9,0.1,2,0.7,3.5c0.6,1.5,1.3,2.4,2,3 s1.4,0.8,1.8,1c0.4,0.2,0.5,0.2,0.7,0.5s0.3,1,0.3,2.5c0,1.4-0.2,2.2-0.3,2.5s-0.3,0.3-0.7,0.5s-1.1,0.4-1.8,1s-1.4,1.5-2,3 S51,57,51.1,57.9s0.4,1.6,0.6,2c0.2,0.4,0.2,0.5,0.1,0.8c-0.1,0.3-0.5,1-1.5,2C49.4,63.6,48.8,64,48.4,64.1L48.4,64.1z M45.6,36.7 c-2.8-2.8-6.5-4.4-10.7-4.4c-4.1,0.1-7.9,1.6-10.7,4.4c-5.9,5.9-5.9,15.4,0,21.3s15.4,5.9,21.3,0C51.5,52.1,51.5,42.6,45.6,36.7 L45.6,36.7z M5.9,33.6l-2.8,3.8c-0.3,0.4-0.2,1,0.3,1.3c0.4,0.3,0.9,0.2,1.3-0.2l1-1.5v10.8c0,15.9,12.9,28.7,28.7,28.7 c15.9,0,28.7-12.9,28.7-28.7l0,0v-1.4c0-0.5-0.5-0.9-1-0.9s-0.9,0.4-0.9,0.9v1.4c0,14.8-12,26.9-26.9,26.9S7.6,62.6,7.6,47.8l0,0V37 l1.1,1.5C9,38.9,9.6,39,10,38.6c0.4-0.3,0.4-0.9,0.2-1.3l-2.8-3.8c-0.3-0.4-0.9-0.5-1.3-0.2C6,33.5,6,33.5,5.9,33.6L5.9,33.6z M34,34.2v0.9c0,0.5,0.4,0.9,0.9,0.9s0.9-0.4,0.9-0.9l0,0v-0.9c6.5,0.5,11.7,5.7,12.2,12.2h-0.9c-0.5,0-0.9,0.4-0.9,0.9 s0.4,0.9,0.9,0.9H48c-0.3,6.6-5.6,11.9-12.1,12.3v-0.9c0-0.5-0.4-0.9-0.9-0.9s-0.9,0.4-0.9,0.9v0.9c-6.6-0.5-11.8-5.7-12.2-12.2h0.8 c0.5,0,0.9-0.4,0.9-0.9s-0.4-0.9-0.9-0.9h-0.9C22.3,39.9,27.5,34.7,34,34.2z M34,40.7v7.5c0,0.3,0.1,0.5,0.3,0.7l2.8,2.8 c0.4,0.4,1,0.3,1.3,0c0.3-0.4,0.3-0.9,0-1.3l-2.6-2.6v-7.1c0-0.5-0.4-0.9-0.9-0.9C34.4,39.8,34,40.2,34,40.7z M13.3,77.5 c-0.5,0-0.9,0.4-0.9,0.9l0,0v2.8c0,0.5,0.4,1,0.9,1s1-0.4,1-0.9c0,0,0,0,0-0.1v-2.8C14.2,77.9,13.8,77.5,13.3,77.5L13.3,77.5z M26.5,77.5c-0.5,0-0.9,0.4-0.9,0.9l0,0v2.8c0,0.5,0.4,0.9,0.9,0.9s0.9-0.4,0.9-0.9v-2.8C27.4,77.9,27,77.5,26.5,77.5L26.5,77.5z M39.7,77.5c-0.5,0-0.9,0.4-0.9,0.9l0,0v2.8c0,0.5,0.4,0.9,0.9,0.9s0.9-0.4,0.9-0.9v-2.8C40.6,77.9,40.2,77.5,39.7,77.5L39.7,77.5 L39.7,77.5z M52.9,77.5c-0.5,0-0.9,0.4-0.9,0.9l0,0v2.8c0,0.5,0.4,0.9,0.9,0.9s0.9-0.4,0.9-0.9v-2.8C53.8,77.9,53.4,77.5,52.9,77.5z M19.9,79.4c-0.5,0-0.9,0.4-0.9,0.9l0,0v2.8c0,0.5,0.4,1,0.9,1s1-0.4,1-0.9c0,0,0,0,0-0.1v-2.8C20.8,79.8,20.4,79.4,19.9,79.4 L19.9,79.4z M33.1,79.4c-0.5,0-0.9,0.4-0.9,0.9l0,0v2.8c0,0.5,0.4,0.9,0.9,0.9s0.9-0.4,0.9-0.9v-2.8C34,79.8,33.6,79.4,33.1,79.4z M46.3,79.4c-0.5,0-0.9,0.4-0.9,0.9l0,0v2.8c0,0.5,0.4,0.9,0.9,0.9s0.9-0.4,0.9-0.9v-2.8C47.2,79.8,46.8,79.4,46.3,79.4L46.3,79.4z"></path> </svg> 