<?xml version="1.0" encoding="UTF-8"?> <svg xmlns="http://www.w3.org/2000/svg" xmlns:xlink="http://www.w3.org/1999/xlink" version="1.1" id="Layer_1" x="0px" y="0px" viewBox="0 0 55 55" style="enable-background:new 0 0 55 55;" xml:space="preserve"> <style type="text/css"> .st0{fill:#FED300;} </style> <g transform="matrix(1, 0, 0, 1, 1047, 1368)"> <circle id="Ellipse_59-2" class="st0" cx="-1016.7" cy="-1338" r="24"></circle> </g> <path id="Path_4978" d="M32.1,2.5c-1.5,0-2.8,1.2-2.8,2.8v1c-5.1,2.7-10.8,4.3-16.6,4.5h-2.1v0H5c-2.3,0-4.1,1.9-4.1,4.1v4.9 C0.8,22.1,2.7,24,5,24h0.9l3.9,7.6c0.4,0.7,0.9,1.4,1.6,1.4h1.4c0.8,0,1.4-0.6,1.4-1.4L13,24c5.8,0.4,11.4,2.2,16.4,5.2v1 c0,1.5,1.3,2.7,2.8,2.7c1.5,0,2.7-1.2,2.7-2.7V5.3C34.9,3.8,33.7,2.5,32.1,2.5L32.1,2.5L32.1,2.5z M5,22.6c-1.5,0-2.8-1.2-2.8-2.8 V15c0-1.5,1.2-2.8,2.8-2.8h5v10.4H5z M11.4,31.6c-0.2-0.2-0.4-0.4-0.5-0.6l-3.5-7h4.2l1.2,7.6L11.4,31.6z M12.8,22.6L12.8,22.6 l-1.4,0V12.2h1.4c5.8-0.2,11.5-1.7,16.6-4.4v19.8C24.3,24.6,18.6,22.9,12.8,22.6L12.8,22.6z M33.5,30.2c0,0.8-0.6,1.4-1.3,1.4 c-0.8,0-1.4-0.6-1.4-1.3l0,0c0,0,0-0.1,0-0.1V5.3c0-0.8,0.6-1.4,1.3-1.4c0.8,0,1.4,0.6,1.4,1.3c0,0,0,0.1,0,0.1V30.2z"></path> </svg> 